<?xml version="1.0" encoding="UTF-8" standalone="no"?>
<svg
   xmlns:dc="http://purl.org/dc/elements/1.1/"
   xmlns:cc="http://creativecommons.org/ns#"
   xmlns:rdf="http://www.w3.org/1999/02/22-rdf-syntax-ns#"
   xmlns:svg="http://www.w3.org/2000/svg"
   xmlns="http://www.w3.org/2000/svg"
   xmlns:sodipodi="http://sodipodi.sourceforge.net/DTD/sodipodi-0.dtd"
   xmlns:inkscape="http://www.inkscape.org/namespaces/inkscape"
   height="297mm"
   id="Layer_1"
   version="1.1"
   viewBox="0 0 793.70079 1122.5197"
   width="210mm"
   xml:space="preserve"
   sodipodi:docname="clear sky (night).svg"
   inkscape:version="1.0.2 (e86c8708, 2021-01-15)"><metadata
     id="metadata844"><rdf:RDF><cc:Work
         rdf:about=""><dc:format>image/svg+xml</dc:format><dc:type
           rdf:resource="http://purl.org/dc/dcmitype/StillImage" /><dc:title></dc:title></cc:Work></rdf:RDF></metadata><defs
     id="defs842"><filter
       inkscape:collect="always"
       style="color-interpolation-filters:sRGB"
       id="filter861"
       x="-0.15582384"
       width="1.3116477"
       y="-0.13615125"
       height="1.2723025"><feGaussianBlur
         inkscape:collect="always"
         stdDeviation="10.038085"
         id="feGaussianBlur863" /></filter><filter
       inkscape:collect="always"
       style="color-interpolation-filters:sRGB"
       id="filter865"
       x="-0.13927309"
       width="1.2785462"
       y="-0.12169002"
       height="1.24338"><feGaussianBlur
         inkscape:collect="always"
         stdDeviation="8.9718946"
         id="feGaussianBlur867" /></filter><filter
       inkscape:collect="always"
       style="color-interpolation-filters:sRGB"
       id="filter869"
       x="-0.10087684"
       width="1.2017537"
       y="-0.088141255"
       height="1.1762825"><feGaussianBlur
         inkscape:collect="always"
         stdDeviation="6.4984298"
         id="feGaussianBlur871" /></filter></defs><sodipodi:namedview
     pagecolor="#151515"
     bordercolor="#666666"
     borderopacity="1"
     objecttolerance="10"
     gridtolerance="10"
     guidetolerance="10"
     inkscape:pageopacity="0"
     inkscape:pageshadow="2"
     inkscape:window-width="1849"
     inkscape:window-height="1027"
     id="namedview840"
     showgrid="false"
     showborder="true"
     inkscape:zoom="0.70710678"
     inkscape:cx="408.2254"
     inkscape:cy="628.82192"
     inkscape:window-x="32"
     inkscape:window-y="41"
     inkscape:window-maximized="0"
     inkscape:current-layer="Layer_1"
     inkscape:document-rotation="0"
     inkscape:pagecheckerboard="true"
     units="mm" /><g
     id="g1540"
     transform="matrix(3.3556753,0,0,3.3556753,1076.5594,-312.65683)"><path
       style="color:#000000;font-style:normal;font-variant:normal;font-weight:normal;font-stretch:normal;font-size:medium;line-height:normal;font-family:sans-serif;font-variant-ligatures:normal;font-variant-position:normal;font-variant-caps:normal;font-variant-numeric:normal;font-variant-alternates:normal;font-variant-east-asian:normal;font-feature-settings:normal;font-variation-settings:normal;text-indent:0;text-align:start;text-decoration:none;text-decoration-line:none;text-decoration-style:solid;text-decoration-color:#000000;letter-spacing:normal;word-spacing:normal;text-transform:none;writing-mode:lr-tb;direction:ltr;text-orientation:mixed;dominant-baseline:auto;baseline-shift:baseline;text-anchor:start;white-space:normal;shape-padding:0;shape-margin:0;inline-size:0;clip-rule:nonzero;display:inline;overflow:visible;visibility:visible;isolation:auto;mix-blend-mode:normal;color-interpolation:sRGB;color-interpolation-filters:linearRGB;solid-color:#000000;solid-opacity:1;vector-effect:none;fill:#0fffff;fill-opacity:1;fill-rule:nonzero;stroke:#0fffff;stroke-width:23.04;stroke-linecap:round;stroke-linejoin:round;stroke-miterlimit:4;stroke-dasharray:none;stroke-dashoffset:0;stroke-opacity:1;filter:url(#filter861);color-rendering:auto;image-rendering:auto;shape-rendering:auto;text-rendering:auto;enable-background:accumulate;stop-color:#000000"
       d="m -129.4253,308.66934 c -1.2866,0.0768 -2.50173,0.0768 -3.78832,0.0768 -20.80006,0 -40.38502,-8.68211 -55.10945,-24.50965 -14.72444,-15.82754 -22.80143,-36.87974 -22.80143,-59.23806 0,-12.75424 2.64466,-25.04751 7.57665,-36.18825 2.2158,-4.9173 4.86049,-9.6041 7.93405,-13.98356 -8.34449,0.61465 -11.29239,1.84398 -15.72515,3.53431 -33.45164,11.37125 -57.68265,44.94718 -57.68265,84.66973 0,49.0193 36.95408,88.74184 82.55695,88.74184 25.23171,0 47.74723,-12.13956 62.90055,-31.27094 3.43093,-4.37947 6.57595,-9.14309 9.14916,-14.21406 -4.86049,1.30615 -9.86396,2.15132 -15.01036,2.38181 z m -57.03935,30.80994 c -39.24136,0 -71.12048,-34.26741 -71.12048,-76.44861 0,-30.04161 16.154,-56.01107 39.59874,-68.53484 -3.00208,9.6041 -4.57459,19.82286 -4.57459,30.50263 0,50.63279 36.45372,92.12249 82.62844,95.81046 -12.43716,11.67857 -28.73411,18.67036 -46.53211,18.67036 z"
       id="path855"
       sodipodi:nodetypes="cssscccsscccsscscs" /><path
       style="color:#000000;font-style:normal;font-variant:normal;font-weight:normal;font-stretch:normal;font-size:medium;line-height:normal;font-family:sans-serif;font-variant-ligatures:normal;font-variant-position:normal;font-variant-caps:normal;font-variant-numeric:normal;font-variant-alternates:normal;font-variant-east-asian:normal;font-feature-settings:normal;font-variation-settings:normal;text-indent:0;text-align:start;text-decoration:none;text-decoration-line:none;text-decoration-style:solid;text-decoration-color:#000000;letter-spacing:normal;word-spacing:normal;text-transform:none;writing-mode:lr-tb;direction:ltr;text-orientation:mixed;dominant-baseline:auto;baseline-shift:baseline;text-anchor:start;white-space:normal;shape-padding:0;shape-margin:0;inline-size:0;clip-rule:nonzero;display:inline;overflow:visible;visibility:visible;isolation:auto;mix-blend-mode:normal;color-interpolation:sRGB;color-interpolation-filters:linearRGB;solid-color:#000000;solid-opacity:1;vector-effect:none;fill:#68f3f3;fill-opacity:1;fill-rule:nonzero;stroke:#68f3f3;stroke-width:15.8589;stroke-linecap:round;stroke-linejoin:round;stroke-miterlimit:4;stroke-dasharray:none;stroke-dashoffset:0;stroke-opacity:1;filter:url(#filter865);color-rendering:auto;image-rendering:auto;shape-rendering:auto;text-rendering:auto;enable-background:accumulate;stop-color:#000000"
       d="m -129.4253,308.66935 c -1.2866,0.0768 -2.50173,0.0768 -3.78832,0.0768 -20.80006,0 -40.38502,-8.68211 -55.10945,-24.50965 -14.72444,-15.82754 -22.80143,-36.87974 -22.80143,-59.23806 0,-12.75424 2.64466,-25.04751 7.57665,-36.18825 2.2158,-4.9173 4.86049,-9.6041 7.93405,-13.98356 -8.34449,0.61465 -11.29239,1.84398 -15.72515,3.53431 -33.45164,11.37125 -57.68265,44.94718 -57.68265,84.66973 0,49.0193 36.95408,88.74184 82.55695,88.74184 25.23171,0 47.74723,-12.13956 62.90055,-31.27094 3.43093,-4.37947 6.57595,-9.14309 9.14916,-14.21406 -4.86049,1.30615 -9.86396,2.15132 -15.01036,2.38181 z m -57.03935,30.80994 c -39.24136,0 -71.12048,-34.26741 -71.12048,-76.44861 0,-30.04161 16.154,-56.01107 39.59874,-68.53484 -3.00208,9.6041 -4.57459,19.82286 -4.57459,30.50263 0,50.63279 36.45372,92.12249 82.62844,95.81046 -12.43716,11.67857 -28.73411,18.67036 -46.53211,18.67036 z"
       id="path833"
       sodipodi:nodetypes="cssscccsscccsscscs" /><path
       style="color:#000000;font-style:normal;font-variant:normal;font-weight:normal;font-stretch:normal;font-size:medium;line-height:normal;font-family:sans-serif;font-variant-ligatures:normal;font-variant-position:normal;font-variant-caps:normal;font-variant-numeric:normal;font-variant-alternates:normal;font-variant-east-asian:normal;font-feature-settings:normal;font-variation-settings:normal;text-indent:0;text-align:start;text-decoration:none;text-decoration-line:none;text-decoration-style:solid;text-decoration-color:#000000;letter-spacing:normal;word-spacing:normal;text-transform:none;writing-mode:lr-tb;direction:ltr;text-orientation:mixed;dominant-baseline:auto;baseline-shift:baseline;text-anchor:start;white-space:normal;shape-padding:0;shape-margin:0;inline-size:0;clip-rule:nonzero;display:inline;overflow:visible;visibility:visible;isolation:auto;mix-blend-mode:normal;color-interpolation:sRGB;color-interpolation-filters:linearRGB;solid-color:#000000;solid-opacity:1;vector-effect:none;fill:#a8f1f1;fill-opacity:1;fill-rule:nonzero;stroke:#a8f1f1;stroke-width:11.7014;stroke-linecap:butt;stroke-linejoin:miter;stroke-miterlimit:4;stroke-dasharray:none;stroke-dashoffset:0;stroke-opacity:1;filter:url(#filter869);color-rendering:auto;image-rendering:auto;shape-rendering:auto;text-rendering:auto;enable-background:accumulate;stop-color:#000000"
       d="m -129.4253,308.66934 c -1.2866,0.0768 -2.50173,0.0768 -3.78832,0.0768 -20.80006,0 -40.38502,-8.68211 -55.10945,-24.50965 -14.72444,-15.82754 -22.80143,-36.87974 -22.80143,-59.23806 0,-12.75424 2.64466,-25.04751 7.57665,-36.18825 2.2158,-4.9173 4.86049,-9.6041 7.93405,-13.98356 -8.34449,0.61465 -11.29239,1.84398 -15.72515,3.53431 -33.45164,11.37125 -57.68265,44.94718 -57.68265,84.66973 0,49.0193 36.95408,88.74184 82.55695,88.74184 25.23171,0 47.74723,-12.13956 62.90055,-31.27094 3.43093,-4.37947 6.57595,-9.14309 9.14916,-14.21406 -4.86049,1.30615 -9.86396,2.15132 -15.01036,2.38181 z m -57.03935,30.80994 c -39.24136,0 -71.12048,-34.26741 -71.12048,-76.44861 0,-30.04161 16.154,-56.01107 39.59874,-68.53484 -3.00208,9.6041 -4.57459,19.82286 -4.57459,30.50263 0,50.63279 36.45372,92.12249 82.62844,95.81046 -12.43716,11.67857 -28.73411,18.67036 -46.53211,18.67036 z"
       id="path853"
       sodipodi:nodetypes="cssscccsscccsscscs" /><path
       style="color:#000000;font-style:normal;font-variant:normal;font-weight:normal;font-stretch:normal;font-size:medium;line-height:normal;font-family:sans-serif;font-variant-ligatures:normal;font-variant-position:normal;font-variant-caps:normal;font-variant-numeric:normal;font-variant-alternates:normal;font-variant-east-asian:normal;font-feature-settings:normal;font-variation-settings:normal;text-indent:0;text-align:start;text-decoration:none;text-decoration-line:none;text-decoration-style:solid;text-decoration-color:#000000;letter-spacing:normal;word-spacing:normal;text-transform:none;writing-mode:lr-tb;direction:ltr;text-orientation:mixed;dominant-baseline:auto;baseline-shift:baseline;text-anchor:start;white-space:normal;shape-padding:0;shape-margin:0;inline-size:0;clip-rule:nonzero;display:inline;overflow:visible;visibility:visible;opacity:0.299035;isolation:auto;mix-blend-mode:normal;color-interpolation:sRGB;color-interpolation-filters:linearRGB;solid-color:#000000;solid-opacity:1;vector-effect:none;fill:#000000;fill-opacity:1;fill-rule:nonzero;stroke:none;stroke-width:0.74107;stroke-linecap:butt;stroke-linejoin:miter;stroke-miterlimit:4;stroke-dasharray:none;stroke-dashoffset:0;stroke-opacity:1;color-rendering:auto;image-rendering:auto;shape-rendering:auto;text-rendering:auto;enable-background:accumulate;stop-color:#000000"
       d="m -123.76845,307.25513 c -1.2866,0.0768 -2.50173,0.0768 -3.78832,0.0768 -20.80006,0 -40.38502,-8.68211 -55.10945,-24.50965 -14.72444,-15.82754 -22.80143,-36.87974 -22.80143,-59.23806 0,-12.75424 2.64466,-25.04751 7.57665,-36.18825 2.2158,-4.9173 4.86049,-9.6041 7.93405,-13.98356 -8.34449,0.61465 -11.29239,1.84398 -15.72515,3.53431 -33.45164,11.37125 -57.68265,44.94718 -57.68265,84.66973 0,49.0193 36.95408,88.74184 82.55695,88.74184 25.23171,0 47.74723,-12.13956 62.90055,-31.27094 3.43093,-4.37947 6.57595,-9.14309 9.14916,-14.21406 -4.86049,1.30615 -9.86396,2.15132 -15.01036,2.38181 z m -57.03935,30.80994 c -39.24136,0 -71.12048,-34.26741 -71.12048,-76.44861 0,-30.04161 16.154,-56.01107 39.59874,-68.53484 -3.00208,9.6041 -4.57459,19.82286 -4.57459,30.50263 0,50.63279 36.45372,92.12249 82.62844,95.81046 -12.43716,11.67857 -28.73411,18.67036 -46.53211,18.67036 z"
       id="path859"
       sodipodi:nodetypes="cssscccsscccsscscs" /><path
       style="color:#000000;font-style:normal;font-variant:normal;font-weight:normal;font-stretch:normal;font-size:medium;line-height:normal;font-family:sans-serif;font-variant-ligatures:normal;font-variant-position:normal;font-variant-caps:normal;font-variant-numeric:normal;font-variant-alternates:normal;font-variant-east-asian:normal;font-feature-settings:normal;font-variation-settings:normal;text-indent:0;text-align:start;text-decoration:none;text-decoration-line:none;text-decoration-style:solid;text-decoration-color:#000000;letter-spacing:normal;word-spacing:normal;text-transform:none;writing-mode:lr-tb;direction:ltr;text-orientation:mixed;dominant-baseline:auto;baseline-shift:baseline;text-anchor:start;white-space:normal;shape-padding:0;shape-margin:0;inline-size:0;clip-rule:nonzero;display:inline;overflow:visible;visibility:visible;isolation:auto;mix-blend-mode:normal;color-interpolation:sRGB;color-interpolation-filters:linearRGB;solid-color:#000000;solid-opacity:1;vector-effect:none;fill:#ffffff;fill-opacity:1;fill-rule:nonzero;stroke:none;stroke-width:0.74107;stroke-linecap:butt;stroke-linejoin:miter;stroke-miterlimit:4;stroke-dasharray:none;stroke-dashoffset:0;stroke-opacity:1;color-rendering:auto;image-rendering:auto;shape-rendering:auto;text-rendering:auto;enable-background:accumulate;stop-color:#000000"
       d="m -129.4253,308.66934 c -1.2866,0.0768 -2.50173,0.0768 -3.78832,0.0768 -20.80006,0 -40.38502,-8.68211 -55.10945,-24.50965 -14.72444,-15.82754 -22.80143,-36.87974 -22.80143,-59.23806 0,-12.75424 2.64466,-25.04751 7.57665,-36.18825 2.2158,-4.9173 4.86049,-9.6041 7.93405,-13.98356 -8.34449,0.61465 -11.29239,1.84398 -15.72515,3.53431 -33.45164,11.37125 -57.68265,44.94718 -57.68265,84.66973 0,49.0193 36.95408,88.74184 82.55695,88.74184 25.23171,0 47.74723,-12.13956 62.90055,-31.27094 3.43093,-4.37947 6.57595,-9.14309 9.14916,-14.21406 -4.86049,1.30615 -9.86396,2.15132 -15.01036,2.38181 z m -57.03935,30.80994 c -39.24136,0 -71.12048,-34.26741 -71.12048,-76.44861 0,-30.04161 16.154,-56.01107 39.59874,-68.53484 -3.00208,9.6041 -4.57459,19.82286 -4.57459,30.50263 0,50.63279 36.45372,92.12249 82.62844,95.81046 -12.43716,11.67857 -28.73411,18.67036 -46.53211,18.67036 z"
       id="path857"
       sodipodi:nodetypes="cssscccsscccsscscs" /></g></svg>
