<?xml version="1.0" encoding="UTF-8" standalone="no"?>
<svg
   xmlns:dc="http://purl.org/dc/elements/1.1/"
   xmlns:cc="http://creativecommons.org/ns#"
   xmlns:rdf="http://www.w3.org/1999/02/22-rdf-syntax-ns#"
   xmlns:svg="http://www.w3.org/2000/svg"
   xmlns="http://www.w3.org/2000/svg"
   xmlns:sodipodi="http://sodipodi.sourceforge.net/DTD/sodipodi-0.dtd"
   xmlns:inkscape="http://www.inkscape.org/namespaces/inkscape"
   enable-background="new 0 0 64 64"
   height="184mm"
   id="Layer_1"
   version="1.1"
   viewBox="0 0 759.68502 695.43377"
   width="201mm"
   xml:space="preserve"
   sodipodi:docname="02n.svg"
   inkscape:version="1.0.2 (e86c8708, 2021-01-15)"><metadata
     id="metadata854"><rdf:RDF><cc:Work
         rdf:about=""><dc:format>image/svg+xml</dc:format><dc:type
           rdf:resource="http://purl.org/dc/dcmitype/StillImage" /><dc:title></dc:title></cc:Work></rdf:RDF></metadata><defs
     id="defs852"><filter
       inkscape:collect="always"
       style="color-interpolation-filters:sRGB"
       id="filter889"
       x="-9.548894e-06"
       width="1.0000191"
       y="-1.2428379e-05"
       height="1.0000249"><feGaussianBlur
         inkscape:collect="always"
         stdDeviation="0.00027751492"
         id="feGaussianBlur891" /></filter><filter
       inkscape:collect="always"
       style="color-interpolation-filters:sRGB"
       id="filter4751"
       x="-0.070100121"
       width="1.1402003"
       y="-0.080636345"
       height="1.1612726"><feGaussianBlur
         inkscape:collect="always"
         stdDeviation="2.0080796"
         id="feGaussianBlur4753" /></filter><filter
       inkscape:collect="always"
       style="color-interpolation-filters:sRGB"
       id="filter4763"
       x="-0.087933592"
       width="1.1758672"
       y="-0.10115023"
       height="1.2023005"><feGaussianBlur
         inkscape:collect="always"
         stdDeviation="2.518935"
         id="feGaussianBlur4765" /></filter><filter
       inkscape:collect="always"
       style="color-interpolation-filters:sRGB"
       id="filter4791"
       x="-0.10229458"
       width="1.2045892"
       y="-0.11766971"
       height="1.2353394"><feGaussianBlur
         inkscape:collect="always"
         stdDeviation="2.9303182"
         id="feGaussianBlur4793" /></filter></defs><sodipodi:namedview
     pagecolor="#0b0b0b"
     bordercolor="#666666"
     borderopacity="1"
     objecttolerance="10"
     gridtolerance="10"
     guidetolerance="10"
     inkscape:pageopacity="0.58039216"
     inkscape:pageshadow="2"
     inkscape:window-width="1791"
     inkscape:window-height="1027"
     id="namedview850"
     showgrid="false"
     inkscape:pagecheckerboard="true"
     showborder="true"
     inkscape:zoom="0.37322127"
     inkscape:cx="-562.53666"
     inkscape:cy="839.83349"
     inkscape:window-x="116"
     inkscape:window-y="25"
     inkscape:window-maximized="0"
     inkscape:current-layer="Layer_1"
     inkscape:document-rotation="0"
     units="mm" /><path
     style="color:#000000;font-style:normal;font-variant:normal;font-weight:normal;font-stretch:normal;font-size:medium;line-height:normal;font-family:sans-serif;font-variant-ligatures:normal;font-variant-position:normal;font-variant-caps:normal;font-variant-numeric:normal;font-variant-alternates:normal;font-variant-east-asian:normal;font-feature-settings:normal;font-variation-settings:normal;text-indent:0;text-align:start;text-decoration:none;text-decoration-line:none;text-decoration-style:solid;text-decoration-color:#000000;letter-spacing:normal;word-spacing:normal;text-transform:none;writing-mode:lr-tb;direction:ltr;text-orientation:mixed;dominant-baseline:auto;baseline-shift:baseline;text-anchor:start;white-space:normal;shape-padding:0;shape-margin:0;inline-size:0;clip-rule:nonzero;display:inline;overflow:visible;visibility:visible;isolation:auto;mix-blend-mode:normal;color-interpolation:sRGB;color-interpolation-filters:linearRGB;solid-color:#000000;solid-opacity:1;vector-effect:none;fill:#a8f1f1;fill-opacity:1;fill-rule:nonzero;stroke:#a8f1f1;stroke-width:2;stroke-linecap:round;stroke-linejoin:round;stroke-miterlimit:10;stroke-dasharray:none;stroke-dashoffset:0;stroke-opacity:1;filter:url(#filter889);color-rendering:auto;image-rendering:auto;shape-rendering:auto;text-rendering:auto;enable-background:accumulate;stop-color:#000000"
     d="m -24.523611,-106.88165 v 4.522"
     id="path956" /><path
     style="opacity:0.173633;fill:#a8f1f1;fill-opacity:1;stroke:#a8f1f1;stroke-width:0.0265625;stroke-linecap:round;stroke-linejoin:round;stroke-miterlimit:4;stroke-dasharray:none;stroke-opacity:1"
     d=""
     id="path894" /><g
     id="g68"
     transform="matrix(9.0260244,0,0,9.0260244,1967.4873,88.294491)"><g
       id="g4353"
       transform="translate(-96.724659,25.806348)"
       style="fill:#0fffff;fill-opacity:1;stroke:#0fffff;stroke-width:6;stroke-linecap:round;stroke-linejoin:round;stroke-miterlimit:4;stroke-dasharray:none;stroke-opacity:1;filter:url(#filter4791)"><path
         id="path4347"
         style="color:#000000;font-style:normal;font-variant:normal;font-weight:normal;font-stretch:normal;font-size:medium;line-height:normal;font-family:sans-serif;font-variant-ligatures:normal;font-variant-position:normal;font-variant-caps:normal;font-variant-numeric:normal;font-variant-alternates:normal;font-variant-east-asian:normal;font-feature-settings:normal;font-variation-settings:normal;text-indent:0;text-align:start;text-decoration:none;text-decoration-line:none;text-decoration-style:solid;text-decoration-color:#000000;letter-spacing:normal;word-spacing:normal;text-transform:none;writing-mode:lr-tb;direction:ltr;text-orientation:mixed;dominant-baseline:auto;baseline-shift:baseline;text-anchor:start;white-space:normal;shape-padding:0;shape-margin:0;inline-size:0;clip-rule:nonzero;display:inline;overflow:visible;visibility:visible;isolation:auto;mix-blend-mode:normal;color-interpolation:sRGB;color-interpolation-filters:linearRGB;solid-color:#000000;solid-opacity:1;vector-effect:none;fill:#0fffff;fill-opacity:1;fill-rule:nonzero;stroke:#0fffff;stroke-width:6;stroke-linecap:round;stroke-linejoin:round;stroke-miterlimit:4;stroke-dasharray:none;stroke-dashoffset:0;stroke-opacity:1;color-rendering:auto;image-rendering:auto;shape-rendering:auto;text-rendering:auto;enable-background:accumulate;stop-color:#000000"
         d="m -69.498166,-27.46147 c -1.57244,0.228763 -2.075678,0.501501 -2.841382,0.882204 -5.849053,2.609803 -8.793105,9.315816 -6.765874,16.8647065 0.189137,0.7043047 0.42831,1.3890083 0.690194,2.0651137 1.733366,1.8441411 1.618212,0.1506418 2.185095,-0.237594 -0.259746,-0.6465225 -0.49529,-1.3031143 -0.677063,-1.9799998 -1.533168,-5.7091204 0.2453,-10.8614454 4.112219,-13.5560174 -0.08685,1.865446 0.132326,3.828838 0.677372,5.858426 2.584031,9.6222777 11.706906,17.0173653 20.769863,17.0987229 -1.709486,2.2733474 -4.316838,3.7705956 -7.516876,4.1149799 -1.093329,1.2911548 -0.645037,1.9891412 0.707225,2.3393085 4.576938,-0.4924456 8.079764,-3.041998 9.941161,-6.7329361 0.435919,-0.8783079 0.796355,-1.82523 1.032128,-2.8234421 -0.867523,0.3134331 -1.783412,0.5409316 -2.760781,0.6537801 -0.243363,0.031859 -0.477555,0.04851 -0.724836,0.065772 -3.997755,0.279065 -8.207329,-1.1091048 -11.84511,-3.919429 -3.637779,-2.8103208 -6.263665,-6.7022352 -7.404716,-10.9512212 -0.650911,-2.423821 -0.769731,-4.796458 -0.390366,-6.97982 0.17492,-0.964214 0.444507,-1.889042 0.811747,-2.762554 z"
         sodipodi:nodetypes="ccsccccsccccccccscc" /><path
         id="path4349"
         style="color:#000000;font-style:normal;font-variant:normal;font-weight:normal;font-stretch:normal;font-size:medium;line-height:normal;font-family:sans-serif;font-variant-ligatures:normal;font-variant-position:normal;font-variant-caps:normal;font-variant-numeric:normal;font-variant-alternates:normal;font-variant-east-asian:normal;font-feature-settings:normal;font-variation-settings:normal;text-indent:0;text-align:start;text-decoration:none;text-decoration-line:none;text-decoration-style:solid;text-decoration-color:#000000;letter-spacing:normal;word-spacing:normal;text-transform:none;writing-mode:lr-tb;direction:ltr;text-orientation:mixed;dominant-baseline:auto;baseline-shift:baseline;text-anchor:start;white-space:normal;shape-padding:0;shape-margin:0;inline-size:0;clip-rule:nonzero;display:inline;overflow:visible;visibility:visible;isolation:auto;mix-blend-mode:normal;color-interpolation:sRGB;color-interpolation-filters:linearRGB;solid-color:#000000;solid-opacity:1;vector-effect:none;fill:#0fffff;fill-opacity:1;fill-rule:nonzero;stroke:#0fffff;stroke-width:6;stroke-linecap:round;stroke-linejoin:round;stroke-miterlimit:4;stroke-dasharray:none;stroke-dashoffset:0;stroke-opacity:1;color-rendering:auto;image-rendering:auto;shape-rendering:auto;text-rendering:auto;enable-background:accumulate;stop-color:#000000"
         d="m -64.893012,2.0754721 c 3.6e-4,0.0019 -0.002,0.0024 -0.002,0.0039 2.2e-4,0.0044 0.005,0.01285 0,0.01172 -0.004,1.5e-5 -0.009,4.3e-5 -0.0117,0 -8.8e-4,1.9e-5 -0.005,-2.4e-5 -0.008,0 0,0 -0.002,0 -0.002,0 h -0.002 -0.002 c -0.002,-1.49e-4 -0.004,9.4e-5 -0.006,0 -0.002,-9.2e-5 -0.005,0.0013 -0.006,0 -0.001,-10e-4 0.002,-0.0026 0.002,-0.0039 -0.004,-0.0078 -0.001,-0.0039 -0.004,-0.0078 -7.6e-4,2e-6 -10e-4,6e-6 -0.002,0 -0.002,-1.6e-5 -0.004,5e-5 -0.006,0 -0.001,-0.0014 -9.5e-4,0.0083 -0.002,0.0039 h -0.002 c -2e-4,0.0039 1.5e-4,0.0078 0,0.01172 h -0.002 c -0.002,-1.8e-5 -0.006,1.4e-5 -0.008,0 -0.003,-2.3e-5 -0.009,0.003 -0.01,0 -0.001,-0.0036 -0.001,-0.0078 -0.002,-0.01172 h -0.004 -0.002 c -5.8e-4,0.0027 4.9e-4,0.0034 0,0.0059 -4.8e-4,0.0025 1.2e-4,0.0039 0,0.0059 5.7e-4,-0.002 10e-4,-0.0038 0.002,-0.0059 7.6e-4,7.07e-4 0.002,-2.79e-4 0.002,0.0059 0,10e-4 -0.003,-1.2e-5 -0.004,0 -5e-4,0 -0.0197,7.59e-4 -0.0137,0 -0.002,6.38e-4 -0.003,0.002 -0.006,0.002 -0.002,8.58e-4 -0.004,0.0011 -0.006,0.002 -0.005,0.0023 -0.01,0.0045 -0.0156,0.0039 -0.005,0 -0.0106,5e-6 -0.0156,0 -0.005,-2e-6 -0.009,-1.4e-5 -0.0137,0 -0.003,-2.6e-5 -0.009,-3.23e-4 -0.0117,0 -0.001,1e-4 -0.0147,0.0012 -0.0117,0 -0.003,0.0014 -0.007,0.0049 -0.01,0.0059 -0.01,0.0033 -0.0105,0.002 -0.0195,0.002 h -0.008 c -0.007,0 -0.013,-4.86e-4 -0.0195,-0.002 -0.001,-2.91e-4 -0.003,4.97e-4 -0.004,0 0,0 0.002,0.002 0.002,0.002 -8.3e-4,10e-4 0.0118,-0.0028 -0.0137,0.0039 h -0.0176 -0.0156 -0.041 -0.0117 c -0.002,0 -0.004,1.5e-5 -0.006,0 0,9.76e-4 -0.003,0 -0.004,0 h -0.01 -0.0176 -0.0156 c -0.001,0 -5.7e-4,-0.0018 -0.002,-0.002 -3.48921,0.298249 -6.58286,2.038087 -8.6582,4.6660151 -0.3419,0.433645 -0.26756,1.062327 0.16601,1.404297 0.43365,0.341886 1.06233,0.267565 1.4043,-0.166016 1.80871,-2.2903061 4.49835,-3.7873351 7.53906,-3.9609371 5.67799,0.01719 11.00391,5.6029161 11.00391,11.5019529 9e-5,0.49865 0.3675,0.921043 0.86133,0.990234 3.55263,0.494907 6.17187,3.189573 6.17187,6.357422 0,3.503001 -3.21047,6.439453 -7.33007,6.439454 -0.55228,0 -1,0.447713 -1,1 0,0.552284 0.44772,1 1,1 5.0844,0 9.33007,-3.726456 9.33007,-8.439454 0,-3.992522 -3.09572,-7.18792 -7.11133,-8.09375 -0.40193,-6.6160838 -5.9772,-12.4457229 -12.48632,-12.7167959 -0.002,-8.2e-5 -0.004,7.9e-5 -0.006,0 -0.0119,-4.88e-4 -0.0233,-0.0035 -0.0352,-0.0039 -0.005,-1.98e-4 -0.0104,1.91e-4 -0.0156,0 h -0.0117 -0.002 -0.01 -0.006 c 0,0 -0.002,0 -0.002,0 h -0.002 c -0.003,4e-6 -0.005,6e-6 -0.008,0 h -0.002 c -0.002,1e-6 -0.0146,-2.09e-4 -0.008,0 -0.001,5.2e-5 -0.003,-1.42e-4 -0.004,0 -10e-4,1.43e-4 -0.003,-9.3e-5 -0.004,0 -8.5e-4,4.1e-5 -0.001,0 -0.002,0 -10e-4,1.51e-4 -0.003,1.09e-4 -0.004,0 h -0.002 -0.002 -0.002 c -0.001,1.25e-4 -0.002,0.0039 -0.004,0.0039 h -0.0137 c -0.003,0 -0.007,1.9e-5 -0.01,0 -0.007,-1.2e-5 -0.0125,-1.27e-4 -0.0195,0 -0.004,-2.4e-4 -0.007,-8.54e-4 -0.01,0 -0.004,-0.0016 -0.008,-0.0023 -0.0117,-0.0039 -0.004,-5e-6 -0.008,6e-6 -0.0117,0 -8e-4,1e-5 -0.001,-2.2e-5 -0.002,0 -0.002,-3.6e-5 -0.005,2.9e-5 -0.008,0 3e-4,-2.31e-4 -10e-4,1.08e-4 -0.002,0 -10e-4,1.52e-4 -0.004,0.0013 -0.004,0 -3.9e-4,-0.0015 -0.002,0.0012 -0.002,0 -0.006,0.0029 -0.0155,-2.59e-4 -0.0215,-0.002 -0.002,-4.2e-4 -0.003,-0.0014 -0.004,-0.002 h -0.006 -0.006 -0.0117 -0.002 -0.0137 -0.004 -0.008 -0.004 -0.0137 c -0.002,-1.6e-5 -0.003,-9.3e-5 -0.004,0 h -0.006 -0.01 -0.0117 -0.008 -0.008 -0.01 -0.0156 -0.0117 -0.006 c -0.004,0 -0.007,2e-6 -0.01,0 -0.0107,-8e-6 -0.0206,-1.9e-5 -0.0312,0 -5e-4,0 -0.0218,0.0012 -0.0117,0 -0.0102,0.0017 -0.0191,9.1e-4 -0.0293,0 0.005,-0.0021 1e-5,-0.0031 0.002,-0.0039 -0.003,0.0015 -0.006,0.0078 -0.0117,0.0078 0,0 -0.002,0 -0.002,0 -0.004,1.11e-4 -5.2e-4,-0.0062 0,-0.01172 9e-5,-9.16e-4 1.3e-4,-0.0011 0,-0.002 -2.8e-4,-8.76e-4 1.8e-4,-0.0012 0,-0.002 z m -0.17383,0.02734 c 0.004,-0.0014 0.006,-0.0045 0.01,-0.0059 5.2e-4,-0.0015 0.002,-0.0023 0.002,-0.0039 -0.008,0.0098 -0.0156,0.01643 -0.0273,0.01172 0.005,-8e-4 0.0106,-0.0014 0.0156,-0.002 z" /><path
         style="color:#000000;font-style:normal;font-variant:normal;font-weight:normal;font-stretch:normal;font-size:medium;line-height:normal;font-family:sans-serif;font-variant-ligatures:normal;font-variant-position:normal;font-variant-caps:normal;font-variant-numeric:normal;font-variant-alternates:normal;font-variant-east-asian:normal;font-feature-settings:normal;font-variation-settings:normal;text-indent:0;text-align:start;text-decoration:none;text-decoration-line:none;text-decoration-style:solid;text-decoration-color:#000000;letter-spacing:normal;word-spacing:normal;text-transform:none;writing-mode:lr-tb;direction:ltr;text-orientation:mixed;dominant-baseline:auto;baseline-shift:baseline;text-anchor:start;white-space:normal;shape-padding:0;shape-margin:0;inline-size:0;clip-rule:nonzero;display:inline;overflow:visible;visibility:visible;isolation:auto;mix-blend-mode:normal;color-interpolation:sRGB;color-interpolation-filters:linearRGB;solid-color:#000000;solid-opacity:1;vector-effect:none;fill:#0fffff;fill-opacity:1;fill-rule:nonzero;stroke:#0fffff;stroke-width:6;stroke-linecap:round;stroke-linejoin:round;stroke-miterlimit:4;stroke-dasharray:none;stroke-dashoffset:0;stroke-opacity:1;color-rendering:auto;image-rendering:auto;shape-rendering:auto;text-rendering:auto;enable-background:accumulate;stop-color:#000000"
         d="m -86.206455,-11.106598 c -9.57627,0 -17.414055,7.3792129 -17.414055,16.5292969 0,0.594921 0.0797,1.1699123 0.14453,1.7480473 -5.71903,1.164715 -10.06836,6.2066138 -10.06836,12.3769528 0,7.016554 5.571,12.757813 12.44922,12.757813 h 41.970697 a 1,1 0 0 0 1,-1 1,1 0 0 0 -1,-1 h -41.970697 c -5.76779,0 -10.44923,-4.794366 -10.44923,-10.757813 0,-5.545963 4.05383,-10.0737678 9.24414,-10.6874998 a 1.0001,1.0001 0 0 0 0.86914,-1.158203 c -0.12398,-0.74015 -0.18945,-1.503386 -0.18945,-2.2792973 0,-8.007915 6.860335,-14.529296 15.414065,-14.529297 8.078936,0 14.65051,5.833186 15.353516,13.212891 a 1,1 0 0 0 1.089844,0.900391 1,1 0 0 0 0.900391,-1.089844 c -0.804994,-8.450295 -8.298686,-15.0234379 -17.343751,-15.0234379 z"
         id="path4351" /></g><g
       id="g4822"><g
         id="g4407"
         style="stroke:#68f3f3;stroke-width:4.6;stroke-linecap:round;stroke-linejoin:round;stroke-miterlimit:4;stroke-dasharray:none;stroke-opacity:1;filter:url(#filter4763)"
         transform="translate(-130.10765,-10.253051)"><path
           style="color:#000000;font-style:normal;font-variant:normal;font-weight:normal;font-stretch:normal;font-size:medium;line-height:normal;font-family:sans-serif;font-variant-ligatures:normal;font-variant-position:normal;font-variant-caps:normal;font-variant-numeric:normal;font-variant-alternates:normal;font-variant-east-asian:normal;font-feature-settings:normal;font-variation-settings:normal;text-indent:0;text-align:start;text-decoration:none;text-decoration-line:none;text-decoration-style:solid;text-decoration-color:#000000;letter-spacing:normal;word-spacing:normal;text-transform:none;writing-mode:lr-tb;direction:ltr;text-orientation:mixed;dominant-baseline:auto;baseline-shift:baseline;text-anchor:start;white-space:normal;shape-padding:0;shape-margin:0;inline-size:0;clip-rule:nonzero;display:inline;overflow:visible;visibility:visible;isolation:auto;mix-blend-mode:normal;color-interpolation:sRGB;color-interpolation-filters:linearRGB;solid-color:#000000;solid-opacity:1;vector-effect:none;fill:#68f3f3;fill-opacity:1;fill-rule:nonzero;stroke:#68f3f3;stroke-width:4.6;stroke-linecap:round;stroke-linejoin:round;stroke-miterlimit:4;stroke-dasharray:none;stroke-dashoffset:0;stroke-opacity:1;color-rendering:auto;image-rendering:auto;shape-rendering:auto;text-rendering:auto;enable-background:accumulate;stop-color:#000000"
           d="m -36.115175,8.597927 c -1.57244,0.228763 -2.075678,0.501501 -2.841382,0.882204 -5.849053,2.609803 -8.793105,9.315816 -6.765874,16.864706 0.189137,0.704305 0.42831,1.389009 0.690194,2.065114 1.733366,1.844141 1.618212,0.150642 2.185095,-0.237594 -0.259746,-0.646522 -0.49529,-1.303114 -0.677063,-1.98 -1.533168,-5.70912 0.2453,-10.861445 4.112219,-13.556017 -0.08685,1.865446 0.132326,3.828838 0.677372,5.858426 2.584031,9.622278 11.706906,17.017365 20.769863,17.098723 -1.709486,2.273347 -4.316838,3.770595 -7.516876,4.11498 -1.093329,1.291155 -0.645037,1.989141 0.707225,2.339308 4.576938,-0.492445 8.079764,-3.041998 9.941161,-6.732936 0.435919,-0.878308 0.796355,-1.82523 1.032128,-2.823442 -0.867523,0.313433 -1.783412,0.540932 -2.760781,0.65378 -0.243363,0.03186 -0.477555,0.04851 -0.724836,0.06577 -3.997755,0.279065 -8.207329,-1.109105 -11.84511,-3.919429 -3.637779,-2.810321 -6.263665,-6.702235 -7.404716,-10.951221 -0.650911,-2.423821 -0.769731,-4.796458 -0.390366,-6.97982 0.17492,-0.964214 0.444507,-1.889042 0.811747,-2.762554 z"
           id="path4373" /><path
           style="color:#000000;font-style:normal;font-variant:normal;font-weight:normal;font-stretch:normal;font-size:medium;line-height:normal;font-family:sans-serif;font-variant-ligatures:normal;font-variant-position:normal;font-variant-caps:normal;font-variant-numeric:normal;font-variant-alternates:normal;font-variant-east-asian:normal;font-feature-settings:normal;font-variation-settings:normal;text-indent:0;text-align:start;text-decoration:none;text-decoration-line:none;text-decoration-style:solid;text-decoration-color:#000000;letter-spacing:normal;word-spacing:normal;text-transform:none;writing-mode:lr-tb;direction:ltr;text-orientation:mixed;dominant-baseline:auto;baseline-shift:baseline;text-anchor:start;white-space:normal;shape-padding:0;shape-margin:0;inline-size:0;clip-rule:nonzero;display:inline;overflow:visible;visibility:visible;isolation:auto;mix-blend-mode:normal;color-interpolation:sRGB;color-interpolation-filters:linearRGB;solid-color:#000000;solid-opacity:1;vector-effect:none;fill:#68f3f3;fill-opacity:1;fill-rule:nonzero;stroke:#68f3f3;stroke-width:4.6;stroke-linecap:round;stroke-linejoin:round;stroke-miterlimit:4;stroke-dasharray:none;stroke-dashoffset:0;stroke-opacity:1;color-rendering:auto;image-rendering:auto;shape-rendering:auto;text-rendering:auto;enable-background:accumulate;stop-color:#000000"
           d="m -31.510021,38.134869 c 3.6e-4,0.0019 -0.002,0.0024 -0.002,0.0039 2.2e-4,0.0044 0.005,0.01285 0,0.01172 -0.004,1.5e-5 -0.009,4.3e-5 -0.0117,0 -8.8e-4,1.9e-5 -0.005,-2.4e-5 -0.008,0 h -0.002 -0.002 -0.002 c -0.002,-1.49e-4 -0.004,9.4e-5 -0.006,0 -0.002,-9.2e-5 -0.005,0.0013 -0.006,0 -10e-4,-10e-4 0.002,-0.0026 0.002,-0.0039 -0.004,-0.0078 -0.001,-0.0039 -0.004,-0.0078 -7.6e-4,2e-6 -10e-4,6e-6 -0.002,0 -0.002,-1.6e-5 -0.004,5e-5 -0.006,0 -0.001,-0.0014 -9.5e-4,0.0083 -0.002,0.0039 h -0.002 c -2e-4,0.0039 1.5e-4,0.0078 0,0.01172 h -0.002 c -0.002,-1.8e-5 -0.006,1.4e-5 -0.008,0 -0.003,-2.3e-5 -0.009,0.003 -0.01,0 -10e-4,-0.0036 -10e-4,-0.0078 -0.002,-0.01172 h -0.004 -0.002 c -5.8e-4,0.0027 4.9e-4,0.0034 0,0.0059 -4.8e-4,0.0025 1.2e-4,0.0039 0,0.0059 5.7e-4,-0.002 0.001,-0.0038 0.002,-0.0059 7.6e-4,7.07e-4 0.002,-2.79e-4 0.002,0.0059 0,0.001 -0.003,-1.2e-5 -0.004,0 -5e-4,0 -0.0197,7.59e-4 -0.0137,0 -0.002,6.38e-4 -0.003,0.002 -0.006,0.002 -0.002,8.58e-4 -0.004,0.0011 -0.006,0.002 -0.005,0.0023 -0.01,0.0045 -0.0156,0.0039 -0.005,0 -0.0106,5e-6 -0.0156,0 -0.005,-2e-6 -0.009,-1.4e-5 -0.0137,0 -0.003,-2.6e-5 -0.009,-3.23e-4 -0.0117,0 -0.001,1e-4 -0.0147,0.0012 -0.0117,0 -0.003,0.0014 -0.007,0.0049 -0.01,0.0059 -0.01,0.0033 -0.0105,0.002 -0.0195,0.002 h -0.008 c -0.007,0 -0.013,-4.86e-4 -0.0195,-0.002 -0.001,-2.91e-4 -0.003,4.97e-4 -0.004,0 l 0.002,0.002 c -8.3e-4,0.001 0.0118,-0.0028 -0.0137,0.0039 h -0.0176 -0.0156 -0.041 -0.0117 c -0.002,0 -0.004,1.5e-5 -0.006,0 0,9.76e-4 -0.003,0 -0.004,0 h -0.01 -0.0176 -0.0156 c -10e-4,0 -5.7e-4,-0.0018 -0.002,-0.002 -3.48921,0.298249 -6.58286,2.038087 -8.6582,4.666015 -0.3419,0.433645 -0.26756,1.062327 0.16601,1.404297 0.43365,0.341886 1.06233,0.267565 1.4043,-0.166016 1.80871,-2.290306 4.49835,-3.787335 7.53906,-3.960937 5.67799,0.01719 11.00391,5.602916 11.00391,11.501953 9e-5,0.49865 0.3675,0.921043 0.86133,0.990234 3.55263,0.494907 6.17187,3.189573 6.17187,6.357422 0,3.503001 -3.21047,6.439453 -7.33007,6.439454 -0.55228,0 -1,0.447713 -1,1 0,0.552284 0.44772,1 1,1 5.0844,0 9.33007,-3.726456 9.33007,-8.439454 0,-3.992522 -3.09572,-7.18792 -7.11133,-8.09375 -0.40193,-6.616084 -5.9772,-12.445723 -12.48632,-12.716796 -0.002,-8.2e-5 -0.004,7.9e-5 -0.006,0 -0.0119,-4.88e-4 -0.0233,-0.0035 -0.0352,-0.0039 -0.005,-1.98e-4 -0.0104,1.91e-4 -0.0156,0 h -0.0117 -0.002 -0.01 -0.006 -0.002 -0.002 c -0.003,4e-6 -0.005,6e-6 -0.008,0 h -0.002 c -0.002,10e-7 -0.0146,-2.09e-4 -0.008,0 -10e-4,5.2e-5 -0.003,-1.42e-4 -0.004,0 -0.001,1.43e-4 -0.003,-9.3e-5 -0.004,0 -8.5e-4,4.1e-5 -0.001,0 -0.002,0 -0.001,1.51e-4 -0.003,1.09e-4 -0.004,0 h -0.002 -0.002 -0.002 c -10e-4,1.25e-4 -0.002,0.0039 -0.004,0.0039 h -0.0137 c -0.003,0 -0.007,1.9e-5 -0.01,0 -0.007,-1.2e-5 -0.0125,-1.27e-4 -0.0195,0 -0.004,-2.4e-4 -0.007,-8.54e-4 -0.01,0 -0.004,-0.0016 -0.008,-0.0023 -0.0117,-0.0039 -0.004,-5e-6 -0.008,6e-6 -0.0117,0 -8e-4,10e-6 -10e-4,-2.2e-5 -0.002,0 -0.002,-3.6e-5 -0.005,2.9e-5 -0.008,0 3e-4,-2.31e-4 -0.001,1.08e-4 -0.002,0 -0.001,1.52e-4 -0.004,0.0013 -0.004,0 -3.9e-4,-0.0015 -0.002,0.0012 -0.002,0 -0.006,0.0029 -0.0155,-2.59e-4 -0.0215,-0.002 -0.002,-4.2e-4 -0.003,-0.0014 -0.004,-0.002 h -0.006 -0.006 -0.0117 -0.002 -0.0137 -0.004 -0.008 -0.004 -0.0137 c -0.002,-1.6e-5 -0.003,-9.3e-5 -0.004,0 h -0.006 -0.01 -0.0117 -0.008 -0.008 -0.01 -0.0156 -0.0117 -0.006 c -0.004,0 -0.007,2e-6 -0.01,0 -0.0107,-8e-6 -0.0206,-1.9e-5 -0.0312,0 -5e-4,0 -0.0218,0.0012 -0.0117,0 -0.0102,0.0017 -0.0191,9.1e-4 -0.0293,0 0.005,-0.0021 10e-6,-0.0031 0.002,-0.0039 -0.003,0.0015 -0.006,0.0078 -0.0117,0.0078 h -0.002 c -0.004,1.11e-4 -5.2e-4,-0.0062 0,-0.01172 9e-5,-9.16e-4 1.3e-4,-0.0011 0,-0.002 -2.8e-4,-8.76e-4 1.8e-4,-0.0012 0,-0.002 z m -0.17383,0.02734 c 0.004,-0.0014 0.006,-0.0045 0.01,-0.0059 5.2e-4,-0.0015 0.002,-0.0023 0.002,-0.0039 -0.008,0.0098 -0.0156,0.01643 -0.0273,0.01172 0.005,-8e-4 0.0106,-0.0014 0.0156,-0.002 z"
           id="path4379" /><path
           style="color:#000000;font-style:normal;font-variant:normal;font-weight:normal;font-stretch:normal;font-size:medium;line-height:normal;font-family:sans-serif;font-variant-ligatures:normal;font-variant-position:normal;font-variant-caps:normal;font-variant-numeric:normal;font-variant-alternates:normal;font-variant-east-asian:normal;font-feature-settings:normal;font-variation-settings:normal;text-indent:0;text-align:start;text-decoration:none;text-decoration-line:none;text-decoration-style:solid;text-decoration-color:#000000;letter-spacing:normal;word-spacing:normal;text-transform:none;writing-mode:lr-tb;direction:ltr;text-orientation:mixed;dominant-baseline:auto;baseline-shift:baseline;text-anchor:start;white-space:normal;shape-padding:0;shape-margin:0;inline-size:0;clip-rule:nonzero;display:inline;overflow:visible;visibility:visible;isolation:auto;mix-blend-mode:normal;color-interpolation:sRGB;color-interpolation-filters:linearRGB;solid-color:#000000;solid-opacity:1;vector-effect:none;fill:#68f3f3;fill-opacity:1;fill-rule:nonzero;stroke:#68f3f3;stroke-width:4.6;stroke-linecap:round;stroke-linejoin:round;stroke-miterlimit:4;stroke-dasharray:none;stroke-dashoffset:0;stroke-opacity:1;color-rendering:auto;image-rendering:auto;shape-rendering:auto;text-rendering:auto;enable-background:accumulate;stop-color:#000000"
           d="m -52.823464,24.952799 c -9.57627,0 -17.414055,7.379213 -17.414055,16.529297 0,0.594921 0.0797,1.169912 0.14453,1.748047 -5.71903,1.164715 -10.06836,6.206614 -10.06836,12.376953 0,7.016554 5.571,12.757813 12.44922,12.757813 h 41.970697 c 0.552285,0 1,-0.447715 1,-1 0,-0.552285 -0.447715,-1 -1,-1 h -41.970697 c -5.76779,0 -10.44923,-4.794366 -10.44923,-10.757813 0,-5.545963 4.05383,-10.073768 9.24414,-10.6875 0.56733,-0.06698 0.96339,-0.59476 0.86914,-1.158203 -0.12398,-0.74015 -0.18945,-1.503386 -0.18945,-2.279297 0,-8.007915 6.860335,-14.529296 15.414065,-14.529297 8.078936,0 14.65051,5.833186 15.353516,13.212891 0.05252,0.549481 0.540323,0.952488 1.089844,0.900391 0.549481,-0.05252 0.952488,-0.540323 0.900391,-1.089844 -0.804994,-8.450295 -8.298686,-15.023438 -17.343751,-15.023438 z"
           id="path4385" /></g><g
         id="g4445"
         style="stroke:#a8f1f1;stroke-width:3.4;stroke-miterlimit:4;stroke-dasharray:none;stroke-opacity:1;filter:url(#filter4751)"
         transform="translate(-128.33988,94.398756)"><path
           style="color:#000000;font-style:normal;font-variant:normal;font-weight:normal;font-stretch:normal;font-size:medium;line-height:normal;font-family:sans-serif;font-variant-ligatures:normal;font-variant-position:normal;font-variant-caps:normal;font-variant-numeric:normal;font-variant-alternates:normal;font-variant-east-asian:normal;font-feature-settings:normal;font-variation-settings:normal;text-indent:0;text-align:start;text-decoration:none;text-decoration-line:none;text-decoration-style:solid;text-decoration-color:#000000;letter-spacing:normal;word-spacing:normal;text-transform:none;writing-mode:lr-tb;direction:ltr;text-orientation:mixed;dominant-baseline:auto;baseline-shift:baseline;text-anchor:start;white-space:normal;shape-padding:0;shape-margin:0;inline-size:0;clip-rule:nonzero;display:inline;overflow:visible;visibility:visible;isolation:auto;mix-blend-mode:normal;color-interpolation:sRGB;color-interpolation-filters:linearRGB;solid-color:#000000;solid-opacity:1;vector-effect:none;fill:#a8f1f1;fill-opacity:1;fill-rule:nonzero;stroke:#a8f1f1;stroke-width:3.4;stroke-linecap:butt;stroke-linejoin:miter;stroke-miterlimit:4;stroke-dasharray:none;stroke-dashoffset:0;stroke-opacity:1;color-rendering:auto;image-rendering:auto;shape-rendering:auto;text-rendering:auto;enable-background:accumulate;stop-color:#000000"
           d="m -37.882942,-96.053876 c -1.57244,0.228763 -2.075678,0.501501 -2.841382,0.882204 -5.849053,2.609803 -8.793105,9.315816 -6.765874,16.864707 0.189137,0.704304 0.42831,1.389008 0.690194,2.065113 1.733366,1.844141 1.618212,0.150642 2.185095,-0.237594 -0.259746,-0.646522 -0.49529,-1.303114 -0.677063,-1.98 -1.533168,-5.70912 0.2453,-10.861445 4.112219,-13.556017 -0.08685,1.865446 0.132326,3.828838 0.677372,5.858426 2.584031,9.622278 11.706906,17.017365 20.769863,17.098723 -1.709486,2.273347 -4.316838,3.770596 -7.516876,4.11498 -1.093329,1.291155 -0.645037,1.989141 0.707225,2.339308 4.576938,-0.492445 8.079764,-3.041998 9.941161,-6.732936 0.435919,-0.878308 0.796355,-1.82523 1.032128,-2.823442 -0.867523,0.313433 -1.783412,0.540932 -2.760781,0.65378 -0.243363,0.03186 -0.477555,0.04851 -0.724836,0.06577 -3.997755,0.279065 -8.207329,-1.109105 -11.84511,-3.919429 -3.637779,-2.810321 -6.263665,-6.702235 -7.404716,-10.951221 -0.650911,-2.423821 -0.769731,-4.796458 -0.390366,-6.97982 0.17492,-0.964214 0.444507,-1.889042 0.811747,-2.762554 z"
           id="path4411" /><path
           style="color:#000000;font-style:normal;font-variant:normal;font-weight:normal;font-stretch:normal;font-size:medium;line-height:normal;font-family:sans-serif;font-variant-ligatures:normal;font-variant-position:normal;font-variant-caps:normal;font-variant-numeric:normal;font-variant-alternates:normal;font-variant-east-asian:normal;font-feature-settings:normal;font-variation-settings:normal;text-indent:0;text-align:start;text-decoration:none;text-decoration-line:none;text-decoration-style:solid;text-decoration-color:#000000;letter-spacing:normal;word-spacing:normal;text-transform:none;writing-mode:lr-tb;direction:ltr;text-orientation:mixed;dominant-baseline:auto;baseline-shift:baseline;text-anchor:start;white-space:normal;shape-padding:0;shape-margin:0;inline-size:0;clip-rule:nonzero;display:inline;overflow:visible;visibility:visible;isolation:auto;mix-blend-mode:normal;color-interpolation:sRGB;color-interpolation-filters:linearRGB;solid-color:#000000;solid-opacity:1;vector-effect:none;fill:#a8f1f1;fill-opacity:1;fill-rule:nonzero;stroke:#a8f1f1;stroke-width:3.4;stroke-linecap:round;stroke-linejoin:round;stroke-miterlimit:4;stroke-dasharray:none;stroke-dashoffset:0;stroke-opacity:1;color-rendering:auto;image-rendering:auto;shape-rendering:auto;text-rendering:auto;enable-background:accumulate;stop-color:#000000"
           d="m -33.277788,-66.516934 c 3.6e-4,0.0019 -0.002,0.0024 -0.002,0.0039 2.2e-4,0.0044 0.005,0.01285 0,0.01172 -0.004,1.5e-5 -0.009,4.3e-5 -0.0117,0 -8.8e-4,1.9e-5 -0.005,-2.4e-5 -0.008,0 h -0.002 -0.002 -0.002 c -0.002,-1.49e-4 -0.004,9.4e-5 -0.006,0 -0.002,-9.2e-5 -0.005,0.0013 -0.006,0 -0.001,-0.001 0.002,-0.0026 0.002,-0.0039 -0.004,-0.0078 -10e-4,-0.0039 -0.004,-0.0078 -7.6e-4,2e-6 -10e-4,6e-6 -0.002,0 -0.002,-1.6e-5 -0.004,5e-5 -0.006,0 -10e-4,-0.0014 -9.5e-4,0.0083 -0.002,0.0039 h -0.002 c -2e-4,0.0039 1.5e-4,0.0078 0,0.01172 h -0.002 c -0.002,-1.8e-5 -0.006,1.4e-5 -0.008,0 -0.003,-2.3e-5 -0.009,0.003 -0.01,0 -10e-4,-0.0036 -10e-4,-0.0078 -0.002,-0.01172 h -0.004 -0.002 c -5.8e-4,0.0027 4.9e-4,0.0034 0,0.0059 -4.8e-4,0.0025 1.2e-4,0.0039 0,0.0059 5.7e-4,-0.002 10e-4,-0.0038 0.002,-0.0059 7.6e-4,7.07e-4 0.002,-2.79e-4 0.002,0.0059 0,0.001 -0.003,-1.2e-5 -0.004,0 -5e-4,0 -0.0197,7.59e-4 -0.0137,0 -0.002,6.38e-4 -0.003,0.002 -0.006,0.002 -0.002,8.58e-4 -0.004,0.0011 -0.006,0.002 -0.005,0.0023 -0.01,0.0045 -0.0156,0.0039 -0.005,0 -0.0106,5e-6 -0.0156,0 -0.005,-2e-6 -0.009,-1.4e-5 -0.0137,0 -0.003,-2.6e-5 -0.009,-3.23e-4 -0.0117,0 -10e-4,1e-4 -0.0147,0.0012 -0.0117,0 -0.003,0.0014 -0.007,0.0049 -0.01,0.0059 -0.01,0.0033 -0.0105,0.002 -0.0195,0.002 h -0.008 c -0.007,0 -0.013,-4.86e-4 -0.0195,-0.002 -10e-4,-2.91e-4 -0.003,4.97e-4 -0.004,0 l 0.002,0.002 c -8.3e-4,0.001 0.0118,-0.0028 -0.0137,0.0039 h -0.0176 -0.0156 -0.041 -0.0117 c -0.002,0 -0.004,1.5e-5 -0.006,0 0,9.76e-4 -0.003,0 -0.004,0 h -0.01 -0.0176 -0.0156 c -0.001,0 -5.7e-4,-0.0018 -0.002,-0.002 -3.48921,0.298249 -6.58286,2.038087 -8.6582,4.666015 -0.3419,0.433645 -0.26756,1.062327 0.16601,1.404297 0.43365,0.341886 1.06233,0.267565 1.4043,-0.166016 1.80871,-2.290306 4.49835,-3.787335 7.53906,-3.960937 5.67799,0.01719 11.00391,5.602916 11.00391,11.501953 9e-5,0.49865 0.3675,0.921043 0.86133,0.990234 3.55263,0.494907 6.17187,3.189573 6.17187,6.357422 0,3.503001 -3.21047,6.439453 -7.33007,6.439454 -0.55228,0 -1,0.447713 -1,1 0,0.552284 0.44772,1 1,1 5.0844,0 9.33007,-3.726456 9.33007,-8.439454 0,-3.992522 -3.09572,-7.18792 -7.11133,-8.09375 -0.40193,-6.616084 -5.9772,-12.445723 -12.48632,-12.716796 -0.002,-8.2e-5 -0.004,7.9e-5 -0.006,0 -0.0119,-4.88e-4 -0.0233,-0.0035 -0.0352,-0.0039 -0.005,-1.98e-4 -0.0104,1.91e-4 -0.0156,0 h -0.0117 -0.002 -0.01 -0.006 -0.002 -0.002 c -0.003,4e-6 -0.005,6e-6 -0.008,0 h -0.002 c -0.002,10e-7 -0.0146,-2.09e-4 -0.008,0 -0.001,5.2e-5 -0.003,-1.42e-4 -0.004,0 -10e-4,1.43e-4 -0.003,-9.3e-5 -0.004,0 -8.5e-4,4.1e-5 -10e-4,0 -0.002,0 -10e-4,1.51e-4 -0.003,1.09e-4 -0.004,0 h -0.002 -0.002 -0.002 c -10e-4,1.25e-4 -0.002,0.0039 -0.004,0.0039 h -0.0137 c -0.003,0 -0.007,1.9e-5 -0.01,0 -0.007,-1.2e-5 -0.0125,-1.27e-4 -0.0195,0 -0.004,-2.4e-4 -0.007,-8.54e-4 -0.01,0 -0.004,-0.0016 -0.008,-0.0023 -0.0117,-0.0039 -0.004,-5e-6 -0.008,6e-6 -0.0117,0 -8e-4,1e-5 -0.001,-2.2e-5 -0.002,0 -0.002,-3.6e-5 -0.005,2.9e-5 -0.008,0 3e-4,-2.31e-4 -10e-4,1.08e-4 -0.002,0 -0.001,1.52e-4 -0.004,0.0013 -0.004,0 -3.9e-4,-0.0015 -0.002,0.0012 -0.002,0 -0.006,0.0029 -0.0155,-2.59e-4 -0.0215,-0.002 -0.002,-4.2e-4 -0.003,-0.0014 -0.004,-0.002 h -0.006 -0.006 -0.0117 -0.002 -0.0137 -0.004 -0.008 -0.004 -0.0137 c -0.002,-1.6e-5 -0.003,-9.3e-5 -0.004,0 h -0.006 -0.01 -0.0117 -0.008 -0.008 -0.01 -0.0156 -0.0117 -0.006 c -0.004,0 -0.007,2e-6 -0.01,0 -0.0107,-8e-6 -0.0206,-1.9e-5 -0.0312,0 -5e-4,0 -0.0218,0.0012 -0.0117,0 -0.0102,0.0017 -0.0191,9.1e-4 -0.0293,0 0.005,-0.0021 10e-6,-0.0031 0.002,-0.0039 -0.003,0.0015 -0.006,0.0078 -0.0117,0.0078 h -0.002 c -0.004,1.11e-4 -5.2e-4,-0.0062 0,-0.01172 9e-5,-9.16e-4 1.3e-4,-0.0011 0,-0.002 -2.8e-4,-8.76e-4 1.8e-4,-0.0012 0,-0.002 z m -0.17383,0.02734 c 0.004,-0.0014 0.006,-0.0045 0.01,-0.0059 5.2e-4,-0.0015 0.002,-0.0023 0.002,-0.0039 -0.008,0.0098 -0.0156,0.01643 -0.0273,0.01172 0.005,-8e-4 0.0106,-0.0014 0.0156,-0.002 z"
           id="path4417" /><path
           style="color:#000000;font-style:normal;font-variant:normal;font-weight:normal;font-stretch:normal;font-size:medium;line-height:normal;font-family:sans-serif;font-variant-ligatures:normal;font-variant-position:normal;font-variant-caps:normal;font-variant-numeric:normal;font-variant-alternates:normal;font-variant-east-asian:normal;font-feature-settings:normal;font-variation-settings:normal;text-indent:0;text-align:start;text-decoration:none;text-decoration-line:none;text-decoration-style:solid;text-decoration-color:#000000;letter-spacing:normal;word-spacing:normal;text-transform:none;writing-mode:lr-tb;direction:ltr;text-orientation:mixed;dominant-baseline:auto;baseline-shift:baseline;text-anchor:start;white-space:normal;shape-padding:0;shape-margin:0;inline-size:0;clip-rule:nonzero;display:inline;overflow:visible;visibility:visible;isolation:auto;mix-blend-mode:normal;color-interpolation:sRGB;color-interpolation-filters:linearRGB;solid-color:#000000;solid-opacity:1;vector-effect:none;fill:#a8f1f1;fill-opacity:1;fill-rule:nonzero;stroke:#a8f1f1;stroke-width:3.4;stroke-linecap:round;stroke-linejoin:round;stroke-miterlimit:4;stroke-dasharray:none;stroke-dashoffset:0;stroke-opacity:1;color-rendering:auto;image-rendering:auto;shape-rendering:auto;text-rendering:auto;enable-background:accumulate;stop-color:#000000"
           d="m -54.591231,-79.699004 c -9.57627,0 -17.414055,7.379213 -17.414055,16.529297 0,0.594921 0.0797,1.169912 0.14453,1.748047 -5.71903,1.164715 -10.06836,6.206614 -10.06836,12.376953 0,7.016554 5.571,12.757813 12.44922,12.757813 h 41.970697 c 0.552285,0 1,-0.447715 1,-1 0,-0.552285 -0.447715,-1 -1,-1 h -41.970697 c -5.76779,0 -10.44923,-4.794366 -10.44923,-10.757813 0,-5.545963 4.05383,-10.073768 9.24414,-10.6875 0.56733,-0.06698 0.96339,-0.59476 0.86914,-1.158203 -0.12398,-0.74015 -0.18945,-1.503386 -0.18945,-2.279297 0,-8.007915 6.860335,-14.529296 15.414065,-14.529297 8.078936,0 14.65051,5.833186 15.353516,13.212891 0.05252,0.549481 0.540323,0.952488 1.089844,0.900391 0.549481,-0.05252 0.952488,-0.540323 0.900391,-1.089844 -0.804994,-8.450295 -8.298686,-15.023438 -17.343751,-15.023438 z"
           id="path4423" /></g><g
         id="g4803"><g
           id="g4369"
           transform="translate(-95.942526,25.784872)"
           style="opacity:0.581994;fill:#000000"><path
             id="path4363"
             style="color:#000000;font-style:normal;font-variant:normal;font-weight:normal;font-stretch:normal;font-size:medium;line-height:normal;font-family:sans-serif;font-variant-ligatures:normal;font-variant-position:normal;font-variant-caps:normal;font-variant-numeric:normal;font-variant-alternates:normal;font-variant-east-asian:normal;font-feature-settings:normal;font-variation-settings:normal;text-indent:0;text-align:start;text-decoration:none;text-decoration-line:none;text-decoration-style:solid;text-decoration-color:#000000;letter-spacing:normal;word-spacing:normal;text-transform:none;writing-mode:lr-tb;direction:ltr;text-orientation:mixed;dominant-baseline:auto;baseline-shift:baseline;text-anchor:start;white-space:normal;shape-padding:0;shape-margin:0;inline-size:0;clip-rule:nonzero;display:inline;overflow:visible;visibility:visible;isolation:auto;mix-blend-mode:normal;color-interpolation:sRGB;color-interpolation-filters:linearRGB;solid-color:#000000;solid-opacity:1;vector-effect:none;fill:#000000;fill-opacity:1;fill-rule:nonzero;stroke:none;stroke-width:0.142952;stroke-linecap:butt;stroke-linejoin:miter;stroke-miterlimit:4;stroke-dasharray:none;stroke-dashoffset:0;stroke-opacity:1;color-rendering:auto;image-rendering:auto;shape-rendering:auto;text-rendering:auto;enable-background:accumulate;stop-color:#000000"
             d="m -69.498166,-27.46147 c -1.57244,0.228763 -2.075678,0.501501 -2.841382,0.882204 -5.849053,2.609803 -8.793105,9.315816 -6.765874,16.8647065 0.189137,0.7043047 0.42831,1.3890083 0.690194,2.0651137 1.733366,1.8441411 1.618212,0.1506418 2.185095,-0.237594 -0.259746,-0.6465225 -0.49529,-1.3031143 -0.677063,-1.9799998 -1.533168,-5.7091204 0.2453,-10.8614454 4.112219,-13.5560174 -0.08685,1.865446 0.132326,3.828838 0.677372,5.858426 2.584031,9.6222777 11.706906,17.0173653 20.769863,17.0987229 -1.709486,2.2733474 -4.316838,3.7705956 -7.516876,4.1149799 -1.093329,1.2911548 -0.645037,1.9891412 0.707225,2.3393085 4.576938,-0.4924456 8.079764,-3.041998 9.941161,-6.7329361 0.435919,-0.8783079 0.796355,-1.82523 1.032128,-2.8234421 -0.867523,0.3134331 -1.783412,0.5409316 -2.760781,0.6537801 -0.243363,0.031859 -0.477555,0.04851 -0.724836,0.065772 -3.997755,0.279065 -8.207329,-1.1091048 -11.84511,-3.919429 -3.637779,-2.8103208 -6.263665,-6.7022352 -7.404716,-10.9512212 -0.650911,-2.423821 -0.769731,-4.796458 -0.390366,-6.97982 0.17492,-0.964214 0.444507,-1.889042 0.811747,-2.762554 z"
             sodipodi:nodetypes="ccsccccsccccccccscc" /><path
             id="path4365"
             style="color:#000000;font-style:normal;font-variant:normal;font-weight:normal;font-stretch:normal;font-size:medium;line-height:normal;font-family:sans-serif;font-variant-ligatures:normal;font-variant-position:normal;font-variant-caps:normal;font-variant-numeric:normal;font-variant-alternates:normal;font-variant-east-asian:normal;font-feature-settings:normal;font-variation-settings:normal;text-indent:0;text-align:start;text-decoration:none;text-decoration-line:none;text-decoration-style:solid;text-decoration-color:#000000;letter-spacing:normal;word-spacing:normal;text-transform:none;writing-mode:lr-tb;direction:ltr;text-orientation:mixed;dominant-baseline:auto;baseline-shift:baseline;text-anchor:start;white-space:normal;shape-padding:0;shape-margin:0;inline-size:0;clip-rule:nonzero;display:inline;overflow:visible;visibility:visible;isolation:auto;mix-blend-mode:normal;color-interpolation:sRGB;color-interpolation-filters:linearRGB;solid-color:#000000;solid-opacity:1;vector-effect:none;fill:#000000;fill-opacity:1;fill-rule:nonzero;stroke:none;stroke-linecap:round;stroke-linejoin:round;stroke-miterlimit:10;stroke-dasharray:none;stroke-dashoffset:0;stroke-opacity:1;color-rendering:auto;image-rendering:auto;shape-rendering:auto;text-rendering:auto;enable-background:accumulate;stop-color:#000000"
             d="m -64.893012,2.0754721 c 3.6e-4,0.0019 -0.002,0.0024 -0.002,0.0039 2.2e-4,0.0044 0.005,0.01285 0,0.01172 -0.004,1.5e-5 -0.009,4.3e-5 -0.0117,0 -8.8e-4,1.9e-5 -0.005,-2.4e-5 -0.008,0 0,0 -0.002,0 -0.002,0 h -0.002 -0.002 c -0.002,-1.49e-4 -0.004,9.4e-5 -0.006,0 -0.002,-9.2e-5 -0.005,0.0013 -0.006,0 -0.001,-10e-4 0.002,-0.0026 0.002,-0.0039 -0.004,-0.0078 -0.001,-0.0039 -0.004,-0.0078 -7.6e-4,2e-6 -10e-4,6e-6 -0.002,0 -0.002,-1.6e-5 -0.004,5e-5 -0.006,0 -0.001,-0.0014 -9.5e-4,0.0083 -0.002,0.0039 h -0.002 c -2e-4,0.0039 1.5e-4,0.0078 0,0.01172 h -0.002 c -0.002,-1.8e-5 -0.006,1.4e-5 -0.008,0 -0.003,-2.3e-5 -0.009,0.003 -0.01,0 -0.001,-0.0036 -0.001,-0.0078 -0.002,-0.01172 h -0.004 -0.002 c -5.8e-4,0.0027 4.9e-4,0.0034 0,0.0059 -4.8e-4,0.0025 1.2e-4,0.0039 0,0.0059 5.7e-4,-0.002 10e-4,-0.0038 0.002,-0.0059 7.6e-4,7.07e-4 0.002,-2.79e-4 0.002,0.0059 0,10e-4 -0.003,-1.2e-5 -0.004,0 -5e-4,0 -0.0197,7.59e-4 -0.0137,0 -0.002,6.38e-4 -0.003,0.002 -0.006,0.002 -0.002,8.58e-4 -0.004,0.0011 -0.006,0.002 -0.005,0.0023 -0.01,0.0045 -0.0156,0.0039 -0.005,0 -0.0106,5e-6 -0.0156,0 -0.005,-2e-6 -0.009,-1.4e-5 -0.0137,0 -0.003,-2.6e-5 -0.009,-3.23e-4 -0.0117,0 -0.001,1e-4 -0.0147,0.0012 -0.0117,0 -0.003,0.0014 -0.007,0.0049 -0.01,0.0059 -0.01,0.0033 -0.0105,0.002 -0.0195,0.002 h -0.008 c -0.007,0 -0.013,-4.86e-4 -0.0195,-0.002 -0.001,-2.91e-4 -0.003,4.97e-4 -0.004,0 0,0 0.002,0.002 0.002,0.002 -8.3e-4,10e-4 0.0118,-0.0028 -0.0137,0.0039 h -0.0176 -0.0156 -0.041 -0.0117 c -0.002,0 -0.004,1.5e-5 -0.006,0 0,9.76e-4 -0.003,0 -0.004,0 h -0.01 -0.0176 -0.0156 c -0.001,0 -5.7e-4,-0.0018 -0.002,-0.002 -3.48921,0.298249 -6.58286,2.038087 -8.6582,4.6660151 -0.3419,0.433645 -0.26756,1.062327 0.16601,1.404297 0.43365,0.341886 1.06233,0.267565 1.4043,-0.166016 1.80871,-2.2903061 4.49835,-3.7873351 7.53906,-3.9609371 5.67799,0.01719 11.00391,5.6029161 11.00391,11.5019529 9e-5,0.49865 0.3675,0.921043 0.86133,0.990234 3.55263,0.494907 6.17187,3.189573 6.17187,6.357422 0,3.503001 -3.21047,6.439453 -7.33007,6.439454 -0.55228,0 -1,0.447713 -1,1 0,0.552284 0.44772,1 1,1 5.0844,0 9.33007,-3.726456 9.33007,-8.439454 0,-3.992522 -3.09572,-7.18792 -7.11133,-8.09375 -0.40193,-6.6160838 -5.9772,-12.4457229 -12.48632,-12.7167959 -0.002,-8.2e-5 -0.004,7.9e-5 -0.006,0 -0.0119,-4.88e-4 -0.0233,-0.0035 -0.0352,-0.0039 -0.005,-1.98e-4 -0.0104,1.91e-4 -0.0156,0 h -0.0117 -0.002 -0.01 -0.006 c 0,0 -0.002,0 -0.002,0 h -0.002 c -0.003,4e-6 -0.005,6e-6 -0.008,0 h -0.002 c -0.002,1e-6 -0.0146,-2.09e-4 -0.008,0 -0.001,5.2e-5 -0.003,-1.42e-4 -0.004,0 -10e-4,1.43e-4 -0.003,-9.3e-5 -0.004,0 -8.5e-4,4.1e-5 -0.001,0 -0.002,0 -10e-4,1.51e-4 -0.003,1.09e-4 -0.004,0 h -0.002 -0.002 -0.002 c -0.001,1.25e-4 -0.002,0.0039 -0.004,0.0039 h -0.0137 c -0.003,0 -0.007,1.9e-5 -0.01,0 -0.007,-1.2e-5 -0.0125,-1.27e-4 -0.0195,0 -0.004,-2.4e-4 -0.007,-8.54e-4 -0.01,0 -0.004,-0.0016 -0.008,-0.0023 -0.0117,-0.0039 -0.004,-5e-6 -0.008,6e-6 -0.0117,0 -8e-4,1e-5 -0.001,-2.2e-5 -0.002,0 -0.002,-3.6e-5 -0.005,2.9e-5 -0.008,0 3e-4,-2.31e-4 -10e-4,1.08e-4 -0.002,0 -10e-4,1.52e-4 -0.004,0.0013 -0.004,0 -3.9e-4,-0.0015 -0.002,0.0012 -0.002,0 -0.006,0.0029 -0.0155,-2.59e-4 -0.0215,-0.002 -0.002,-4.2e-4 -0.003,-0.0014 -0.004,-0.002 h -0.006 -0.006 -0.0117 -0.002 -0.0137 -0.004 -0.008 -0.004 -0.0137 c -0.002,-1.6e-5 -0.003,-9.3e-5 -0.004,0 h -0.006 -0.01 -0.0117 -0.008 -0.008 -0.01 -0.0156 -0.0117 -0.006 c -0.004,0 -0.007,2e-6 -0.01,0 -0.0107,-8e-6 -0.0206,-1.9e-5 -0.0312,0 -5e-4,0 -0.0218,0.0012 -0.0117,0 -0.0102,0.0017 -0.0191,9.1e-4 -0.0293,0 0.005,-0.0021 1e-5,-0.0031 0.002,-0.0039 -0.003,0.0015 -0.006,0.0078 -0.0117,0.0078 0,0 -0.002,0 -0.002,0 -0.004,1.11e-4 -5.2e-4,-0.0062 0,-0.01172 9e-5,-9.16e-4 1.3e-4,-0.0011 0,-0.002 -2.8e-4,-8.76e-4 1.8e-4,-0.0012 0,-0.002 z m -0.17383,0.02734 c 0.004,-0.0014 0.006,-0.0045 0.01,-0.0059 5.2e-4,-0.0015 0.002,-0.0023 0.002,-0.0039 -0.008,0.0098 -0.0156,0.01643 -0.0273,0.01172 0.005,-8e-4 0.0106,-0.0014 0.0156,-0.002 z" /><path
             style="color:#000000;font-style:normal;font-variant:normal;font-weight:normal;font-stretch:normal;font-size:medium;line-height:normal;font-family:sans-serif;font-variant-ligatures:normal;font-variant-position:normal;font-variant-caps:normal;font-variant-numeric:normal;font-variant-alternates:normal;font-variant-east-asian:normal;font-feature-settings:normal;font-variation-settings:normal;text-indent:0;text-align:start;text-decoration:none;text-decoration-line:none;text-decoration-style:solid;text-decoration-color:#000000;letter-spacing:normal;word-spacing:normal;text-transform:none;writing-mode:lr-tb;direction:ltr;text-orientation:mixed;dominant-baseline:auto;baseline-shift:baseline;text-anchor:start;white-space:normal;shape-padding:0;shape-margin:0;inline-size:0;clip-rule:nonzero;display:inline;overflow:visible;visibility:visible;isolation:auto;mix-blend-mode:normal;color-interpolation:sRGB;color-interpolation-filters:linearRGB;solid-color:#000000;solid-opacity:1;vector-effect:none;fill:#000000;fill-opacity:1;fill-rule:nonzero;stroke:none;stroke-linecap:round;stroke-linejoin:round;stroke-miterlimit:10;stroke-dasharray:none;stroke-dashoffset:0;stroke-opacity:1;color-rendering:auto;image-rendering:auto;shape-rendering:auto;text-rendering:auto;enable-background:accumulate;stop-color:#000000"
             d="m -86.206455,-11.106598 c -9.57627,0 -17.414055,7.3792129 -17.414055,16.5292969 0,0.594921 0.0797,1.1699123 0.14453,1.7480473 -5.71903,1.164715 -10.06836,6.2066138 -10.06836,12.3769528 0,7.016554 5.571,12.757813 12.44922,12.757813 h 41.970697 a 1,1 0 0 0 1,-1 1,1 0 0 0 -1,-1 h -41.970697 c -5.76779,0 -10.44923,-4.794366 -10.44923,-10.757813 0,-5.545963 4.05383,-10.0737678 9.24414,-10.6874998 a 1.0001,1.0001 0 0 0 0.86914,-1.158203 c -0.12398,-0.74015 -0.18945,-1.503386 -0.18945,-2.2792973 0,-8.007915 6.860335,-14.529296 15.414065,-14.529297 8.078936,0 14.65051,5.833186 15.353516,13.212891 a 1,1 0 0 0 1.089844,0.900391 1,1 0 0 0 0.900391,-1.089844 c -0.804994,-8.450295 -8.298686,-15.0234379 -17.343751,-15.0234379 z"
             id="path4367" /></g><g
           id="g4361"
           transform="translate(-96.724656,25.806348)"><path
             id="path4355"
             style="color:#000000;font-style:normal;font-variant:normal;font-weight:normal;font-stretch:normal;font-size:medium;line-height:normal;font-family:sans-serif;font-variant-ligatures:normal;font-variant-position:normal;font-variant-caps:normal;font-variant-numeric:normal;font-variant-alternates:normal;font-variant-east-asian:normal;font-feature-settings:normal;font-variation-settings:normal;text-indent:0;text-align:start;text-decoration:none;text-decoration-line:none;text-decoration-style:solid;text-decoration-color:#000000;letter-spacing:normal;word-spacing:normal;text-transform:none;writing-mode:lr-tb;direction:ltr;text-orientation:mixed;dominant-baseline:auto;baseline-shift:baseline;text-anchor:start;white-space:normal;shape-padding:0;shape-margin:0;inline-size:0;clip-rule:nonzero;display:inline;overflow:visible;visibility:visible;isolation:auto;mix-blend-mode:normal;color-interpolation:sRGB;color-interpolation-filters:linearRGB;solid-color:#000000;solid-opacity:1;vector-effect:none;fill:#ffffff;fill-opacity:1;fill-rule:nonzero;stroke:none;stroke-width:0.142952;stroke-linecap:butt;stroke-linejoin:miter;stroke-miterlimit:4;stroke-dasharray:none;stroke-dashoffset:0;stroke-opacity:1;color-rendering:auto;image-rendering:auto;shape-rendering:auto;text-rendering:auto;enable-background:accumulate;stop-color:#000000"
             d="m -69.498166,-27.46147 c -1.57244,0.228763 -2.075678,0.501501 -2.841382,0.882204 -5.849053,2.609803 -8.793105,9.315816 -6.765874,16.8647065 0.189137,0.7043047 0.42831,1.3890083 0.690194,2.0651137 1.733366,1.8441411 1.618212,0.1506418 2.185095,-0.237594 -0.259746,-0.6465225 -0.49529,-1.3031143 -0.677063,-1.9799998 -1.533168,-5.7091204 0.2453,-10.8614454 4.112219,-13.5560174 -0.08685,1.865446 0.132326,3.828838 0.677372,5.858426 2.584031,9.6222777 11.706906,17.0173653 20.769863,17.0987229 -1.709486,2.2733474 -4.316838,3.7705956 -7.516876,4.1149799 -1.093329,1.2911548 -0.645037,1.9891412 0.707225,2.3393085 4.576938,-0.4924456 8.079764,-3.041998 9.941161,-6.7329361 0.435919,-0.8783079 0.796355,-1.82523 1.032128,-2.8234421 -0.867523,0.3134331 -1.783412,0.5409316 -2.760781,0.6537801 -0.243363,0.031859 -0.477555,0.04851 -0.724836,0.065772 -3.997755,0.279065 -8.207329,-1.1091048 -11.84511,-3.919429 -3.637779,-2.8103208 -6.263665,-6.7022352 -7.404716,-10.9512212 -0.650911,-2.423821 -0.769731,-4.796458 -0.390366,-6.97982 0.17492,-0.964214 0.444507,-1.889042 0.811747,-2.762554 z"
             sodipodi:nodetypes="ccsccccsccccccccscc" /><path
             id="path4357"
             style="color:#000000;font-style:normal;font-variant:normal;font-weight:normal;font-stretch:normal;font-size:medium;line-height:normal;font-family:sans-serif;font-variant-ligatures:normal;font-variant-position:normal;font-variant-caps:normal;font-variant-numeric:normal;font-variant-alternates:normal;font-variant-east-asian:normal;font-feature-settings:normal;font-variation-settings:normal;text-indent:0;text-align:start;text-decoration:none;text-decoration-line:none;text-decoration-style:solid;text-decoration-color:#000000;letter-spacing:normal;word-spacing:normal;text-transform:none;writing-mode:lr-tb;direction:ltr;text-orientation:mixed;dominant-baseline:auto;baseline-shift:baseline;text-anchor:start;white-space:normal;shape-padding:0;shape-margin:0;inline-size:0;clip-rule:nonzero;display:inline;overflow:visible;visibility:visible;isolation:auto;mix-blend-mode:normal;color-interpolation:sRGB;color-interpolation-filters:linearRGB;solid-color:#000000;solid-opacity:1;vector-effect:none;fill:#ffffff;fill-opacity:1;fill-rule:nonzero;stroke:none;stroke-linecap:round;stroke-linejoin:round;stroke-miterlimit:10;stroke-dasharray:none;stroke-dashoffset:0;stroke-opacity:1;color-rendering:auto;image-rendering:auto;shape-rendering:auto;text-rendering:auto;enable-background:accumulate;stop-color:#000000"
             d="m -64.893012,2.0754721 c 3.6e-4,0.0019 -0.002,0.0024 -0.002,0.0039 2.2e-4,0.0044 0.005,0.01285 0,0.01172 -0.004,1.5e-5 -0.009,4.3e-5 -0.0117,0 -8.8e-4,1.9e-5 -0.005,-2.4e-5 -0.008,0 0,0 -0.002,0 -0.002,0 h -0.002 -0.002 c -0.002,-1.49e-4 -0.004,9.4e-5 -0.006,0 -0.002,-9.2e-5 -0.005,0.0013 -0.006,0 -0.001,-10e-4 0.002,-0.0026 0.002,-0.0039 -0.004,-0.0078 -0.001,-0.0039 -0.004,-0.0078 -7.6e-4,2e-6 -10e-4,6e-6 -0.002,0 -0.002,-1.6e-5 -0.004,5e-5 -0.006,0 -0.001,-0.0014 -9.5e-4,0.0083 -0.002,0.0039 h -0.002 c -2e-4,0.0039 1.5e-4,0.0078 0,0.01172 h -0.002 c -0.002,-1.8e-5 -0.006,1.4e-5 -0.008,0 -0.003,-2.3e-5 -0.009,0.003 -0.01,0 -0.001,-0.0036 -0.001,-0.0078 -0.002,-0.01172 h -0.004 -0.002 c -5.8e-4,0.0027 4.9e-4,0.0034 0,0.0059 -4.8e-4,0.0025 1.2e-4,0.0039 0,0.0059 5.7e-4,-0.002 10e-4,-0.0038 0.002,-0.0059 7.6e-4,7.07e-4 0.002,-2.79e-4 0.002,0.0059 0,10e-4 -0.003,-1.2e-5 -0.004,0 -5e-4,0 -0.0197,7.59e-4 -0.0137,0 -0.002,6.38e-4 -0.003,0.002 -0.006,0.002 -0.002,8.58e-4 -0.004,0.0011 -0.006,0.002 -0.005,0.0023 -0.01,0.0045 -0.0156,0.0039 -0.005,0 -0.0106,5e-6 -0.0156,0 -0.005,-2e-6 -0.009,-1.4e-5 -0.0137,0 -0.003,-2.6e-5 -0.009,-3.23e-4 -0.0117,0 -0.001,1e-4 -0.0147,0.0012 -0.0117,0 -0.003,0.0014 -0.007,0.0049 -0.01,0.0059 -0.01,0.0033 -0.0105,0.002 -0.0195,0.002 h -0.008 c -0.007,0 -0.013,-4.86e-4 -0.0195,-0.002 -0.001,-2.91e-4 -0.003,4.97e-4 -0.004,0 0,0 0.002,0.002 0.002,0.002 -8.3e-4,10e-4 0.0118,-0.0028 -0.0137,0.0039 h -0.0176 -0.0156 -0.041 -0.0117 c -0.002,0 -0.004,1.5e-5 -0.006,0 0,9.76e-4 -0.003,0 -0.004,0 h -0.01 -0.0176 -0.0156 c -0.001,0 -5.7e-4,-0.0018 -0.002,-0.002 -3.48921,0.298249 -6.58286,2.038087 -8.6582,4.6660151 -0.3419,0.433645 -0.26756,1.062327 0.16601,1.404297 0.43365,0.341886 1.06233,0.267565 1.4043,-0.166016 1.80871,-2.2903061 4.49835,-3.7873351 7.53906,-3.9609371 5.67799,0.01719 11.00391,5.6029161 11.00391,11.5019529 9e-5,0.49865 0.3675,0.921043 0.86133,0.990234 3.55263,0.494907 6.17187,3.189573 6.17187,6.357422 0,3.503001 -3.21047,6.439453 -7.33007,6.439454 -0.55228,0 -1,0.447713 -1,1 0,0.552284 0.44772,1 1,1 5.0844,0 9.33007,-3.726456 9.33007,-8.439454 0,-3.992522 -3.09572,-7.18792 -7.11133,-8.09375 -0.40193,-6.6160838 -5.9772,-12.4457229 -12.48632,-12.7167959 -0.002,-8.2e-5 -0.004,7.9e-5 -0.006,0 -0.0119,-4.88e-4 -0.0233,-0.0035 -0.0352,-0.0039 -0.005,-1.98e-4 -0.0104,1.91e-4 -0.0156,0 h -0.0117 -0.002 -0.01 -0.006 c 0,0 -0.002,0 -0.002,0 h -0.002 c -0.003,4e-6 -0.005,6e-6 -0.008,0 h -0.002 c -0.002,1e-6 -0.0146,-2.09e-4 -0.008,0 -0.001,5.2e-5 -0.003,-1.42e-4 -0.004,0 -10e-4,1.43e-4 -0.003,-9.3e-5 -0.004,0 -8.5e-4,4.1e-5 -0.001,0 -0.002,0 -10e-4,1.51e-4 -0.003,1.09e-4 -0.004,0 h -0.002 -0.002 -0.002 c -0.001,1.25e-4 -0.002,0.0039 -0.004,0.0039 h -0.0137 c -0.003,0 -0.007,1.9e-5 -0.01,0 -0.007,-1.2e-5 -0.0125,-1.27e-4 -0.0195,0 -0.004,-2.4e-4 -0.007,-8.54e-4 -0.01,0 -0.004,-0.0016 -0.008,-0.0023 -0.0117,-0.0039 -0.004,-5e-6 -0.008,6e-6 -0.0117,0 -8e-4,1e-5 -0.001,-2.2e-5 -0.002,0 -0.002,-3.6e-5 -0.005,2.9e-5 -0.008,0 3e-4,-2.31e-4 -10e-4,1.08e-4 -0.002,0 -10e-4,1.52e-4 -0.004,0.0013 -0.004,0 -3.9e-4,-0.0015 -0.002,0.0012 -0.002,0 -0.006,0.0029 -0.0155,-2.59e-4 -0.0215,-0.002 -0.002,-4.2e-4 -0.003,-0.0014 -0.004,-0.002 h -0.006 -0.006 -0.0117 -0.002 -0.0137 -0.004 -0.008 -0.004 -0.0137 c -0.002,-1.6e-5 -0.003,-9.3e-5 -0.004,0 h -0.006 -0.01 -0.0117 -0.008 -0.008 -0.01 -0.0156 -0.0117 -0.006 c -0.004,0 -0.007,2e-6 -0.01,0 -0.0107,-8e-6 -0.0206,-1.9e-5 -0.0312,0 -5e-4,0 -0.0218,0.0012 -0.0117,0 -0.0102,0.0017 -0.0191,9.1e-4 -0.0293,0 0.005,-0.0021 1e-5,-0.0031 0.002,-0.0039 -0.003,0.0015 -0.006,0.0078 -0.0117,0.0078 0,0 -0.002,0 -0.002,0 -0.004,1.11e-4 -5.2e-4,-0.0062 0,-0.01172 9e-5,-9.16e-4 1.3e-4,-0.0011 0,-0.002 -2.8e-4,-8.76e-4 1.8e-4,-0.0012 0,-0.002 z m -0.17383,0.02734 c 0.004,-0.0014 0.006,-0.0045 0.01,-0.0059 5.2e-4,-0.0015 0.002,-0.0023 0.002,-0.0039 -0.008,0.0098 -0.0156,0.01643 -0.0273,0.01172 0.005,-8e-4 0.0106,-0.0014 0.0156,-0.002 z" /><path
             style="color:#000000;font-style:normal;font-variant:normal;font-weight:normal;font-stretch:normal;font-size:medium;line-height:normal;font-family:sans-serif;font-variant-ligatures:normal;font-variant-position:normal;font-variant-caps:normal;font-variant-numeric:normal;font-variant-alternates:normal;font-variant-east-asian:normal;font-feature-settings:normal;font-variation-settings:normal;text-indent:0;text-align:start;text-decoration:none;text-decoration-line:none;text-decoration-style:solid;text-decoration-color:#000000;letter-spacing:normal;word-spacing:normal;text-transform:none;writing-mode:lr-tb;direction:ltr;text-orientation:mixed;dominant-baseline:auto;baseline-shift:baseline;text-anchor:start;white-space:normal;shape-padding:0;shape-margin:0;inline-size:0;clip-rule:nonzero;display:inline;overflow:visible;visibility:visible;isolation:auto;mix-blend-mode:normal;color-interpolation:sRGB;color-interpolation-filters:linearRGB;solid-color:#000000;solid-opacity:1;vector-effect:none;fill:#ffffff;fill-opacity:1;fill-rule:nonzero;stroke:none;stroke-linecap:round;stroke-linejoin:round;stroke-miterlimit:10;stroke-dasharray:none;stroke-dashoffset:0;stroke-opacity:1;color-rendering:auto;image-rendering:auto;shape-rendering:auto;text-rendering:auto;enable-background:accumulate;stop-color:#000000"
             d="m -86.206455,-11.106598 c -9.57627,0 -17.414055,7.3792129 -17.414055,16.5292969 0,0.594921 0.0797,1.1699123 0.14453,1.7480473 -5.71903,1.164715 -10.06836,6.2066138 -10.06836,12.3769528 0,7.016554 5.571,12.757813 12.44922,12.757813 h 41.970697 a 1,1 0 0 0 1,-1 1,1 0 0 0 -1,-1 h -41.970697 c -5.76779,0 -10.44923,-4.794366 -10.44923,-10.757813 0,-5.545963 4.05383,-10.0737678 9.24414,-10.6874998 a 1.0001,1.0001 0 0 0 0.86914,-1.158203 c -0.12398,-0.74015 -0.18945,-1.503386 -0.18945,-2.2792973 0,-8.007915 6.860335,-14.529296 15.414065,-14.529297 8.078936,0 14.65051,5.833186 15.353516,13.212891 a 1,1 0 0 0 1.089844,0.900391 1,1 0 0 0 0.900391,-1.089844 c -0.804994,-8.450295 -8.298686,-15.0234379 -17.343751,-15.0234379 z"
             id="path4359" /></g></g></g></g></svg>
