<?xml version="1.0" encoding="UTF-8" standalone="no"?>
<svg
   xmlns:dc="http://purl.org/dc/elements/1.1/"
   xmlns:cc="http://creativecommons.org/ns#"
   xmlns:rdf="http://www.w3.org/1999/02/22-rdf-syntax-ns#"
   xmlns:svg="http://www.w3.org/2000/svg"
   xmlns="http://www.w3.org/2000/svg"
   xmlns:sodipodi="http://sodipodi.sourceforge.net/DTD/sodipodi-0.dtd"
   xmlns:inkscape="http://www.inkscape.org/namespaces/inkscape"
   enable-background="new 0 0 64 64"
   height="140mm"
   id="Layer_1"
   version="1.1"
   viewBox="0 0 752.12586 529.13435"
   width="199mm"
   xml:space="preserve"
   sodipodi:docname="03d.svg"
   inkscape:version="1.0.2 (e86c8708, 2021-01-15)"><metadata
     id="metadata4046"><rdf:RDF><cc:Work
         rdf:about=""><dc:format>image/svg+xml</dc:format><dc:type
           rdf:resource="http://purl.org/dc/dcmitype/StillImage" /><dc:title></dc:title></cc:Work></rdf:RDF></metadata><defs
     id="defs4044"><filter
       inkscape:collect="always"
       style="color-interpolation-filters:sRGB"
       id="filter15818"
       x="-0.070216142"
       width="1.1404324"
       y="-0.11600082"
       height="1.2320015"><feGaussianBlur
         inkscape:collect="always"
         stdDeviation="2.2716453"
         id="feGaussianBlur15820" /></filter><filter
       inkscape:collect="always"
       style="color-interpolation-filters:sRGB"
       id="filter15822"
       x="-0.038527373"
       width="1.0770547"
       y="-0.063649282"
       height="1.1272986"><feGaussianBlur
         inkscape:collect="always"
         stdDeviation="1.2464446"
         id="feGaussianBlur15824" /></filter><filter
       inkscape:collect="always"
       style="color-interpolation-filters:sRGB"
       id="filter15762"
       x="-0.021671647"
       width="1.0433433"
       y="-0.035802722"
       height="1.0716054"><feGaussianBlur
         inkscape:collect="always"
         stdDeviation="0.70112508"
         id="feGaussianBlur15764" /></filter></defs><sodipodi:namedview
     pagecolor="#938b8b"
     bordercolor="#666666"
     borderopacity="1"
     objecttolerance="10"
     gridtolerance="10"
     guidetolerance="10"
     inkscape:pageopacity="0"
     inkscape:pageshadow="2"
     inkscape:window-width="1687"
     inkscape:window-height="895"
     id="namedview4042"
     showgrid="false"
     inkscape:zoom="0.53148847"
     inkscape:cx="171.98221"
     inkscape:cy="529.78614"
     inkscape:window-x="148"
     inkscape:window-y="25"
     inkscape:window-maximized="0"
     inkscape:current-layer="Layer_1"
     inkscape:document-rotation="0"
     inkscape:pagecheckerboard="true"
     units="mm"
     width="211mm" /><g
     id="g545"
     transform="matrix(13.656128,0,0,13.656128,-78.57546,-158.44177)"><g
       id="g531"><path
         style="color:#000000;font-style:normal;font-variant:normal;font-weight:normal;font-stretch:normal;font-size:medium;line-height:normal;font-family:sans-serif;font-variant-ligatures:normal;font-variant-position:normal;font-variant-caps:normal;font-variant-numeric:normal;font-variant-alternates:normal;font-variant-east-asian:normal;font-feature-settings:normal;font-variation-settings:normal;text-indent:0;text-align:start;text-decoration:none;text-decoration-line:none;text-decoration-style:solid;text-decoration-color:#000000;letter-spacing:normal;word-spacing:normal;text-transform:none;writing-mode:lr-tb;direction:ltr;text-orientation:mixed;dominant-baseline:auto;baseline-shift:baseline;text-anchor:start;white-space:normal;shape-padding:0;shape-margin:0;inline-size:0;clip-rule:nonzero;display:inline;overflow:visible;visibility:visible;isolation:auto;mix-blend-mode:normal;color-interpolation:sRGB;color-interpolation-filters:linearRGB;solid-color:#000000;solid-opacity:1;vector-effect:none;fill:#0fffff;fill-opacity:1;fill-rule:nonzero;stroke:#0fffff;stroke-width:4.3;stroke-linecap:round;stroke-linejoin:round;stroke-miterlimit:4;stroke-dasharray:none;stroke-dashoffset:0;stroke-opacity:1;filter:url(#filter15818);color-rendering:auto;image-rendering:auto;shape-rendering:auto;text-rendering:auto;enable-background:accumulate;stop-color:#000000"
         d="m 27.372013,78.526881 c -8.904257,0 -16.192033,7.138824 -16.192033,15.990831 0,0.575541 0.07411,1.1318 0.134388,1.691102 -5.3176988,1.126772 -9.3618118,6.004426 -9.3618118,11.973756 0,6.78798 5.180053,12.3422 11.5755958,12.3422 h 39.025413 a 0.9298251,0.96742352 0 0 0 0.929825,-0.96742 0.9298251,0.96742352 0 0 0 -0.929825,-0.96742 H 13.528152 c -5.3630258,0 -9.7159458,-4.63818 -9.7159458,-10.40736 0,-5.3653 3.769349,-9.745601 8.5954348,-10.33934 a 0.92991808,0.96752026 0 0 0 0.808148,-1.120473 c -0.11528,-0.716039 -0.176159,-1.45441 -0.176159,-2.205045 0,-7.747045 6.37891,-14.055984 14.332383,-14.055985 7.511997,0 13.622411,5.643162 14.276084,12.782462 a 0.9298251,0.96742352 0 0 0 1.013364,0.871059 0.9298251,0.96742352 0 0 0 0.837207,-1.05434 C 42.750164,84.885894 35.782341,78.526881 27.372013,78.526881 Z"
         id="path15722"
         transform="matrix(0.70904049,0,0,0.70904049,8.7492279,-39.654182)" /><g
         id="g518"><path
           id="path15720"
           style="color:#000000;font-style:normal;font-variant:normal;font-weight:normal;font-stretch:normal;font-size:medium;line-height:normal;font-family:sans-serif;font-variant-ligatures:normal;font-variant-position:normal;font-variant-caps:normal;font-variant-numeric:normal;font-variant-alternates:normal;font-variant-east-asian:normal;font-feature-settings:normal;font-variation-settings:normal;text-indent:0;text-align:start;text-decoration:none;text-decoration-line:none;text-decoration-style:solid;text-decoration-color:#000000;letter-spacing:normal;word-spacing:normal;text-transform:none;writing-mode:lr-tb;direction:ltr;text-orientation:mixed;dominant-baseline:auto;baseline-shift:baseline;text-anchor:start;white-space:normal;shape-padding:0;shape-margin:0;inline-size:0;clip-rule:nonzero;display:inline;overflow:visible;visibility:visible;isolation:auto;mix-blend-mode:normal;color-interpolation:sRGB;color-interpolation-filters:linearRGB;solid-color:#000000;solid-opacity:1;vector-effect:none;fill:#0fffff;fill-opacity:1;fill-rule:nonzero;stroke:#0fffff;stroke-width:4.3;stroke-linecap:round;stroke-linejoin:round;stroke-miterlimit:4;stroke-dasharray:none;stroke-dashoffset:0;stroke-opacity:1;filter:url(#filter15818);color-rendering:auto;image-rendering:auto;shape-rendering:auto;text-rendering:auto;enable-background:accumulate;stop-color:#000000"
           d="m 48.570955,91.267009 c 3.6e-4,0.0019 -0.002,0.0024 -0.002,0.0039 2.2e-4,0.0044 0.005,0.01285 0,0.01172 -0.004,1.5e-5 -0.009,4.3e-5 -0.0117,0 -8.8e-4,1.9e-5 -0.005,-2.4e-5 -0.008,0 0,0 -0.002,0 -0.002,0 h -0.002 -0.002 c -0.002,-1.49e-4 -0.004,9.4e-5 -0.006,0 -0.002,-9.2e-5 -0.005,0.0013 -0.006,0 -0.001,-0.001 0.002,-0.0026 0.002,-0.0039 -0.004,-0.0078 -10e-4,-0.0039 -0.004,-0.0078 -7.6e-4,2e-6 -10e-4,6e-6 -0.002,0 -0.002,-1.6e-5 -0.004,5e-5 -0.006,0 -10e-4,-0.0014 -9.5e-4,0.0083 -0.002,0.0039 h -0.002 c -2e-4,0.0039 1.5e-4,0.0078 0,0.01172 h -0.002 c -0.002,-1.8e-5 -0.006,1.4e-5 -0.008,0 -0.003,-2.3e-5 -0.009,0.003 -0.01,0 -0.001,-0.0036 -0.001,-0.0078 -0.002,-0.01172 h -0.004 -0.002 c -5.8e-4,0.0027 4.9e-4,0.0034 0,0.0059 -4.8e-4,0.0025 1.2e-4,0.0039 0,0.0059 5.7e-4,-0.002 10e-4,-0.0038 0.002,-0.0059 7.6e-4,7.07e-4 0.002,-2.79e-4 0.002,0.0059 0,10e-4 -0.003,-1.2e-5 -0.004,0 -5e-4,0 -0.0197,7.59e-4 -0.0137,0 -0.002,6.38e-4 -0.003,0.002 -0.006,0.002 -0.002,8.58e-4 -0.004,0.0011 -0.006,0.002 -0.005,0.0023 -0.01,0.0045 -0.0156,0.0039 -0.005,0 -0.0106,5e-6 -0.0156,0 -0.005,-2e-6 -0.009,-1.4e-5 -0.0137,0 -0.003,-2.6e-5 -0.009,-3.23e-4 -0.0117,0 -0.001,1e-4 -0.0147,0.0012 -0.0117,0 -0.003,0.0014 -0.007,0.0049 -0.01,0.0059 -0.01,0.0033 -0.0105,0.002 -0.0195,0.002 h -0.008 c -0.007,0 -0.013,-4.86e-4 -0.0195,-0.002 -10e-4,-2.91e-4 -0.003,4.97e-4 -0.004,0 0,0 0.002,0.002 0.002,0.002 -8.3e-4,10e-4 0.0118,-0.0028 -0.0137,0.0039 h -0.0176 -0.0156 -0.041 -0.0117 c -0.002,0 -0.004,1.5e-5 -0.006,0 0,9.76e-4 -0.003,0 -0.004,0 h -0.01 -0.0176 -0.0156 c -0.001,0 -5.7e-4,-0.0018 -0.002,-0.002 -3.48921,0.298249 -6.58286,2.038087 -8.6582,4.666015 -0.3419,0.433645 -0.26756,1.062327 0.16601,1.404297 0.43365,0.341886 1.06233,0.267565 1.4043,-0.166016 1.80871,-2.290306 4.49835,-3.787335 7.53906,-3.960937 5.67799,0.01719 11.00391,5.602916 11.00391,11.501952 9e-5,0.49865 0.3675,0.92104 0.86133,0.99024 3.55263,0.4949 6.17187,3.18956 6.17187,6.35741 0,3.503 -3.21047,6.43946 -7.33007,6.43946 -0.55228,0 -1,0.44771 -1,1 0,0.55228 0.44772,1 1,1 5.0844,0 9.33007,-3.72646 9.33007,-8.43946 0,-3.99252 -3.09572,-7.18791 -7.11133,-8.09374 -0.40193,-6.616087 -5.9772,-12.445726 -12.48632,-12.716799 -0.002,-8.2e-5 -0.004,7.9e-5 -0.006,0 -0.0119,-4.88e-4 -0.0233,-0.0035 -0.0352,-0.0039 -0.005,-1.98e-4 -0.0104,1.91e-4 -0.0156,0 h -0.0117 -0.002 -0.01 -0.006 c 0,0 -0.002,0 -0.002,0 h -0.002 c -0.003,4e-6 -0.005,6e-6 -0.008,0 h -0.002 c -0.002,1e-6 -0.0146,-2.09e-4 -0.008,0 -0.001,5.2e-5 -0.003,-1.42e-4 -0.004,0 -10e-4,1.43e-4 -0.003,-9.3e-5 -0.004,0 -8.5e-4,4.1e-5 -10e-4,0 -0.002,0 -10e-4,1.51e-4 -0.003,1.09e-4 -0.004,0 h -0.002 -0.002 -0.002 c -10e-4,1.25e-4 -0.002,0.0039 -0.004,0.0039 h -0.0137 c -0.003,0 -0.007,1.9e-5 -0.01,0 -0.007,-1.2e-5 -0.0125,-1.27e-4 -0.0195,0 -0.004,-2.4e-4 -0.007,-8.54e-4 -0.01,0 -0.004,-0.0016 -0.008,-0.0023 -0.0117,-0.0039 -0.004,-5e-6 -0.008,6e-6 -0.0117,0 -8e-4,1e-5 -0.001,-2.2e-5 -0.002,0 -0.002,-3.6e-5 -0.005,2.9e-5 -0.008,0 3e-4,-2.31e-4 -10e-4,1.08e-4 -0.002,0 -0.001,1.52e-4 -0.004,0.0013 -0.004,0 -3.9e-4,-0.0015 -0.002,0.0012 -0.002,0 -0.006,0.0029 -0.0155,-2.59e-4 -0.0215,-0.002 -0.002,-4.2e-4 -0.003,-0.0014 -0.004,-0.002 h -0.006 -0.006 -0.0117 -0.002 -0.0137 -0.004 -0.008 -0.004 -0.0137 c -0.002,-1.6e-5 -0.003,-9.3e-5 -0.004,0 h -0.006 -0.01 -0.0117 -0.008 -0.008 -0.01 -0.0156 -0.0117 -0.006 c -0.004,0 -0.007,2e-6 -0.01,0 -0.0107,-8e-6 -0.0206,-1.9e-5 -0.0312,0 -5e-4,0 -0.0218,0.0012 -0.0117,0 -0.0102,0.0017 -0.0191,9.1e-4 -0.0293,0 0.005,-0.0021 1e-5,-0.0031 0.002,-0.0039 -0.003,0.0015 -0.006,0.0078 -0.0117,0.0078 0,0 -0.002,0 -0.002,0 -0.004,1.11e-4 -5.2e-4,-0.0062 0,-0.01172 9e-5,-9.16e-4 1.3e-4,-0.0011 0,-0.002 -2.8e-4,-8.76e-4 1.8e-4,-0.0012 0,-0.002 z m -0.17383,0.02734 c 0.004,-0.0014 0.006,-0.0045 0.01,-0.0059 5.2e-4,-0.0015 0.002,-0.0023 0.002,-0.0039 -0.008,0.0098 -0.0156,0.01643 -0.0273,0.01172 0.005,-8e-4 0.0106,-0.0014 0.0156,-0.002 z"
           transform="matrix(0.70904049,0,0,0.70904049,8.7492279,-39.654182)" /><path
           id="path15712"
           style="color:#000000;font-style:normal;font-variant:normal;font-weight:normal;font-stretch:normal;font-size:medium;line-height:normal;font-family:sans-serif;font-variant-ligatures:normal;font-variant-position:normal;font-variant-caps:normal;font-variant-numeric:normal;font-variant-alternates:normal;font-variant-east-asian:normal;font-feature-settings:normal;font-variation-settings:normal;text-indent:0;text-align:start;text-decoration:none;text-decoration-line:none;text-decoration-style:solid;text-decoration-color:#000000;letter-spacing:normal;word-spacing:normal;text-transform:none;writing-mode:lr-tb;direction:ltr;text-orientation:mixed;dominant-baseline:auto;baseline-shift:baseline;text-anchor:start;white-space:normal;shape-padding:0;shape-margin:0;inline-size:0;clip-rule:nonzero;display:inline;overflow:visible;visibility:visible;isolation:auto;mix-blend-mode:normal;color-interpolation:sRGB;color-interpolation-filters:linearRGB;solid-color:#000000;solid-opacity:1;vector-effect:none;fill:#68f3f3;fill-opacity:1;fill-rule:nonzero;stroke:#68f3f3;stroke-width:2.5;stroke-linecap:round;stroke-linejoin:round;stroke-miterlimit:4;stroke-dasharray:none;stroke-dashoffset:0;stroke-opacity:1;filter:url(#filter15822);color-rendering:auto;image-rendering:auto;shape-rendering:auto;text-rendering:auto;enable-background:accumulate;stop-color:#000000"
           d="m 48.570955,91.267009 c 3.6e-4,0.0019 -0.002,0.0024 -0.002,0.0039 2.2e-4,0.0044 0.005,0.01285 0,0.01172 -0.004,1.5e-5 -0.009,4.3e-5 -0.0117,0 -8.8e-4,1.9e-5 -0.005,-2.4e-5 -0.008,0 0,0 -0.002,0 -0.002,0 h -0.002 -0.002 c -0.002,-1.49e-4 -0.004,9.4e-5 -0.006,0 -0.002,-9.2e-5 -0.005,0.0013 -0.006,0 -0.001,-0.001 0.002,-0.0026 0.002,-0.0039 -0.004,-0.0078 -10e-4,-0.0039 -0.004,-0.0078 -7.6e-4,2e-6 -10e-4,6e-6 -0.002,0 -0.002,-1.6e-5 -0.004,5e-5 -0.006,0 -10e-4,-0.0014 -9.5e-4,0.0083 -0.002,0.0039 h -0.002 c -2e-4,0.0039 1.5e-4,0.0078 0,0.01172 h -0.002 c -0.002,-1.8e-5 -0.006,1.4e-5 -0.008,0 -0.003,-2.3e-5 -0.009,0.003 -0.01,0 -0.001,-0.0036 -0.001,-0.0078 -0.002,-0.01172 h -0.004 -0.002 c -5.8e-4,0.0027 4.9e-4,0.0034 0,0.0059 -4.8e-4,0.0025 1.2e-4,0.0039 0,0.0059 5.7e-4,-0.002 10e-4,-0.0038 0.002,-0.0059 7.6e-4,7.07e-4 0.002,-2.79e-4 0.002,0.0059 0,10e-4 -0.003,-1.2e-5 -0.004,0 -5e-4,0 -0.0197,7.59e-4 -0.0137,0 -0.002,6.38e-4 -0.003,0.002 -0.006,0.002 -0.002,8.58e-4 -0.004,0.0011 -0.006,0.002 -0.005,0.0023 -0.01,0.0045 -0.0156,0.0039 -0.005,0 -0.0106,5e-6 -0.0156,0 -0.005,-2e-6 -0.009,-1.4e-5 -0.0137,0 -0.003,-2.6e-5 -0.009,-3.23e-4 -0.0117,0 -0.001,1e-4 -0.0147,0.0012 -0.0117,0 -0.003,0.0014 -0.007,0.0049 -0.01,0.0059 -0.01,0.0033 -0.0105,0.002 -0.0195,0.002 h -0.008 c -0.007,0 -0.013,-4.86e-4 -0.0195,-0.002 -10e-4,-2.91e-4 -0.003,4.97e-4 -0.004,0 0,0 0.002,0.002 0.002,0.002 -8.3e-4,10e-4 0.0118,-0.0028 -0.0137,0.0039 h -0.0176 -0.0156 -0.041 -0.0117 c -0.002,0 -0.004,1.5e-5 -0.006,0 0,9.76e-4 -0.003,0 -0.004,0 h -0.01 -0.0176 -0.0156 c -0.001,0 -5.7e-4,-0.0018 -0.002,-0.002 -3.48921,0.298249 -6.58286,2.038087 -8.6582,4.666015 -0.3419,0.433645 -0.26756,1.062327 0.16601,1.404297 0.43365,0.341886 1.06233,0.267565 1.4043,-0.166016 1.80871,-2.290306 4.49835,-3.787335 7.53906,-3.960937 5.67799,0.01719 11.00391,5.602916 11.00391,11.501952 9e-5,0.49865 0.3675,0.92104 0.86133,0.99024 3.55263,0.4949 6.17187,3.18956 6.17187,6.35741 0,3.503 -3.21047,6.43946 -7.33007,6.43946 -0.55228,0 -1,0.44771 -1,1 0,0.55228 0.44772,1 1,1 5.0844,0 9.33007,-3.72646 9.33007,-8.43946 0,-3.99252 -3.09572,-7.18791 -7.11133,-8.09374 -0.40193,-6.616087 -5.9772,-12.445726 -12.48632,-12.716799 -0.002,-8.2e-5 -0.004,7.9e-5 -0.006,0 -0.0119,-4.88e-4 -0.0233,-0.0035 -0.0352,-0.0039 -0.005,-1.98e-4 -0.0104,1.91e-4 -0.0156,0 h -0.0117 -0.002 -0.01 -0.006 c 0,0 -0.002,0 -0.002,0 h -0.002 c -0.003,4e-6 -0.005,6e-6 -0.008,0 h -0.002 c -0.002,1e-6 -0.0146,-2.09e-4 -0.008,0 -0.001,5.2e-5 -0.003,-1.42e-4 -0.004,0 -10e-4,1.43e-4 -0.003,-9.3e-5 -0.004,0 -8.5e-4,4.1e-5 -10e-4,0 -0.002,0 -10e-4,1.51e-4 -0.003,1.09e-4 -0.004,0 h -0.002 -0.002 -0.002 c -10e-4,1.25e-4 -0.002,0.0039 -0.004,0.0039 h -0.0137 c -0.003,0 -0.007,1.9e-5 -0.01,0 -0.007,-1.2e-5 -0.0125,-1.27e-4 -0.0195,0 -0.004,-2.4e-4 -0.007,-8.54e-4 -0.01,0 -0.004,-0.0016 -0.008,-0.0023 -0.0117,-0.0039 -0.004,-5e-6 -0.008,6e-6 -0.0117,0 -8e-4,1e-5 -0.001,-2.2e-5 -0.002,0 -0.002,-3.6e-5 -0.005,2.9e-5 -0.008,0 3e-4,-2.31e-4 -10e-4,1.08e-4 -0.002,0 -0.001,1.52e-4 -0.004,0.0013 -0.004,0 -3.9e-4,-0.0015 -0.002,0.0012 -0.002,0 -0.006,0.0029 -0.0155,-2.59e-4 -0.0215,-0.002 -0.002,-4.2e-4 -0.003,-0.0014 -0.004,-0.002 h -0.006 -0.006 -0.0117 -0.002 -0.0137 -0.004 -0.008 -0.004 -0.0137 c -0.002,-1.6e-5 -0.003,-9.3e-5 -0.004,0 h -0.006 -0.01 -0.0117 -0.008 -0.008 -0.01 -0.0156 -0.0117 -0.006 c -0.004,0 -0.007,2e-6 -0.01,0 -0.0107,-8e-6 -0.0206,-1.9e-5 -0.0312,0 -5e-4,0 -0.0218,0.0012 -0.0117,0 -0.0102,0.0017 -0.0191,9.1e-4 -0.0293,0 0.005,-0.0021 1e-5,-0.0031 0.002,-0.0039 -0.003,0.0015 -0.006,0.0078 -0.0117,0.0078 0,0 -0.002,0 -0.002,0 -0.004,1.11e-4 -5.2e-4,-0.0062 0,-0.01172 9e-5,-9.16e-4 1.3e-4,-0.0011 0,-0.002 -2.8e-4,-8.76e-4 1.8e-4,-0.0012 0,-0.002 z m -0.17383,0.02734 c 0.004,-0.0014 0.006,-0.0045 0.01,-0.0059 5.2e-4,-0.0015 0.002,-0.0023 0.002,-0.0039 -0.008,0.0098 -0.0156,0.01643 -0.0273,0.01172 0.005,-8e-4 0.0106,-0.0014 0.0156,-0.002 z"
           transform="matrix(0.70904049,0,0,0.70904049,8.7492302,-39.654184)" /><path
           style="color:#000000;font-style:normal;font-variant:normal;font-weight:normal;font-stretch:normal;font-size:medium;line-height:normal;font-family:sans-serif;font-variant-ligatures:normal;font-variant-position:normal;font-variant-caps:normal;font-variant-numeric:normal;font-variant-alternates:normal;font-variant-east-asian:normal;font-feature-settings:normal;font-variation-settings:normal;text-indent:0;text-align:start;text-decoration:none;text-decoration-line:none;text-decoration-style:solid;text-decoration-color:#000000;letter-spacing:normal;word-spacing:normal;text-transform:none;writing-mode:lr-tb;direction:ltr;text-orientation:mixed;dominant-baseline:auto;baseline-shift:baseline;text-anchor:start;white-space:normal;shape-padding:0;shape-margin:0;inline-size:0;clip-rule:nonzero;display:inline;overflow:visible;visibility:visible;isolation:auto;mix-blend-mode:normal;color-interpolation:sRGB;color-interpolation-filters:linearRGB;solid-color:#000000;solid-opacity:1;vector-effect:none;fill:#68f3f3;fill-opacity:1;fill-rule:nonzero;stroke:#68f3f3;stroke-width:2.5;stroke-linecap:round;stroke-linejoin:round;stroke-miterlimit:4;stroke-dasharray:none;stroke-dashoffset:0;stroke-opacity:1;filter:url(#filter15822);color-rendering:auto;image-rendering:auto;shape-rendering:auto;text-rendering:auto;enable-background:accumulate;stop-color:#000000"
           d="m 27.372013,78.526881 c -8.904257,0 -16.192033,7.138824 -16.192033,15.990831 0,0.575541 0.07411,1.1318 0.134388,1.691102 -5.3176988,1.126772 -9.3618118,6.004426 -9.3618118,11.973756 0,6.78798 5.180053,12.3422 11.5755958,12.3422 h 39.025413 a 0.9298251,0.96742352 0 0 0 0.929825,-0.96742 0.9298251,0.96742352 0 0 0 -0.929825,-0.96742 H 13.528152 c -5.3630258,0 -9.7159458,-4.63818 -9.7159458,-10.40736 0,-5.3653 3.769349,-9.745601 8.5954348,-10.33934 a 0.92991808,0.96752026 0 0 0 0.808148,-1.120473 c -0.11528,-0.716039 -0.176159,-1.45441 -0.176159,-2.205045 0,-7.747045 6.37891,-14.055984 14.332383,-14.055985 7.511997,0 13.622411,5.643162 14.276084,12.782462 a 0.9298251,0.96742352 0 0 0 1.013364,0.871059 0.9298251,0.96742352 0 0 0 0.837207,-1.05434 C 42.750164,84.885894 35.782341,78.526881 27.372013,78.526881 Z"
           id="path15714"
           transform="matrix(0.70904049,0,0,0.70904049,8.7492302,-39.654184)" /><path
           id="path15704"
           style="color:#000000;font-style:normal;font-variant:normal;font-weight:normal;font-stretch:normal;font-size:medium;line-height:normal;font-family:sans-serif;font-variant-ligatures:normal;font-variant-position:normal;font-variant-caps:normal;font-variant-numeric:normal;font-variant-alternates:normal;font-variant-east-asian:normal;font-feature-settings:normal;font-variation-settings:normal;text-indent:0;text-align:start;text-decoration:none;text-decoration-line:none;text-decoration-style:solid;text-decoration-color:#000000;letter-spacing:normal;word-spacing:normal;text-transform:none;writing-mode:lr-tb;direction:ltr;text-orientation:mixed;dominant-baseline:auto;baseline-shift:baseline;text-anchor:start;white-space:normal;shape-padding:0;shape-margin:0;inline-size:0;clip-rule:nonzero;display:inline;overflow:visible;visibility:visible;isolation:auto;mix-blend-mode:normal;color-interpolation:sRGB;color-interpolation-filters:linearRGB;solid-color:#000000;solid-opacity:1;vector-effect:none;fill:#a8f1f1;fill-opacity:1;fill-rule:nonzero;stroke:#a8f1f1;stroke-width:1.9;stroke-linecap:round;stroke-linejoin:round;stroke-miterlimit:4;stroke-dasharray:none;stroke-dashoffset:0;stroke-opacity:1;filter:url(#filter15762);color-rendering:auto;image-rendering:auto;shape-rendering:auto;text-rendering:auto;enable-background:accumulate;stop-color:#000000"
           d="m 48.570955,91.267009 c 3.6e-4,0.0019 -0.002,0.0024 -0.002,0.0039 2.2e-4,0.0044 0.005,0.01285 0,0.01172 -0.004,1.5e-5 -0.009,4.3e-5 -0.0117,0 -8.8e-4,1.9e-5 -0.005,-2.4e-5 -0.008,0 0,0 -0.002,0 -0.002,0 h -0.002 -0.002 c -0.002,-1.49e-4 -0.004,9.4e-5 -0.006,0 -0.002,-9.2e-5 -0.005,0.0013 -0.006,0 -0.001,-0.001 0.002,-0.0026 0.002,-0.0039 -0.004,-0.0078 -10e-4,-0.0039 -0.004,-0.0078 -7.6e-4,2e-6 -10e-4,6e-6 -0.002,0 -0.002,-1.6e-5 -0.004,5e-5 -0.006,0 -10e-4,-0.0014 -9.5e-4,0.0083 -0.002,0.0039 h -0.002 c -2e-4,0.0039 1.5e-4,0.0078 0,0.01172 h -0.002 c -0.002,-1.8e-5 -0.006,1.4e-5 -0.008,0 -0.003,-2.3e-5 -0.009,0.003 -0.01,0 -0.001,-0.0036 -0.001,-0.0078 -0.002,-0.01172 h -0.004 -0.002 c -5.8e-4,0.0027 4.9e-4,0.0034 0,0.0059 -4.8e-4,0.0025 1.2e-4,0.0039 0,0.0059 5.7e-4,-0.002 10e-4,-0.0038 0.002,-0.0059 7.6e-4,7.07e-4 0.002,-2.79e-4 0.002,0.0059 0,10e-4 -0.003,-1.2e-5 -0.004,0 -5e-4,0 -0.0197,7.59e-4 -0.0137,0 -0.002,6.38e-4 -0.003,0.002 -0.006,0.002 -0.002,8.58e-4 -0.004,0.0011 -0.006,0.002 -0.005,0.0023 -0.01,0.0045 -0.0156,0.0039 -0.005,0 -0.0106,5e-6 -0.0156,0 -0.005,-2e-6 -0.009,-1.4e-5 -0.0137,0 -0.003,-2.6e-5 -0.009,-3.23e-4 -0.0117,0 -0.001,1e-4 -0.0147,0.0012 -0.0117,0 -0.003,0.0014 -0.007,0.0049 -0.01,0.0059 -0.01,0.0033 -0.0105,0.002 -0.0195,0.002 h -0.008 c -0.007,0 -0.013,-4.86e-4 -0.0195,-0.002 -10e-4,-2.91e-4 -0.003,4.97e-4 -0.004,0 0,0 0.002,0.002 0.002,0.002 -8.3e-4,10e-4 0.0118,-0.0028 -0.0137,0.0039 h -0.0176 -0.0156 -0.041 -0.0117 c -0.002,0 -0.004,1.5e-5 -0.006,0 0,9.76e-4 -0.003,0 -0.004,0 h -0.01 -0.0176 -0.0156 c -0.001,0 -5.7e-4,-0.0018 -0.002,-0.002 -3.48921,0.298249 -6.58286,2.038087 -8.6582,4.666015 -0.3419,0.433645 -0.26756,1.062327 0.16601,1.404297 0.43365,0.341886 1.06233,0.267565 1.4043,-0.166016 1.80871,-2.290306 4.49835,-3.787335 7.53906,-3.960937 5.67799,0.01719 11.00391,5.602916 11.00391,11.501952 9e-5,0.49865 0.3675,0.92104 0.86133,0.99024 3.55263,0.4949 6.17187,3.18956 6.17187,6.35741 0,3.503 -3.21047,6.43946 -7.33007,6.43946 -0.55228,0 -1,0.44771 -1,1 0,0.55228 0.44772,1 1,1 5.0844,0 9.33007,-3.72646 9.33007,-8.43946 0,-3.99252 -3.09572,-7.18791 -7.11133,-8.09374 -0.40193,-6.616087 -5.9772,-12.445726 -12.48632,-12.716799 -0.002,-8.2e-5 -0.004,7.9e-5 -0.006,0 -0.0119,-4.88e-4 -0.0233,-0.0035 -0.0352,-0.0039 -0.005,-1.98e-4 -0.0104,1.91e-4 -0.0156,0 h -0.0117 -0.002 -0.01 -0.006 c 0,0 -0.002,0 -0.002,0 h -0.002 c -0.003,4e-6 -0.005,6e-6 -0.008,0 h -0.002 c -0.002,1e-6 -0.0146,-2.09e-4 -0.008,0 -0.001,5.2e-5 -0.003,-1.42e-4 -0.004,0 -10e-4,1.43e-4 -0.003,-9.3e-5 -0.004,0 -8.5e-4,4.1e-5 -10e-4,0 -0.002,0 -10e-4,1.51e-4 -0.003,1.09e-4 -0.004,0 h -0.002 -0.002 -0.002 c -10e-4,1.25e-4 -0.002,0.0039 -0.004,0.0039 h -0.0137 c -0.003,0 -0.007,1.9e-5 -0.01,0 -0.007,-1.2e-5 -0.0125,-1.27e-4 -0.0195,0 -0.004,-2.4e-4 -0.007,-8.54e-4 -0.01,0 -0.004,-0.0016 -0.008,-0.0023 -0.0117,-0.0039 -0.004,-5e-6 -0.008,6e-6 -0.0117,0 -8e-4,1e-5 -0.001,-2.2e-5 -0.002,0 -0.002,-3.6e-5 -0.005,2.9e-5 -0.008,0 3e-4,-2.31e-4 -10e-4,1.08e-4 -0.002,0 -0.001,1.52e-4 -0.004,0.0013 -0.004,0 -3.9e-4,-0.0015 -0.002,0.0012 -0.002,0 -0.006,0.0029 -0.0155,-2.59e-4 -0.0215,-0.002 -0.002,-4.2e-4 -0.003,-0.0014 -0.004,-0.002 h -0.006 -0.006 -0.0117 -0.002 -0.0137 -0.004 -0.008 -0.004 -0.0137 c -0.002,-1.6e-5 -0.003,-9.3e-5 -0.004,0 h -0.006 -0.01 -0.0117 -0.008 -0.008 -0.01 -0.0156 -0.0117 -0.006 c -0.004,0 -0.007,2e-6 -0.01,0 -0.0107,-8e-6 -0.0206,-1.9e-5 -0.0312,0 -5e-4,0 -0.0218,0.0012 -0.0117,0 -0.0102,0.0017 -0.0191,9.1e-4 -0.0293,0 0.005,-0.0021 1e-5,-0.0031 0.002,-0.0039 -0.003,0.0015 -0.006,0.0078 -0.0117,0.0078 0,0 -0.002,0 -0.002,0 -0.004,1.11e-4 -5.2e-4,-0.0062 0,-0.01172 9e-5,-9.16e-4 1.3e-4,-0.0011 0,-0.002 -2.8e-4,-8.76e-4 1.8e-4,-0.0012 0,-0.002 z m -0.17383,0.02734 c 0.004,-0.0014 0.006,-0.0045 0.01,-0.0059 5.2e-4,-0.0015 0.002,-0.0023 0.002,-0.0039 -0.008,0.0098 -0.0156,0.01643 -0.0273,0.01172 0.005,-8e-4 0.0106,-0.0014 0.0156,-0.002 z"
           transform="matrix(0.70904049,0,0,0.70904049,8.7492302,-39.654183)" /><path
           style="color:#000000;font-style:normal;font-variant:normal;font-weight:normal;font-stretch:normal;font-size:medium;line-height:normal;font-family:sans-serif;font-variant-ligatures:normal;font-variant-position:normal;font-variant-caps:normal;font-variant-numeric:normal;font-variant-alternates:normal;font-variant-east-asian:normal;font-feature-settings:normal;font-variation-settings:normal;text-indent:0;text-align:start;text-decoration:none;text-decoration-line:none;text-decoration-style:solid;text-decoration-color:#000000;letter-spacing:normal;word-spacing:normal;text-transform:none;writing-mode:lr-tb;direction:ltr;text-orientation:mixed;dominant-baseline:auto;baseline-shift:baseline;text-anchor:start;white-space:normal;shape-padding:0;shape-margin:0;inline-size:0;clip-rule:nonzero;display:inline;overflow:visible;visibility:visible;isolation:auto;mix-blend-mode:normal;color-interpolation:sRGB;color-interpolation-filters:linearRGB;solid-color:#000000;solid-opacity:1;vector-effect:none;fill:#a8f1f1;fill-opacity:1;fill-rule:nonzero;stroke:#a8f1f1;stroke-width:1.9;stroke-linecap:round;stroke-linejoin:round;stroke-miterlimit:4;stroke-dasharray:none;stroke-dashoffset:0;stroke-opacity:1;filter:url(#filter15762);color-rendering:auto;image-rendering:auto;shape-rendering:auto;text-rendering:auto;enable-background:accumulate;stop-color:#000000"
           d="m 27.372013,78.526881 c -8.904257,0 -16.192033,7.138824 -16.192033,15.990831 0,0.575541 0.07411,1.1318 0.134388,1.691102 -5.3176988,1.126772 -9.3618118,6.004426 -9.3618118,11.973756 0,6.78798 5.180053,12.3422 11.5755958,12.3422 h 39.025413 a 0.9298251,0.96742352 0 0 0 0.929825,-0.96742 0.9298251,0.96742352 0 0 0 -0.929825,-0.96742 H 13.528152 c -5.3630258,0 -9.7159458,-4.63818 -9.7159458,-10.40736 0,-5.3653 3.769349,-9.745601 8.5954348,-10.33934 a 0.92991808,0.96752026 0 0 0 0.808148,-1.120473 c -0.11528,-0.716039 -0.176159,-1.45441 -0.176159,-2.205045 0,-7.747045 6.37891,-14.055984 14.332383,-14.055985 7.511997,0 13.622411,5.643162 14.276084,12.782462 a 0.9298251,0.96742352 0 0 0 1.013364,0.871059 0.9298251,0.96742352 0 0 0 0.837207,-1.05434 C 42.750164,84.885894 35.782341,78.526881 27.372013,78.526881 Z"
           id="path15706"
           transform="matrix(0.70904049,0,0,0.70904049,8.7492302,-39.654183)" /><path
           id="path15812"
           style="color:#000000;font-style:normal;font-variant:normal;font-weight:normal;font-stretch:normal;font-size:medium;line-height:normal;font-family:sans-serif;font-variant-ligatures:normal;font-variant-position:normal;font-variant-caps:normal;font-variant-numeric:normal;font-variant-alternates:normal;font-variant-east-asian:normal;font-feature-settings:normal;font-variation-settings:normal;text-indent:0;text-align:start;text-decoration:none;text-decoration-line:none;text-decoration-style:solid;text-decoration-color:#000000;letter-spacing:normal;word-spacing:normal;text-transform:none;writing-mode:lr-tb;direction:ltr;text-orientation:mixed;dominant-baseline:auto;baseline-shift:baseline;text-anchor:start;white-space:normal;shape-padding:0;shape-margin:0;inline-size:0;clip-rule:nonzero;display:inline;overflow:visible;visibility:visible;opacity:0.208;isolation:auto;mix-blend-mode:normal;color-interpolation:sRGB;color-interpolation-filters:linearRGB;solid-color:#000000;solid-opacity:1;vector-effect:none;fill:#000000;fill-opacity:1;fill-rule:nonzero;stroke:none;stroke-width:0.7104;stroke-linecap:round;stroke-linejoin:round;stroke-miterlimit:10;stroke-dasharray:none;stroke-dashoffset:0;stroke-opacity:1;color-rendering:auto;image-rendering:auto;shape-rendering:auto;text-rendering:auto;enable-background:accumulate;stop-color:#000000"
           d="m 43.470239,25.069039 c 2.53e-4,0.0014 -0.0014,0.0017 -0.0014,0.0028 1.54e-4,0.0031 0.0036,0.0092 0,0.0084 -0.0028,1.1e-5 -0.0063,3.1e-5 -0.0083,0 -6.19e-4,1.4e-5 -0.0036,-1.7e-5 -0.0056,0 0,0 -0.0014,0 -0.0014,0 h -0.0014 -0.0014 c -0.0014,-1.07e-4 -0.0028,6.8e-5 -0.0043,0 -0.0014,-6.5e-5 -0.0036,9.33e-4 -0.0043,0 -7.03e-4,-7.18e-4 0.0014,-0.0018 0.0014,-0.0028 -0.0028,-0.0056 -7.02e-4,-0.0028 -0.0028,-0.0056 -5.34e-4,2e-6 -7.02e-4,5e-6 -0.0014,0 -0.0014,-1.1e-5 -0.0028,3.6e-5 -0.0043,0 -7.04e-4,-0.001 -6.68e-4,0.006 -0.0014,0.0028 h -0.0014 c -1.42e-4,0.0028 1.04e-4,0.0056 0,0.0084 h -0.0014 c -0.0014,-1.4e-5 -0.0043,9e-6 -0.0056,0 -0.0021,-1.7e-5 -0.0063,0.0022 -0.007,0 -7.03e-4,-0.0025 -7.03e-4,-0.0056 -0.0014,-0.0084 h -0.0028 -0.0014 c -4.08e-4,0.002 3.45e-4,0.0024 0,0.0043 -3.37e-4,0.0018 8.5e-5,0.0028 0,0.0043 4.01e-4,-0.0014 7.04e-4,-0.0028 0.0014,-0.0043 5.34e-4,5.07e-4 0.0014,-2e-4 0.0014,0.0043 0,7.18e-4 -0.0021,-8e-6 -0.0028,0 -3.51e-4,0 -0.01385,5.46e-4 -0.0097,0 -0.0014,4.58e-4 -0.0021,0.0014 -0.0043,0.0014 -0.0014,6.15e-4 -0.0028,7.89e-4 -0.0043,0.0014 -0.0036,0.0016 -0.007,0.0032 -0.01093,0.0028 -0.0036,0 -0.0075,4e-6 -0.01093,0 -0.0036,-1e-6 -0.0063,-10e-6 -0.0097,0 -0.0021,-1.8e-5 -0.0063,-2.32e-4 -0.0083,0 -7.03e-4,7.2e-5 -0.01035,8.61e-4 -0.0083,0 -0.0021,0.001 -0.0049,0.0036 -0.007,0.0043 -0.007,0.0024 -0.0074,0.0014 -0.01371,0.0014 h -0.0056 c -0.0049,0 -0.0091,-3.48e-4 -0.01371,-0.0014 -7.04e-4,-2.1e-4 -0.0021,3.56e-4 -0.0028,0 0,0 0.0014,0.0014 0.0014,0.0014 -5.83e-4,7.18e-4 0.0083,-0.002 -0.0097,0.0028 h -0.01238 -0.01093 -0.02883 -0.0083 c -0.0014,0 -0.0028,1.2e-5 -0.0043,0 0,7.01e-4 -0.0021,0 -0.0028,0 h -0.007 -0.01238 -0.01093 c -7.03e-4,0 -4e-4,-0.0013 -0.0014,-0.0014 -2.453601,0.214045 -4.629044,1.462689 -6.088416,3.348694 -0.240423,0.311217 -0.188147,0.762407 0.116738,1.007833 0.304941,0.245364 0.747026,0.192024 0.987499,-0.119147 1.271878,-1.643701 3.163223,-2.718086 5.301439,-2.842675 3.992742,0.01233 7.73791,4.021086 7.73791,8.254693 6.3e-5,0.35787 0.258424,0.661009 0.605684,0.710673 2.498197,0.355179 4.340037,2.289075 4.340037,4.56257 0,2.514026 -2.257591,4.621457 -5.15448,4.621457 -0.388361,0 -0.703195,0.321311 -0.703195,0.717677 0,0.39636 0.314834,0.717678 0.703195,0.717678 3.575332,0 6.560872,-2.674397 6.560872,-6.056812 0,-2.865342 -2.176899,-5.158601 -5.000661,-5.808695 -0.282636,-4.748217 -4.203145,-8.932019 -8.780335,-9.126562 -0.0014,-5.9e-5 -0.0028,5.7e-5 -0.0043,0 -0.0084,-3.5e-4 -0.01638,-0.0025 -0.02476,-0.0028 -0.0036,-1.42e-4 -0.0074,1.37e-4 -0.01093,0 h -0.0083 -0.0014 -0.007 -0.0043 c 0,0 -0.0014,0 -0.0014,0 h -0.0014 c -0.0021,3e-6 -0.0036,4e-6 -0.0056,0 h -0.0014 c -0.0014,0 -0.01024,-1.5e-4 -0.0056,0 -7.04e-4,3.7e-5 -0.0021,-1.02e-4 -0.0028,0 -7.04e-4,1.03e-4 -0.0021,-6.6e-5 -0.0028,0 -5.97e-4,2.9e-5 -7.03e-4,0 -0.0014,0 -7.02e-4,1.09e-4 -0.0021,7.9e-5 -0.0028,0 h -0.0014 -0.0014 -0.0014 c -7.03e-4,9e-5 -0.0014,0.0028 -0.0028,0.0028 h -0.0097 c -0.0021,0 -0.0049,1.3e-5 -0.007,0 -0.0049,-9e-6 -0.0087,-9.2e-5 -0.01371,0 -0.0028,-1.72e-4 -0.0049,-6.13e-4 -0.007,0 -0.0028,-0.0011 -0.0056,-0.0016 -0.0083,-0.0028 -0.0028,-4e-6 -0.0056,4e-6 -0.0083,0 -5.62e-4,7e-6 -7.04e-4,-1.6e-5 -0.0014,0 -0.0014,-2.6e-5 -0.0036,2.1e-5 -0.0056,0 2.1e-4,-1.66e-4 -7.03e-4,7.8e-5 -0.0014,0 -7.02e-4,1.09e-4 -0.0028,9.33e-4 -0.0028,0 -2.73e-4,-0.0011 -0.0014,8.61e-4 -0.0014,0 -0.0043,0.0021 -0.01093,-1.86e-4 -0.01512,-0.0014 -0.0014,-3.01e-4 -0.0021,-10e-4 -0.0028,-0.0014 h -0.0043 -0.0043 -0.0083 -0.0014 -0.0097 -0.0028 -0.0056 -0.0028 -0.0097 c -0.0014,-1.1e-5 -0.0021,-6.6e-5 -0.0028,0 h -0.0043 -0.007 -0.0083 -0.0056 -0.0056 -0.007 -0.01093 -0.0083 -0.0043 c -0.0028,0 -0.0049,2e-6 -0.007,0 -0.0075,-5e-6 -0.01448,-1.3e-5 -0.02194,0 -3.51e-4,0 -0.01534,8.62e-4 -0.0083,0 -0.0071,0.0013 -0.01344,6.54e-4 -0.0206,0 0.0036,-0.0015 6e-6,-0.0022 0.0014,-0.0028 -0.0021,0.0011 -0.0043,0.0056 -0.0083,0.0056 0,0 -0.0014,0 -0.0014,0 -0.0028,8e-5 -3.66e-4,-0.0045 0,-0.0084 6.3e-5,-6.58e-4 9.1e-5,-7.91e-4 0,-0.0014 -1.97e-4,-6.29e-4 1.26e-4,-8.62e-4 0,-0.0014 z m -0.122236,0.01963 c 0.0028,-10e-4 0.0043,-0.0032 0.007,-0.0043 3.66e-4,-0.0011 0.0014,-0.0016 0.0014,-0.0028 -0.0056,0.007 -0.01093,0.01179 -0.0192,0.0084 0.0036,-5.74e-4 0.0075,-0.001 0.01093,-0.0014 z" /><path
           style="color:#000000;font-style:normal;font-variant:normal;font-weight:normal;font-stretch:normal;font-size:medium;line-height:normal;font-family:sans-serif;font-variant-ligatures:normal;font-variant-position:normal;font-variant-caps:normal;font-variant-numeric:normal;font-variant-alternates:normal;font-variant-east-asian:normal;font-feature-settings:normal;font-variation-settings:normal;text-indent:0;text-align:start;text-decoration:none;text-decoration-line:none;text-decoration-style:solid;text-decoration-color:#000000;letter-spacing:normal;word-spacing:normal;text-transform:none;writing-mode:lr-tb;direction:ltr;text-orientation:mixed;dominant-baseline:auto;baseline-shift:baseline;text-anchor:start;white-space:normal;shape-padding:0;shape-margin:0;inline-size:0;clip-rule:nonzero;display:inline;overflow:visible;visibility:visible;opacity:0.208;isolation:auto;mix-blend-mode:normal;color-interpolation:sRGB;color-interpolation-filters:linearRGB;solid-color:#000000;solid-opacity:1;vector-effect:none;fill:#000000;fill-opacity:1;fill-rule:nonzero;stroke:none;stroke-width:0.673771;stroke-linecap:round;stroke-linejoin:round;stroke-miterlimit:10;stroke-dasharray:none;stroke-dashoffset:0;stroke-opacity:1;color-rendering:auto;image-rendering:auto;shape-rendering:auto;text-rendering:auto;enable-background:accumulate;stop-color:#000000"
           d="m 28.563221,15.925735 c -6.261443,0 -11.38618,5.123374 -11.38618,11.476262 0,0.413053 0.05211,0.812268 0.09451,1.213666 -3.739386,0.808659 -6.583192,4.309242 -6.583192,8.593296 0,4.871582 3.642595,8.85772 8.139917,8.85772 H 46.270801 A 0.65384963,0.69429819 0 0 0 46.92465,45.372384 0.65384963,0.69429819 0 0 0 46.270801,44.678088 H 18.828267 c -3.77126,0 -6.832217,-3.328717 -6.832217,-7.469129 0,-3.850556 2.650592,-6.994199 6.044279,-7.420313 a 0.65391502,0.69436762 0 0 0 0.568285,-0.804138 c -0.08107,-0.513885 -0.123873,-1.043798 -0.123873,-1.582511 0,-5.559881 4.485625,-10.087665 10.07848,-10.087665 5.282408,0 9.579229,4.04997 10.03889,9.173686 a 0.65384963,0.69429819 0 0 0 0.712594,0.62514 0.65384963,0.69429819 0 0 0 0.58872,-0.756677 C 39.37708,20.489457 34.477332,15.925735 28.563221,15.925735 Z"
           id="path15814" /><path
           id="path994"
           style="color:#000000;font-style:normal;font-variant:normal;font-weight:normal;font-stretch:normal;font-size:medium;line-height:normal;font-family:sans-serif;font-variant-ligatures:normal;font-variant-position:normal;font-variant-caps:normal;font-variant-numeric:normal;font-variant-alternates:normal;font-variant-east-asian:normal;font-feature-settings:normal;font-variation-settings:normal;text-indent:0;text-align:start;text-decoration:none;text-decoration-line:none;text-decoration-style:solid;text-decoration-color:#000000;letter-spacing:normal;word-spacing:normal;text-transform:none;writing-mode:lr-tb;direction:ltr;text-orientation:mixed;dominant-baseline:auto;baseline-shift:baseline;text-anchor:start;white-space:normal;shape-padding:0;shape-margin:0;inline-size:0;clip-rule:nonzero;display:inline;overflow:visible;visibility:visible;isolation:auto;mix-blend-mode:normal;color-interpolation:sRGB;color-interpolation-filters:linearRGB;solid-color:#000000;solid-opacity:1;vector-effect:none;fill:#ffffff;fill-opacity:1;fill-rule:nonzero;stroke:none;stroke-width:0.709041;stroke-linecap:round;stroke-linejoin:round;stroke-miterlimit:10;stroke-dasharray:none;stroke-dashoffset:0;stroke-opacity:1;color-rendering:auto;image-rendering:auto;shape-rendering:auto;text-rendering:auto;enable-background:accumulate;stop-color:#000000"
           d="m 43.188004,25.057822 c 2.56e-4,0.0014 -0.0014,0.0017 -0.0014,0.0028 1.56e-4,0.0031 0.0036,0.0091 0,0.0083 -0.0029,1.1e-5 -0.0063,3.1e-5 -0.0083,0 -6.25e-4,1.4e-5 -0.0036,-1.6e-5 -0.0056,0 0,0 -0.0014,0 -0.0014,0 h -0.0014 -0.0014 c -0.0014,-1.05e-4 -0.0029,6.6e-5 -0.0043,0 -0.0014,-6.5e-5 -0.0036,9.22e-4 -0.0043,0 -7.09e-4,-7.09e-4 0.0014,-0.0018 0.0014,-0.0028 -0.0029,-0.0055 -7.1e-4,-0.0028 -0.0029,-0.0055 -5.38e-4,1e-6 -7.09e-4,4e-6 -0.0014,0 -0.0014,-1.2e-5 -0.0029,3.6e-5 -0.0043,0 -7.1e-4,-9.93e-4 -6.74e-4,0.0059 -0.0014,0.0028 h -0.0014 c -1.41e-4,0.0028 1.07e-4,0.0055 0,0.0083 h -0.0014 c -0.0014,-1.3e-5 -0.0043,10e-6 -0.0056,0 -0.0021,-1.6e-5 -0.0063,0.0021 -0.0071,0 -7.08e-4,-0.0025 -7.08e-4,-0.0055 -0.0014,-0.0083 h -0.0029 -0.0014 c -4.12e-4,0.002 3.48e-4,0.0024 0,0.0041 -3.4e-4,0.0017 8.5e-5,0.0028 0,0.0041 4.04e-4,-0.0014 7.09e-4,-0.0026 0.0014,-0.0041 5.39e-4,5.02e-4 0.0014,-1.98e-4 0.0014,0.0041 0,7.08e-4 -0.0021,-1e-5 -0.0029,0 -3.55e-4,0 -0.01397,5.38e-4 -0.0097,0 -0.0014,4.52e-4 -0.0021,0.0014 -0.0043,0.0014 -0.0014,6.09e-4 -0.0029,7.8e-4 -0.0043,0.0014 -0.0036,0.0016 -0.0071,0.0032 -0.01104,0.0028 -0.0036,0 -0.0075,3e-6 -0.01104,0 -0.0036,-2e-6 -0.0063,-1.1e-5 -0.0097,0 -0.0021,-1.9e-5 -0.0063,-2.29e-4 -0.0083,0 -7.1e-4,7e-5 -0.01047,8.5e-4 -0.0083,0 -0.0021,9.92e-4 -0.0049,0.0035 -0.0071,0.0041 -0.0071,0.0023 -0.0075,0.0014 -0.01383,0.0014 h -0.0056 c -0.0049,0 -0.0092,-3.46e-4 -0.01383,-0.0014 -7.1e-4,-2.06e-4 -0.0021,3.53e-4 -0.0029,0 0,0 0.0014,0.0014 0.0014,0.0014 -5.88e-4,7.08e-4 0.0084,-0.002 -0.0097,0.0028 h -0.01248 -0.01104 -0.02907 -0.0083 c -0.0014,0 -0.0029,1.1e-5 -0.0043,0 0,6.92e-4 -0.0021,0 -0.0029,0 h -0.0071 -0.01248 -0.01104 c -7.08e-4,0 -4.03e-4,-0.0013 -0.0014,-0.0014 -2.473991,0.211471 -4.667514,1.445086 -6.139014,3.308393 -0.242421,0.307472 -0.18971,0.753234 0.117707,0.995704 0.307476,0.242411 0.753236,0.189714 0.995707,-0.117712 1.282448,-1.62392 3.189512,-2.685374 5.345498,-2.808464 4.025924,0.01218 7.802217,3.972694 7.802217,8.155349 6.5e-5,0.353563 0.260573,0.653054 0.610719,0.70212 2.518958,0.350904 4.376105,2.261528 4.376105,4.507662 0,2.483768 -2.276353,4.565837 -5.197316,4.565837 -0.391589,0 -0.70904,0.317445 -0.70904,0.709041 0,0.391589 0.317451,0.70904 0.70904,0.70904 3.605045,0 6.615397,-2.642211 6.615397,-5.983918 0,-2.830859 -2.19499,-5.09652 -5.042221,-5.73879 -0.284984,-4.691074 -4.238076,-8.824524 -8.853306,-9.016725 -0.0014,-5.9e-5 -0.0029,5.6e-5 -0.0043,0 -0.0084,-3.47e-4 -0.01652,-0.0025 -0.02496,-0.0028 -0.0036,-1.41e-4 -0.0074,1.35e-4 -0.01104,0 h -0.0083 -0.0014 -0.0071 -0.0043 c 0,0 -0.0014,0 -0.0014,0 h -0.0014 c -0.0021,3e-6 -0.0036,4e-6 -0.0056,0 h -0.0014 c -0.0014,1e-6 -0.01035,-1.49e-4 -0.0056,0 -7.09e-4,3.6e-5 -0.0021,-10e-5 -0.0029,0 -7.09e-4,1.01e-4 -0.0021,-6.6e-5 -0.0029,0 -6.03e-4,2.8e-5 -7.1e-4,0 -0.0014,0 -7.08e-4,1.07e-4 -0.0021,7.7e-5 -0.0029,0 h -0.0014 -0.0014 -0.0014 c -7.1e-4,8.8e-5 -0.0014,0.0028 -0.0029,0.0028 h -0.0097 c -0.0021,0 -0.0049,1.3e-5 -0.0071,0 -0.0049,-8e-6 -0.0089,-9e-5 -0.01383,0 -0.0029,-1.71e-4 -0.0049,-6.06e-4 -0.0071,0 -0.0029,-0.0011 -0.0056,-0.0016 -0.0083,-0.0028 -0.0029,-4e-6 -0.0056,4e-6 -0.0083,0 -5.67e-4,7e-6 -7.09e-4,-1.5e-5 -0.0014,0 -0.0014,-2.6e-5 -0.0036,2e-5 -0.0056,0 2.13e-4,-1.64e-4 -7.08e-4,7.7e-5 -0.0014,0 -7.09e-4,1.08e-4 -0.0029,9.21e-4 -0.0029,0 -2.76e-4,-0.0011 -0.0014,8.51e-4 -0.0014,0 -0.0043,0.0021 -0.01104,-1.83e-4 -0.01524,-0.0014 -0.0014,-2.98e-4 -0.0021,-9.93e-4 -0.0029,-0.0014 h -0.0043 -0.0043 -0.0083 -0.0014 -0.0097 -0.0029 -0.0056 -0.0029 -0.0097 c -0.0014,-1.2e-5 -0.0021,-6.6e-5 -0.0029,0 h -0.0043 -0.0071 -0.0083 -0.0056 -0.0056 -0.0071 -0.01104 -0.0083 -0.0043 c -0.0029,0 -0.0049,1e-6 -0.0071,0 -0.0076,-6e-6 -0.01461,-1.4e-5 -0.02212,0 -3.56e-4,0 -0.01546,8.5e-4 -0.0083,0 -0.0072,0.0011 -0.01354,6.45e-4 -0.02078,0 0.0036,-0.0015 6e-6,-0.0022 0.0014,-0.0028 -0.0021,0.0011 -0.0043,0.0055 -0.0083,0.0055 0,0 -0.0014,0 -0.0014,0 -0.0029,7.8e-5 -3.68e-4,-0.0044 0,-0.0083 6.4e-5,-6.5e-4 9.3e-5,-7.8e-4 0,-0.0014 -1.98e-4,-6.21e-4 1.27e-4,-8.5e-4 0,-0.0014 z m -0.123252,0.01938 c 0.0029,-9.93e-4 0.0043,-0.0032 0.0071,-0.0041 3.69e-4,-0.0011 0.0014,-0.0016 0.0014,-0.0028 -0.0056,0.0069 -0.01104,0.01165 -0.01936,0.0083 0.0036,-5.68e-4 0.0075,-9.93e-4 0.01104,-0.0014 z" /><path
           style="color:#000000;font-style:normal;font-variant:normal;font-weight:normal;font-stretch:normal;font-size:medium;line-height:normal;font-family:sans-serif;font-variant-ligatures:normal;font-variant-position:normal;font-variant-caps:normal;font-variant-numeric:normal;font-variant-alternates:normal;font-variant-east-asian:normal;font-feature-settings:normal;font-variation-settings:normal;text-indent:0;text-align:start;text-decoration:none;text-decoration-line:none;text-decoration-style:solid;text-decoration-color:#000000;letter-spacing:normal;word-spacing:normal;text-transform:none;writing-mode:lr-tb;direction:ltr;text-orientation:mixed;dominant-baseline:auto;baseline-shift:baseline;text-anchor:start;white-space:normal;shape-padding:0;shape-margin:0;inline-size:0;clip-rule:nonzero;display:inline;overflow:visible;visibility:visible;isolation:auto;mix-blend-mode:normal;color-interpolation:sRGB;color-interpolation-filters:linearRGB;solid-color:#000000;solid-opacity:1;vector-effect:none;fill:#ffffff;fill-opacity:1;fill-rule:nonzero;stroke:none;stroke-width:0.672481;stroke-linecap:round;stroke-linejoin:round;stroke-miterlimit:10;stroke-dasharray:none;stroke-dashoffset:0;stroke-opacity:1;color-rendering:auto;image-rendering:auto;shape-rendering:auto;text-rendering:auto;enable-background:accumulate;stop-color:#000000"
           d="m 28.157096,16.024556 c -6.313479,0 -11.480808,5.061714 -11.480808,11.338146 0,0.408082 0.05255,0.802492 0.09529,1.199059 -3.770464,0.798927 -6.637903,4.257382 -6.637903,8.489879 0,4.812952 3.672867,8.751119 8.207566,8.751119 H 46.011837 A 0.65928365,0.68594245 0 0 0 46.67112,45.11682 0.65928365,0.68594245 0 0 0 46.011837,44.430879 h -27.6706 c -3.802602,0 -6.888998,-3.288657 -6.888998,-7.379239 0,-3.804216 2.672621,-6.910026 6.094511,-7.331011 a 0.65934958,0.68601104 0 0 0 0.57301,-0.79446 c -0.08174,-0.507701 -0.124904,-1.031237 -0.124904,-1.563467 0,-5.492968 4.522905,-9.966262 10.16224,-9.966263 5.32631,0 9.658841,4.001231 10.122321,9.063284 a 0.65928365,0.68594245 0 0 0 0.718516,0.617616 0.65928365,0.68594245 0 0 0 0.593614,-0.74757 C 39.060828,20.533353 34.120358,16.024556 28.157096,16.024556 Z"
           id="path996" /></g></g></g></svg>
