<?xml version="1.0" encoding="UTF-8" standalone="no"?>
<svg
   xmlns:dc="http://purl.org/dc/elements/1.1/"
   xmlns:cc="http://creativecommons.org/ns#"
   xmlns:rdf="http://www.w3.org/1999/02/22-rdf-syntax-ns#"
   xmlns:svg="http://www.w3.org/2000/svg"
   xmlns="http://www.w3.org/2000/svg"
   xmlns:sodipodi="http://sodipodi.sourceforge.net/DTD/sodipodi-0.dtd"
   xmlns:inkscape="http://www.inkscape.org/namespaces/inkscape"
   enable-background="new 0 0 64 64"
   height="297mm"
   id="Layer_1"
   version="1.1"
   viewBox="0 0 793.70079 1122.5197"
   width="210mm"
   xml:space="preserve"
   sodipodi:docname="broken clouds.svg"
   inkscape:version="1.0.2 (e86c8708, 2021-01-15)"><metadata
     id="metadata12060"><rdf:RDF><cc:Work
         rdf:about=""><dc:format>image/svg+xml</dc:format><dc:type
           rdf:resource="http://purl.org/dc/dcmitype/StillImage" /><dc:title></dc:title></cc:Work></rdf:RDF></metadata><defs
     id="defs12058"><filter
       inkscape:collect="always"
       style="color-interpolation-filters:sRGB"
       id="filter15762"
       x="-0.021671647"
       width="1.0433433"
       y="-0.035802722"
       height="1.0716054"><feGaussianBlur
         inkscape:collect="always"
         stdDeviation="0.70112508"
         id="feGaussianBlur15764" /></filter><filter
       inkscape:collect="always"
       style="color-interpolation-filters:sRGB"
       id="filter15818"
       x="-0.070216142"
       width="1.1404324"
       y="-0.11600082"
       height="1.2320015"><feGaussianBlur
         inkscape:collect="always"
         stdDeviation="2.2716453"
         id="feGaussianBlur15820" /></filter><filter
       inkscape:collect="always"
       style="color-interpolation-filters:sRGB"
       id="filter15822"
       x="-0.038527373"
       width="1.0770547"
       y="-0.063649282"
       height="1.1272986"><feGaussianBlur
         inkscape:collect="always"
         stdDeviation="1.2464446"
         id="feGaussianBlur15824" /></filter></defs><sodipodi:namedview
     pagecolor="#080808"
     bordercolor="#666666"
     borderopacity="1"
     objecttolerance="10"
     gridtolerance="10"
     guidetolerance="10"
     inkscape:pageopacity="0"
     inkscape:pageshadow="2"
     inkscape:window-width="1677"
     inkscape:window-height="991"
     id="namedview12056"
     showgrid="false"
     showborder="true"
     inkscape:zoom="1"
     inkscape:cx="508.00811"
     inkscape:cy="644.12286"
     inkscape:window-x="262"
     inkscape:window-y="72"
     inkscape:window-maximized="0"
     inkscape:current-layer="Layer_1"
     inkscape:document-rotation="0"
     units="mm" /><path
     style="color:#000000;font-style:normal;font-variant:normal;font-weight:normal;font-stretch:normal;font-size:medium;line-height:normal;font-family:sans-serif;font-variant-ligatures:normal;font-variant-position:normal;font-variant-caps:normal;font-variant-numeric:normal;font-variant-alternates:normal;font-variant-east-asian:normal;font-feature-settings:normal;font-variation-settings:normal;text-indent:0;text-align:start;text-decoration:none;text-decoration-line:none;text-decoration-style:solid;text-decoration-color:#000000;letter-spacing:normal;word-spacing:normal;text-transform:none;writing-mode:lr-tb;direction:ltr;text-orientation:mixed;dominant-baseline:auto;baseline-shift:baseline;text-anchor:start;white-space:normal;shape-padding:0;shape-margin:0;inline-size:0;clip-rule:nonzero;display:inline;overflow:visible;visibility:visible;isolation:auto;mix-blend-mode:normal;color-interpolation:sRGB;color-interpolation-filters:linearRGB;solid-color:#000000;solid-opacity:1;vector-effect:none;fill:#ffffff;fill-opacity:1;fill-rule:nonzero;stroke:none;stroke-width:0.948438;stroke-linecap:round;stroke-linejoin:round;stroke-miterlimit:10;stroke-dasharray:none;stroke-dashoffset:0;stroke-opacity:1;color-rendering:auto;image-rendering:auto;shape-rendering:auto;text-rendering:auto;enable-background:accumulate;stop-color:#000000"
     d="m -659.17853,-344.6314 c -8.90425,0 -16.19203,7.13883 -16.19203,15.99083 0,0.57555 0.0741,1.1318 0.13439,1.69111 -5.3177,1.12677 -9.36181,6.00442 -9.36181,11.97375 0,6.78798 5.18005,12.3422 11.57559,12.3422 h 39.02542 a 0.9298251,0.96742352 0 0 0 0.92982,-0.96742 0.9298251,0.96742352 0 0 0 -0.92982,-0.96742 h -39.02542 c -5.36302,0 -9.71594,-4.63818 -9.71594,-10.40736 0,-5.36529 3.76935,-9.7456 8.59543,-10.33934 a 0.92991808,0.96752026 0 0 0 0.80815,-1.12047 c -0.11528,-0.71604 -0.17616,-1.45441 -0.17616,-2.20505 0,-7.74704 6.37891,-14.05598 14.33238,-14.05598 7.512,0 13.62242,5.64316 14.27609,12.78246 a 0.9298251,0.96742352 0 0 0 1.01336,0.87106 0.9298251,0.96742352 0 0 0 0.83721,-1.05434 c -0.7485,-8.17501 -7.71633,-14.53403 -16.12666,-14.53403 z"
     id="path15683" /><path
     id="path15685"
     style="color:#000000;font-style:normal;font-variant:normal;font-weight:normal;font-stretch:normal;font-size:medium;line-height:normal;font-family:sans-serif;font-variant-ligatures:normal;font-variant-position:normal;font-variant-caps:normal;font-variant-numeric:normal;font-variant-alternates:normal;font-variant-east-asian:normal;font-feature-settings:normal;font-variation-settings:normal;text-indent:0;text-align:start;text-decoration:none;text-decoration-line:none;text-decoration-style:solid;text-decoration-color:#000000;letter-spacing:normal;word-spacing:normal;text-transform:none;writing-mode:lr-tb;direction:ltr;text-orientation:mixed;dominant-baseline:auto;baseline-shift:baseline;text-anchor:start;white-space:normal;shape-padding:0;shape-margin:0;inline-size:0;clip-rule:nonzero;display:inline;overflow:visible;visibility:visible;isolation:auto;mix-blend-mode:normal;color-interpolation:sRGB;color-interpolation-filters:linearRGB;solid-color:#000000;solid-opacity:1;vector-effect:none;fill:#ffffff;fill-opacity:1;fill-rule:nonzero;stroke:none;stroke-linecap:round;stroke-linejoin:round;stroke-miterlimit:10;stroke-dasharray:none;stroke-dashoffset:0;stroke-opacity:1;color-rendering:auto;image-rendering:auto;shape-rendering:auto;text-rendering:auto;enable-background:accumulate;stop-color:#000000"
     d="m -619.29842,-336.6348 c 3.6e-4,0.002 -0.002,0.002 -0.002,0.004 2.2e-4,0.004 0.005,0.0128 0,0.0117 -0.004,10e-6 -0.009,4e-5 -0.0117,0 -8.8e-4,2e-5 -0.005,-3e-5 -0.008,0 0,0 -0.002,0 -0.002,0 h -0.002 -0.002 c -0.002,-1.5e-4 -0.004,9e-5 -0.006,0 -0.002,-9e-5 -0.005,10e-4 -0.006,0 -10e-4,-10e-4 0.002,-0.003 0.002,-0.004 -0.004,-0.008 -10e-4,-0.004 -0.004,-0.008 -7.6e-4,0 -0.001,0 -0.002,0 -0.002,-2e-5 -0.004,5e-5 -0.006,0 -10e-4,-10e-4 -9.5e-4,0.008 -0.002,0.004 h -0.002 c -2e-4,0.004 1.5e-4,0.008 0,0.0117 h -0.002 c -0.002,-2e-5 -0.006,1e-5 -0.008,0 -0.003,-3e-5 -0.009,0.003 -0.01,0 -10e-4,-0.004 -10e-4,-0.008 -0.002,-0.0117 h -0.004 -0.002 c -5.8e-4,0.003 4.9e-4,0.003 0,0.006 -4.8e-4,0.002 1.2e-4,0.004 0,0.006 5.7e-4,-0.002 0.001,-0.004 0.002,-0.006 7.6e-4,7e-4 0.002,-2.8e-4 0.002,0.006 0,10e-4 -0.003,-1e-5 -0.004,0 -5e-4,0 -0.0197,7.6e-4 -0.0137,0 -0.002,6.4e-4 -0.003,0.002 -0.006,0.002 -0.002,8.6e-4 -0.004,10e-4 -0.006,0.002 -0.005,0.002 -0.01,0.005 -0.0156,0.004 -0.005,0 -0.0106,0 -0.0156,0 -0.005,0 -0.009,-2e-5 -0.0137,0 -0.003,-3e-5 -0.009,-3.3e-4 -0.0117,0 -0.001,10e-5 -0.0147,10e-4 -0.0117,0 -0.003,10e-4 -0.007,0.005 -0.01,0.006 -0.01,0.003 -0.0105,0.002 -0.0195,0.002 h -0.008 c -0.007,0 -0.013,-4.9e-4 -0.0195,-0.002 -10e-4,-2.9e-4 -0.003,4.9e-4 -0.004,0 0,0 0.002,0.002 0.002,0.002 -8.3e-4,0.001 0.0118,-0.003 -0.0137,0.004 h -0.0176 -0.0156 -0.041 -0.0117 c -0.002,0 -0.004,10e-6 -0.006,0 0,9.7e-4 -0.003,0 -0.004,0 h -0.01 -0.0176 -0.0156 c -10e-4,0 -5.7e-4,-0.002 -0.002,-0.002 -3.48921,0.29825 -6.58286,2.03808 -8.6582,4.66601 -0.3419,0.43365 -0.26756,1.06233 0.16601,1.4043 0.43365,0.34189 1.06233,0.26756 1.4043,-0.16602 1.80871,-2.2903 4.49835,-3.78733 7.53906,-3.96093 5.67799,0.0172 11.00391,5.60291 11.00391,11.50195 9e-5,0.49865 0.3675,0.92104 0.86133,0.99023 3.55263,0.49491 6.17187,3.18958 6.17187,6.35743 0,3.503 -3.21047,6.43945 -7.33007,6.43945 -0.55228,0 -1,0.44771 -1,1 0,0.55228 0.44772,1 1,1 5.0844,0 9.33007,-3.72646 9.33007,-8.43945 0,-3.99253 -3.09572,-7.18792 -7.11133,-8.09375 -0.40193,-6.61609 -5.9772,-12.44573 -12.48632,-12.7168 -0.002,-8e-5 -0.004,8e-5 -0.006,0 -0.0119,-4.9e-4 -0.0233,-0.003 -0.0352,-0.004 -0.005,-2e-4 -0.0104,1.9e-4 -0.0156,0 h -0.0117 -0.002 -0.01 -0.006 c 0,0 -0.002,0 -0.002,0 h -0.002 c -0.003,0 -0.005,10e-6 -0.008,0 h -0.002 c -0.002,0 -0.0146,-2.1e-4 -0.008,0 -10e-4,5e-5 -0.003,-1.4e-4 -0.004,0 -10e-4,1.4e-4 -0.003,-9e-5 -0.004,0 -8.5e-4,4e-5 -0.001,0 -0.002,0 -10e-4,1.5e-4 -0.003,1.1e-4 -0.004,0 h -0.002 -0.002 -0.002 c -10e-4,1.2e-4 -0.002,0.004 -0.004,0.004 h -0.0137 c -0.003,0 -0.007,2e-5 -0.01,0 -0.007,-10e-6 -0.0125,-1.3e-4 -0.0195,0 -0.004,-2.4e-4 -0.007,-8.5e-4 -0.01,0 -0.004,-0.002 -0.008,-0.002 -0.0117,-0.004 -0.004,-1e-5 -0.008,10e-6 -0.0117,0 -8e-4,10e-6 -10e-4,-2e-5 -0.002,0 -0.002,-4e-5 -0.005,3e-5 -0.008,0 3e-4,-2.3e-4 -10e-4,1.1e-4 -0.002,0 -0.001,1.5e-4 -0.004,10e-4 -0.004,0 -3.9e-4,-0.002 -0.002,10e-4 -0.002,0 -0.006,0.003 -0.0155,-2.6e-4 -0.0215,-0.002 -0.002,-4.2e-4 -0.003,-0.001 -0.004,-0.002 h -0.006 -0.006 -0.0117 -0.002 -0.0137 -0.004 -0.008 -0.004 -0.0137 c -0.002,-2e-5 -0.003,-9e-5 -0.004,0 h -0.006 -0.01 -0.0117 -0.008 -0.008 -0.01 -0.0156 -0.0117 -0.006 c -0.004,0 -0.007,0 -0.01,0 -0.0107,-10e-6 -0.0206,-2e-5 -0.0312,0 -5e-4,0 -0.0218,10e-4 -0.0117,0 -0.0102,0.002 -0.0191,9.1e-4 -0.0293,0 0.005,-0.002 10e-6,-0.003 0.002,-0.004 -0.003,0.002 -0.006,0.008 -0.0117,0.008 0,0 -0.002,0 -0.002,0 -0.004,1.1e-4 -5.2e-4,-0.006 0,-0.0117 9e-5,-9.2e-4 1.3e-4,-10e-4 0,-0.002 -2.8e-4,-8.8e-4 1.8e-4,-10e-4 0,-0.002 z m -0.17383,0.0273 c 0.004,-10e-4 0.006,-0.005 0.01,-0.006 5.2e-4,-0.002 0.002,-0.002 0.002,-0.004 -0.008,0.01 -0.0156,0.0164 -0.0273,0.0117 0.005,-8e-4 0.0106,-0.001 0.0156,-0.002 z" /><path
     style="color:#000000;font-style:normal;font-variant:normal;font-weight:normal;font-stretch:normal;font-size:medium;line-height:normal;font-family:sans-serif;font-variant-ligatures:normal;font-variant-position:normal;font-variant-caps:normal;font-variant-numeric:normal;font-variant-alternates:normal;font-variant-east-asian:normal;font-feature-settings:normal;font-variation-settings:normal;text-indent:0;text-align:start;text-decoration:none;text-decoration-line:none;text-decoration-style:solid;text-decoration-color:#000000;letter-spacing:normal;word-spacing:normal;text-transform:none;writing-mode:lr-tb;direction:ltr;text-orientation:mixed;dominant-baseline:auto;baseline-shift:baseline;text-anchor:start;white-space:normal;shape-padding:0;shape-margin:0;inline-size:0;clip-rule:nonzero;display:inline;overflow:visible;visibility:visible;isolation:auto;mix-blend-mode:normal;color-interpolation:sRGB;color-interpolation-filters:linearRGB;solid-color:#000000;solid-opacity:1;vector-effect:none;fill:#ffffff;fill-opacity:1;fill-rule:nonzero;stroke:none;stroke-linecap:round;stroke-linejoin:round;stroke-miterlimit:10;stroke-dasharray:none;stroke-dashoffset:0;stroke-opacity:1;color-rendering:auto;image-rendering:auto;shape-rendering:auto;text-rendering:auto;enable-background:accumulate;stop-color:#000000"
     d="m -672.69883,-353.3389 c -8.30143,0 -15.10156,6.40474 -15.10156,14.34571 0,0.47645 0.0674,0.93652 0.11523,1.40234 -4.91676,1.06203 -8.64258,5.41204 -8.64258,10.73242 0,6.10333 4.84692,11.09961 10.83594,11.09961 h 0.79688 a 1,1 0 0 0 1,-1 1,1 0 0 0 -1,-1 h -0.79688 c -4.87898,0 -8.83594,-4.04894 -8.83594,-9.09961 0,-4.69493 3.4296,-8.52608 7.81641,-9.04297 a 1.0001,1.0001 0 0 0 0.86914,-1.1582 c -0.1048,-0.62697 -0.1582,-1.27468 -0.1582,-1.93359 0,-6.79904 5.82298,-12.34571 13.10156,-12.34571 3.88676,0 7.36187,1.59187 9.75586,4.10547 a 1,1 0 0 0 1.41406,0.0332 1,1 0 0 0 0.0352,-1.41406 c -2.77001,-2.9084 -6.77184,-4.72461 -11.20508,-4.72461 z"
     id="path15695" /><g
     id="g63"
     transform="matrix(8.5191716,0,0,8.5191716,360.34309,3.5615296)"><g
       id="g15724"
       transform="translate(-26.092873,-32.646476)"
       style="fill:#0fffff;fill-opacity:1;stroke:#0fffff;stroke-width:4.3;stroke-linecap:round;stroke-linejoin:round;stroke-miterlimit:4;stroke-dasharray:none;stroke-opacity:1;filter:url(#filter15818)"><path
         style="color:#000000;font-style:normal;font-variant:normal;font-weight:normal;font-stretch:normal;font-size:medium;line-height:normal;font-family:sans-serif;font-variant-ligatures:normal;font-variant-position:normal;font-variant-caps:normal;font-variant-numeric:normal;font-variant-alternates:normal;font-variant-east-asian:normal;font-feature-settings:normal;font-variation-settings:normal;text-indent:0;text-align:start;text-decoration:none;text-decoration-line:none;text-decoration-style:solid;text-decoration-color:#000000;letter-spacing:normal;word-spacing:normal;text-transform:none;writing-mode:lr-tb;direction:ltr;text-orientation:mixed;dominant-baseline:auto;baseline-shift:baseline;text-anchor:start;white-space:normal;shape-padding:0;shape-margin:0;inline-size:0;clip-rule:nonzero;display:inline;overflow:visible;visibility:visible;isolation:auto;mix-blend-mode:normal;color-interpolation:sRGB;color-interpolation-filters:linearRGB;solid-color:#000000;solid-opacity:1;vector-effect:none;fill:#0fffff;fill-opacity:1;fill-rule:nonzero;stroke:#0fffff;stroke-width:4.3;stroke-linecap:round;stroke-linejoin:round;stroke-miterlimit:4;stroke-dasharray:none;stroke-dashoffset:0;stroke-opacity:1;color-rendering:auto;image-rendering:auto;shape-rendering:auto;text-rendering:auto;enable-background:accumulate;stop-color:#000000"
         d="m 14.653407,73.537525 c -8.3014249,0 -15.10156147,6.404739 -15.10156157,14.345703 0,0.476458 0.067401,0.936528 0.11523439,1.402343 -4.91676562,1.062034 -8.64257862,5.412039 -8.64257862,10.732419 0,6.10334 4.8469138,11.09962 10.835938,11.09962 h 0.796875 a 1,1 0 0 0 1,-1 1,1 0 0 0 -1,-1 h -0.796875 c -4.8789764,0 -8.835938,-4.04894 -8.835938,-9.09962 0,-4.694932 3.4295949,-8.52608 7.81640681,-9.042965 A 1.0001,1.0001 0 0 0 1.7100486,89.816821 C 1.6052481,89.189857 1.5518454,88.542139 1.5518454,87.883228 c 0,-6.799037 5.8229864,-12.345703 13.1015616,-12.345703 3.886763,0 7.361868,1.59187 9.755859,4.105468 a 1,1 0 0 0 1.414063,0.0332 1,1 0 0 0 0.03516,-1.414062 C 23.088476,75.353732 19.086644,73.537525 14.653407,73.537525 Z"
         id="path15718" /><path
         id="path15720"
         style="color:#000000;font-style:normal;font-variant:normal;font-weight:normal;font-stretch:normal;font-size:medium;line-height:normal;font-family:sans-serif;font-variant-ligatures:normal;font-variant-position:normal;font-variant-caps:normal;font-variant-numeric:normal;font-variant-alternates:normal;font-variant-east-asian:normal;font-feature-settings:normal;font-variation-settings:normal;text-indent:0;text-align:start;text-decoration:none;text-decoration-line:none;text-decoration-style:solid;text-decoration-color:#000000;letter-spacing:normal;word-spacing:normal;text-transform:none;writing-mode:lr-tb;direction:ltr;text-orientation:mixed;dominant-baseline:auto;baseline-shift:baseline;text-anchor:start;white-space:normal;shape-padding:0;shape-margin:0;inline-size:0;clip-rule:nonzero;display:inline;overflow:visible;visibility:visible;isolation:auto;mix-blend-mode:normal;color-interpolation:sRGB;color-interpolation-filters:linearRGB;solid-color:#000000;solid-opacity:1;vector-effect:none;fill:#0fffff;fill-opacity:1;fill-rule:nonzero;stroke:#0fffff;stroke-width:4.3;stroke-linecap:round;stroke-linejoin:round;stroke-miterlimit:4;stroke-dasharray:none;stroke-dashoffset:0;stroke-opacity:1;color-rendering:auto;image-rendering:auto;shape-rendering:auto;text-rendering:auto;enable-background:accumulate;stop-color:#000000"
         d="m 48.570955,91.267009 c 3.6e-4,0.0019 -0.002,0.0024 -0.002,0.0039 2.2e-4,0.0044 0.005,0.01285 0,0.01172 -0.004,1.5e-5 -0.009,4.3e-5 -0.0117,0 -8.8e-4,1.9e-5 -0.005,-2.4e-5 -0.008,0 0,0 -0.002,0 -0.002,0 h -0.002 -0.002 c -0.002,-1.49e-4 -0.004,9.4e-5 -0.006,0 -0.002,-9.2e-5 -0.005,0.0013 -0.006,0 -0.001,-0.001 0.002,-0.0026 0.002,-0.0039 -0.004,-0.0078 -10e-4,-0.0039 -0.004,-0.0078 -7.6e-4,2e-6 -10e-4,6e-6 -0.002,0 -0.002,-1.6e-5 -0.004,5e-5 -0.006,0 -10e-4,-0.0014 -9.5e-4,0.0083 -0.002,0.0039 h -0.002 c -2e-4,0.0039 1.5e-4,0.0078 0,0.01172 h -0.002 c -0.002,-1.8e-5 -0.006,1.4e-5 -0.008,0 -0.003,-2.3e-5 -0.009,0.003 -0.01,0 -0.001,-0.0036 -0.001,-0.0078 -0.002,-0.01172 h -0.004 -0.002 c -5.8e-4,0.0027 4.9e-4,0.0034 0,0.0059 -4.8e-4,0.0025 1.2e-4,0.0039 0,0.0059 5.7e-4,-0.002 10e-4,-0.0038 0.002,-0.0059 7.6e-4,7.07e-4 0.002,-2.79e-4 0.002,0.0059 0,10e-4 -0.003,-1.2e-5 -0.004,0 -5e-4,0 -0.0197,7.59e-4 -0.0137,0 -0.002,6.38e-4 -0.003,0.002 -0.006,0.002 -0.002,8.58e-4 -0.004,0.0011 -0.006,0.002 -0.005,0.0023 -0.01,0.0045 -0.0156,0.0039 -0.005,0 -0.0106,5e-6 -0.0156,0 -0.005,-2e-6 -0.009,-1.4e-5 -0.0137,0 -0.003,-2.6e-5 -0.009,-3.23e-4 -0.0117,0 -0.001,1e-4 -0.0147,0.0012 -0.0117,0 -0.003,0.0014 -0.007,0.0049 -0.01,0.0059 -0.01,0.0033 -0.0105,0.002 -0.0195,0.002 h -0.008 c -0.007,0 -0.013,-4.86e-4 -0.0195,-0.002 -10e-4,-2.91e-4 -0.003,4.97e-4 -0.004,0 0,0 0.002,0.002 0.002,0.002 -8.3e-4,10e-4 0.0118,-0.0028 -0.0137,0.0039 h -0.0176 -0.0156 -0.041 -0.0117 c -0.002,0 -0.004,1.5e-5 -0.006,0 0,9.76e-4 -0.003,0 -0.004,0 h -0.01 -0.0176 -0.0156 c -0.001,0 -5.7e-4,-0.0018 -0.002,-0.002 -3.48921,0.298249 -6.58286,2.038087 -8.6582,4.666015 -0.3419,0.433645 -0.26756,1.062327 0.16601,1.404297 0.43365,0.341886 1.06233,0.267565 1.4043,-0.166016 1.80871,-2.290306 4.49835,-3.787335 7.53906,-3.960937 5.67799,0.01719 11.00391,5.602916 11.00391,11.501952 9e-5,0.49865 0.3675,0.92104 0.86133,0.99024 3.55263,0.4949 6.17187,3.18956 6.17187,6.35741 0,3.503 -3.21047,6.43946 -7.33007,6.43946 -0.55228,0 -1,0.44771 -1,1 0,0.55228 0.44772,1 1,1 5.0844,0 9.33007,-3.72646 9.33007,-8.43946 0,-3.99252 -3.09572,-7.18791 -7.11133,-8.09374 -0.40193,-6.616087 -5.9772,-12.445726 -12.48632,-12.716799 -0.002,-8.2e-5 -0.004,7.9e-5 -0.006,0 -0.0119,-4.88e-4 -0.0233,-0.0035 -0.0352,-0.0039 -0.005,-1.98e-4 -0.0104,1.91e-4 -0.0156,0 h -0.0117 -0.002 -0.01 -0.006 c 0,0 -0.002,0 -0.002,0 h -0.002 c -0.003,4e-6 -0.005,6e-6 -0.008,0 h -0.002 c -0.002,1e-6 -0.0146,-2.09e-4 -0.008,0 -0.001,5.2e-5 -0.003,-1.42e-4 -0.004,0 -10e-4,1.43e-4 -0.003,-9.3e-5 -0.004,0 -8.5e-4,4.1e-5 -10e-4,0 -0.002,0 -10e-4,1.51e-4 -0.003,1.09e-4 -0.004,0 h -0.002 -0.002 -0.002 c -10e-4,1.25e-4 -0.002,0.0039 -0.004,0.0039 h -0.0137 c -0.003,0 -0.007,1.9e-5 -0.01,0 -0.007,-1.2e-5 -0.0125,-1.27e-4 -0.0195,0 -0.004,-2.4e-4 -0.007,-8.54e-4 -0.01,0 -0.004,-0.0016 -0.008,-0.0023 -0.0117,-0.0039 -0.004,-5e-6 -0.008,6e-6 -0.0117,0 -8e-4,1e-5 -0.001,-2.2e-5 -0.002,0 -0.002,-3.6e-5 -0.005,2.9e-5 -0.008,0 3e-4,-2.31e-4 -10e-4,1.08e-4 -0.002,0 -0.001,1.52e-4 -0.004,0.0013 -0.004,0 -3.9e-4,-0.0015 -0.002,0.0012 -0.002,0 -0.006,0.0029 -0.0155,-2.59e-4 -0.0215,-0.002 -0.002,-4.2e-4 -0.003,-0.0014 -0.004,-0.002 h -0.006 -0.006 -0.0117 -0.002 -0.0137 -0.004 -0.008 -0.004 -0.0137 c -0.002,-1.6e-5 -0.003,-9.3e-5 -0.004,0 h -0.006 -0.01 -0.0117 -0.008 -0.008 -0.01 -0.0156 -0.0117 -0.006 c -0.004,0 -0.007,2e-6 -0.01,0 -0.0107,-8e-6 -0.0206,-1.9e-5 -0.0312,0 -5e-4,0 -0.0218,0.0012 -0.0117,0 -0.0102,0.0017 -0.0191,9.1e-4 -0.0293,0 0.005,-0.0021 1e-5,-0.0031 0.002,-0.0039 -0.003,0.0015 -0.006,0.0078 -0.0117,0.0078 0,0 -0.002,0 -0.002,0 -0.004,1.11e-4 -5.2e-4,-0.0062 0,-0.01172 9e-5,-9.16e-4 1.3e-4,-0.0011 0,-0.002 -2.8e-4,-8.76e-4 1.8e-4,-0.0012 0,-0.002 z m -0.17383,0.02734 c 0.004,-0.0014 0.006,-0.0045 0.01,-0.0059 5.2e-4,-0.0015 0.002,-0.0023 0.002,-0.0039 -0.008,0.0098 -0.0156,0.01643 -0.0273,0.01172 0.005,-8e-4 0.0106,-0.0014 0.0156,-0.002 z" /><path
         style="color:#000000;font-style:normal;font-variant:normal;font-weight:normal;font-stretch:normal;font-size:medium;line-height:normal;font-family:sans-serif;font-variant-ligatures:normal;font-variant-position:normal;font-variant-caps:normal;font-variant-numeric:normal;font-variant-alternates:normal;font-variant-east-asian:normal;font-feature-settings:normal;font-variation-settings:normal;text-indent:0;text-align:start;text-decoration:none;text-decoration-line:none;text-decoration-style:solid;text-decoration-color:#000000;letter-spacing:normal;word-spacing:normal;text-transform:none;writing-mode:lr-tb;direction:ltr;text-orientation:mixed;dominant-baseline:auto;baseline-shift:baseline;text-anchor:start;white-space:normal;shape-padding:0;shape-margin:0;inline-size:0;clip-rule:nonzero;display:inline;overflow:visible;visibility:visible;isolation:auto;mix-blend-mode:normal;color-interpolation:sRGB;color-interpolation-filters:linearRGB;solid-color:#000000;solid-opacity:1;vector-effect:none;fill:#0fffff;fill-opacity:1;fill-rule:nonzero;stroke:#0fffff;stroke-width:4.3;stroke-linecap:round;stroke-linejoin:round;stroke-miterlimit:4;stroke-dasharray:none;stroke-dashoffset:0;stroke-opacity:1;color-rendering:auto;image-rendering:auto;shape-rendering:auto;text-rendering:auto;enable-background:accumulate;stop-color:#000000"
         d="m 27.372013,78.526881 c -8.904257,0 -16.192033,7.138824 -16.192033,15.990831 0,0.575541 0.07411,1.1318 0.134388,1.691102 -5.3176988,1.126772 -9.3618118,6.004426 -9.3618118,11.973756 0,6.78798 5.180053,12.3422 11.5755958,12.3422 h 39.025413 a 0.9298251,0.96742352 0 0 0 0.929825,-0.96742 0.9298251,0.96742352 0 0 0 -0.929825,-0.96742 H 13.528152 c -5.3630258,0 -9.7159458,-4.63818 -9.7159458,-10.40736 0,-5.3653 3.769349,-9.745601 8.5954348,-10.33934 a 0.92991808,0.96752026 0 0 0 0.808148,-1.120473 c -0.11528,-0.716039 -0.176159,-1.45441 -0.176159,-2.205045 0,-7.747045 6.37891,-14.055984 14.332383,-14.055985 7.511997,0 13.622411,5.643162 14.276084,12.782462 a 0.9298251,0.96742352 0 0 0 1.013364,0.871059 0.9298251,0.96742352 0 0 0 0.837207,-1.05434 C 42.750164,84.885894 35.782341,78.526881 27.372013,78.526881 Z"
         id="path15722" /></g><g
       id="g15716"
       transform="translate(-26.09287,-32.646479)"
       style="fill:#68f3f3;fill-opacity:1;stroke:#68f3f3;stroke-width:2.5;stroke-linecap:round;stroke-linejoin:round;stroke-miterlimit:4;stroke-dasharray:none;stroke-opacity:1;filter:url(#filter15822)"><path
         style="color:#000000;font-style:normal;font-variant:normal;font-weight:normal;font-stretch:normal;font-size:medium;line-height:normal;font-family:sans-serif;font-variant-ligatures:normal;font-variant-position:normal;font-variant-caps:normal;font-variant-numeric:normal;font-variant-alternates:normal;font-variant-east-asian:normal;font-feature-settings:normal;font-variation-settings:normal;text-indent:0;text-align:start;text-decoration:none;text-decoration-line:none;text-decoration-style:solid;text-decoration-color:#000000;letter-spacing:normal;word-spacing:normal;text-transform:none;writing-mode:lr-tb;direction:ltr;text-orientation:mixed;dominant-baseline:auto;baseline-shift:baseline;text-anchor:start;white-space:normal;shape-padding:0;shape-margin:0;inline-size:0;clip-rule:nonzero;display:inline;overflow:visible;visibility:visible;isolation:auto;mix-blend-mode:normal;color-interpolation:sRGB;color-interpolation-filters:linearRGB;solid-color:#000000;solid-opacity:1;vector-effect:none;fill:#68f3f3;fill-opacity:1;fill-rule:nonzero;stroke:#68f3f3;stroke-width:2.5;stroke-linecap:round;stroke-linejoin:round;stroke-miterlimit:4;stroke-dasharray:none;stroke-dashoffset:0;stroke-opacity:1;color-rendering:auto;image-rendering:auto;shape-rendering:auto;text-rendering:auto;enable-background:accumulate;stop-color:#000000"
         d="m 14.653407,73.537525 c -8.3014249,0 -15.10156147,6.404739 -15.10156157,14.345703 0,0.476458 0.067401,0.936528 0.11523439,1.402343 -4.91676562,1.062034 -8.64257862,5.412039 -8.64257862,10.732419 0,6.10334 4.8469138,11.09962 10.835938,11.09962 h 0.796875 a 1,1 0 0 0 1,-1 1,1 0 0 0 -1,-1 h -0.796875 c -4.8789764,0 -8.835938,-4.04894 -8.835938,-9.09962 0,-4.694932 3.4295949,-8.52608 7.81640681,-9.042965 A 1.0001,1.0001 0 0 0 1.7100486,89.816821 C 1.6052481,89.189857 1.5518454,88.542139 1.5518454,87.883228 c 0,-6.799037 5.8229864,-12.345703 13.1015616,-12.345703 3.886763,0 7.361868,1.59187 9.755859,4.105468 a 1,1 0 0 0 1.414063,0.0332 1,1 0 0 0 0.03516,-1.414062 C 23.088476,75.353732 19.086644,73.537525 14.653407,73.537525 Z"
         id="path15710" /><path
         id="path15712"
         style="color:#000000;font-style:normal;font-variant:normal;font-weight:normal;font-stretch:normal;font-size:medium;line-height:normal;font-family:sans-serif;font-variant-ligatures:normal;font-variant-position:normal;font-variant-caps:normal;font-variant-numeric:normal;font-variant-alternates:normal;font-variant-east-asian:normal;font-feature-settings:normal;font-variation-settings:normal;text-indent:0;text-align:start;text-decoration:none;text-decoration-line:none;text-decoration-style:solid;text-decoration-color:#000000;letter-spacing:normal;word-spacing:normal;text-transform:none;writing-mode:lr-tb;direction:ltr;text-orientation:mixed;dominant-baseline:auto;baseline-shift:baseline;text-anchor:start;white-space:normal;shape-padding:0;shape-margin:0;inline-size:0;clip-rule:nonzero;display:inline;overflow:visible;visibility:visible;isolation:auto;mix-blend-mode:normal;color-interpolation:sRGB;color-interpolation-filters:linearRGB;solid-color:#000000;solid-opacity:1;vector-effect:none;fill:#68f3f3;fill-opacity:1;fill-rule:nonzero;stroke:#68f3f3;stroke-width:2.5;stroke-linecap:round;stroke-linejoin:round;stroke-miterlimit:4;stroke-dasharray:none;stroke-dashoffset:0;stroke-opacity:1;color-rendering:auto;image-rendering:auto;shape-rendering:auto;text-rendering:auto;enable-background:accumulate;stop-color:#000000"
         d="m 48.570955,91.267009 c 3.6e-4,0.0019 -0.002,0.0024 -0.002,0.0039 2.2e-4,0.0044 0.005,0.01285 0,0.01172 -0.004,1.5e-5 -0.009,4.3e-5 -0.0117,0 -8.8e-4,1.9e-5 -0.005,-2.4e-5 -0.008,0 0,0 -0.002,0 -0.002,0 h -0.002 -0.002 c -0.002,-1.49e-4 -0.004,9.4e-5 -0.006,0 -0.002,-9.2e-5 -0.005,0.0013 -0.006,0 -0.001,-0.001 0.002,-0.0026 0.002,-0.0039 -0.004,-0.0078 -10e-4,-0.0039 -0.004,-0.0078 -7.6e-4,2e-6 -10e-4,6e-6 -0.002,0 -0.002,-1.6e-5 -0.004,5e-5 -0.006,0 -10e-4,-0.0014 -9.5e-4,0.0083 -0.002,0.0039 h -0.002 c -2e-4,0.0039 1.5e-4,0.0078 0,0.01172 h -0.002 c -0.002,-1.8e-5 -0.006,1.4e-5 -0.008,0 -0.003,-2.3e-5 -0.009,0.003 -0.01,0 -0.001,-0.0036 -0.001,-0.0078 -0.002,-0.01172 h -0.004 -0.002 c -5.8e-4,0.0027 4.9e-4,0.0034 0,0.0059 -4.8e-4,0.0025 1.2e-4,0.0039 0,0.0059 5.7e-4,-0.002 10e-4,-0.0038 0.002,-0.0059 7.6e-4,7.07e-4 0.002,-2.79e-4 0.002,0.0059 0,10e-4 -0.003,-1.2e-5 -0.004,0 -5e-4,0 -0.0197,7.59e-4 -0.0137,0 -0.002,6.38e-4 -0.003,0.002 -0.006,0.002 -0.002,8.58e-4 -0.004,0.0011 -0.006,0.002 -0.005,0.0023 -0.01,0.0045 -0.0156,0.0039 -0.005,0 -0.0106,5e-6 -0.0156,0 -0.005,-2e-6 -0.009,-1.4e-5 -0.0137,0 -0.003,-2.6e-5 -0.009,-3.23e-4 -0.0117,0 -0.001,1e-4 -0.0147,0.0012 -0.0117,0 -0.003,0.0014 -0.007,0.0049 -0.01,0.0059 -0.01,0.0033 -0.0105,0.002 -0.0195,0.002 h -0.008 c -0.007,0 -0.013,-4.86e-4 -0.0195,-0.002 -10e-4,-2.91e-4 -0.003,4.97e-4 -0.004,0 0,0 0.002,0.002 0.002,0.002 -8.3e-4,10e-4 0.0118,-0.0028 -0.0137,0.0039 h -0.0176 -0.0156 -0.041 -0.0117 c -0.002,0 -0.004,1.5e-5 -0.006,0 0,9.76e-4 -0.003,0 -0.004,0 h -0.01 -0.0176 -0.0156 c -0.001,0 -5.7e-4,-0.0018 -0.002,-0.002 -3.48921,0.298249 -6.58286,2.038087 -8.6582,4.666015 -0.3419,0.433645 -0.26756,1.062327 0.16601,1.404297 0.43365,0.341886 1.06233,0.267565 1.4043,-0.166016 1.80871,-2.290306 4.49835,-3.787335 7.53906,-3.960937 5.67799,0.01719 11.00391,5.602916 11.00391,11.501952 9e-5,0.49865 0.3675,0.92104 0.86133,0.99024 3.55263,0.4949 6.17187,3.18956 6.17187,6.35741 0,3.503 -3.21047,6.43946 -7.33007,6.43946 -0.55228,0 -1,0.44771 -1,1 0,0.55228 0.44772,1 1,1 5.0844,0 9.33007,-3.72646 9.33007,-8.43946 0,-3.99252 -3.09572,-7.18791 -7.11133,-8.09374 -0.40193,-6.616087 -5.9772,-12.445726 -12.48632,-12.716799 -0.002,-8.2e-5 -0.004,7.9e-5 -0.006,0 -0.0119,-4.88e-4 -0.0233,-0.0035 -0.0352,-0.0039 -0.005,-1.98e-4 -0.0104,1.91e-4 -0.0156,0 h -0.0117 -0.002 -0.01 -0.006 c 0,0 -0.002,0 -0.002,0 h -0.002 c -0.003,4e-6 -0.005,6e-6 -0.008,0 h -0.002 c -0.002,1e-6 -0.0146,-2.09e-4 -0.008,0 -0.001,5.2e-5 -0.003,-1.42e-4 -0.004,0 -10e-4,1.43e-4 -0.003,-9.3e-5 -0.004,0 -8.5e-4,4.1e-5 -10e-4,0 -0.002,0 -10e-4,1.51e-4 -0.003,1.09e-4 -0.004,0 h -0.002 -0.002 -0.002 c -10e-4,1.25e-4 -0.002,0.0039 -0.004,0.0039 h -0.0137 c -0.003,0 -0.007,1.9e-5 -0.01,0 -0.007,-1.2e-5 -0.0125,-1.27e-4 -0.0195,0 -0.004,-2.4e-4 -0.007,-8.54e-4 -0.01,0 -0.004,-0.0016 -0.008,-0.0023 -0.0117,-0.0039 -0.004,-5e-6 -0.008,6e-6 -0.0117,0 -8e-4,1e-5 -0.001,-2.2e-5 -0.002,0 -0.002,-3.6e-5 -0.005,2.9e-5 -0.008,0 3e-4,-2.31e-4 -10e-4,1.08e-4 -0.002,0 -0.001,1.52e-4 -0.004,0.0013 -0.004,0 -3.9e-4,-0.0015 -0.002,0.0012 -0.002,0 -0.006,0.0029 -0.0155,-2.59e-4 -0.0215,-0.002 -0.002,-4.2e-4 -0.003,-0.0014 -0.004,-0.002 h -0.006 -0.006 -0.0117 -0.002 -0.0137 -0.004 -0.008 -0.004 -0.0137 c -0.002,-1.6e-5 -0.003,-9.3e-5 -0.004,0 h -0.006 -0.01 -0.0117 -0.008 -0.008 -0.01 -0.0156 -0.0117 -0.006 c -0.004,0 -0.007,2e-6 -0.01,0 -0.0107,-8e-6 -0.0206,-1.9e-5 -0.0312,0 -5e-4,0 -0.0218,0.0012 -0.0117,0 -0.0102,0.0017 -0.0191,9.1e-4 -0.0293,0 0.005,-0.0021 1e-5,-0.0031 0.002,-0.0039 -0.003,0.0015 -0.006,0.0078 -0.0117,0.0078 0,0 -0.002,0 -0.002,0 -0.004,1.11e-4 -5.2e-4,-0.0062 0,-0.01172 9e-5,-9.16e-4 1.3e-4,-0.0011 0,-0.002 -2.8e-4,-8.76e-4 1.8e-4,-0.0012 0,-0.002 z m -0.17383,0.02734 c 0.004,-0.0014 0.006,-0.0045 0.01,-0.0059 5.2e-4,-0.0015 0.002,-0.0023 0.002,-0.0039 -0.008,0.0098 -0.0156,0.01643 -0.0273,0.01172 0.005,-8e-4 0.0106,-0.0014 0.0156,-0.002 z" /><path
         style="color:#000000;font-style:normal;font-variant:normal;font-weight:normal;font-stretch:normal;font-size:medium;line-height:normal;font-family:sans-serif;font-variant-ligatures:normal;font-variant-position:normal;font-variant-caps:normal;font-variant-numeric:normal;font-variant-alternates:normal;font-variant-east-asian:normal;font-feature-settings:normal;font-variation-settings:normal;text-indent:0;text-align:start;text-decoration:none;text-decoration-line:none;text-decoration-style:solid;text-decoration-color:#000000;letter-spacing:normal;word-spacing:normal;text-transform:none;writing-mode:lr-tb;direction:ltr;text-orientation:mixed;dominant-baseline:auto;baseline-shift:baseline;text-anchor:start;white-space:normal;shape-padding:0;shape-margin:0;inline-size:0;clip-rule:nonzero;display:inline;overflow:visible;visibility:visible;isolation:auto;mix-blend-mode:normal;color-interpolation:sRGB;color-interpolation-filters:linearRGB;solid-color:#000000;solid-opacity:1;vector-effect:none;fill:#68f3f3;fill-opacity:1;fill-rule:nonzero;stroke:#68f3f3;stroke-width:2.5;stroke-linecap:round;stroke-linejoin:round;stroke-miterlimit:4;stroke-dasharray:none;stroke-dashoffset:0;stroke-opacity:1;color-rendering:auto;image-rendering:auto;shape-rendering:auto;text-rendering:auto;enable-background:accumulate;stop-color:#000000"
         d="m 27.372013,78.526881 c -8.904257,0 -16.192033,7.138824 -16.192033,15.990831 0,0.575541 0.07411,1.1318 0.134388,1.691102 -5.3176988,1.126772 -9.3618118,6.004426 -9.3618118,11.973756 0,6.78798 5.180053,12.3422 11.5755958,12.3422 h 39.025413 a 0.9298251,0.96742352 0 0 0 0.929825,-0.96742 0.9298251,0.96742352 0 0 0 -0.929825,-0.96742 H 13.528152 c -5.3630258,0 -9.7159458,-4.63818 -9.7159458,-10.40736 0,-5.3653 3.769349,-9.745601 8.5954348,-10.33934 a 0.92991808,0.96752026 0 0 0 0.808148,-1.120473 c -0.11528,-0.716039 -0.176159,-1.45441 -0.176159,-2.205045 0,-7.747045 6.37891,-14.055984 14.332383,-14.055985 7.511997,0 13.622411,5.643162 14.276084,12.782462 a 0.9298251,0.96742352 0 0 0 1.013364,0.871059 0.9298251,0.96742352 0 0 0 0.837207,-1.05434 C 42.750164,84.885894 35.782341,78.526881 27.372013,78.526881 Z"
         id="path15714" /></g><g
       id="g15708"
       transform="translate(-26.09287,-32.646478)"
       style="fill:#a8f1f1;fill-opacity:1;stroke:#a8f1f1;stroke-width:1.9;stroke-miterlimit:4;stroke-dasharray:none;stroke-opacity:1;filter:url(#filter15762)"><path
         style="color:#000000;font-style:normal;font-variant:normal;font-weight:normal;font-stretch:normal;font-size:medium;line-height:normal;font-family:sans-serif;font-variant-ligatures:normal;font-variant-position:normal;font-variant-caps:normal;font-variant-numeric:normal;font-variant-alternates:normal;font-variant-east-asian:normal;font-feature-settings:normal;font-variation-settings:normal;text-indent:0;text-align:start;text-decoration:none;text-decoration-line:none;text-decoration-style:solid;text-decoration-color:#000000;letter-spacing:normal;word-spacing:normal;text-transform:none;writing-mode:lr-tb;direction:ltr;text-orientation:mixed;dominant-baseline:auto;baseline-shift:baseline;text-anchor:start;white-space:normal;shape-padding:0;shape-margin:0;inline-size:0;clip-rule:nonzero;display:inline;overflow:visible;visibility:visible;isolation:auto;mix-blend-mode:normal;color-interpolation:sRGB;color-interpolation-filters:linearRGB;solid-color:#000000;solid-opacity:1;vector-effect:none;fill:#a8f1f1;fill-opacity:1;fill-rule:nonzero;stroke:#a8f1f1;stroke-width:1.9;stroke-linecap:round;stroke-linejoin:round;stroke-miterlimit:4;stroke-dasharray:none;stroke-dashoffset:0;stroke-opacity:1;color-rendering:auto;image-rendering:auto;shape-rendering:auto;text-rendering:auto;enable-background:accumulate;stop-color:#000000"
         d="m 14.653407,73.537525 c -8.3014249,0 -15.10156147,6.404739 -15.10156157,14.345703 0,0.476458 0.067401,0.936528 0.11523439,1.402343 -4.91676562,1.062034 -8.64257862,5.412039 -8.64257862,10.732419 0,6.10334 4.8469138,11.09962 10.835938,11.09962 h 0.796875 a 1,1 0 0 0 1,-1 1,1 0 0 0 -1,-1 h -0.796875 c -4.8789764,0 -8.835938,-4.04894 -8.835938,-9.09962 0,-4.694932 3.4295949,-8.52608 7.81640681,-9.042965 A 1.0001,1.0001 0 0 0 1.7100486,89.816821 C 1.6052481,89.189857 1.5518454,88.542139 1.5518454,87.883228 c 0,-6.799037 5.8229864,-12.345703 13.1015616,-12.345703 3.886763,0 7.361868,1.59187 9.755859,4.105468 a 1,1 0 0 0 1.414063,0.0332 1,1 0 0 0 0.03516,-1.414062 C 23.088476,75.353732 19.086644,73.537525 14.653407,73.537525 Z"
         id="path15702" /><path
         id="path15704"
         style="color:#000000;font-style:normal;font-variant:normal;font-weight:normal;font-stretch:normal;font-size:medium;line-height:normal;font-family:sans-serif;font-variant-ligatures:normal;font-variant-position:normal;font-variant-caps:normal;font-variant-numeric:normal;font-variant-alternates:normal;font-variant-east-asian:normal;font-feature-settings:normal;font-variation-settings:normal;text-indent:0;text-align:start;text-decoration:none;text-decoration-line:none;text-decoration-style:solid;text-decoration-color:#000000;letter-spacing:normal;word-spacing:normal;text-transform:none;writing-mode:lr-tb;direction:ltr;text-orientation:mixed;dominant-baseline:auto;baseline-shift:baseline;text-anchor:start;white-space:normal;shape-padding:0;shape-margin:0;inline-size:0;clip-rule:nonzero;display:inline;overflow:visible;visibility:visible;isolation:auto;mix-blend-mode:normal;color-interpolation:sRGB;color-interpolation-filters:linearRGB;solid-color:#000000;solid-opacity:1;vector-effect:none;fill:#a8f1f1;fill-opacity:1;fill-rule:nonzero;stroke:#a8f1f1;stroke-width:1.9;stroke-linecap:round;stroke-linejoin:round;stroke-miterlimit:4;stroke-dasharray:none;stroke-dashoffset:0;stroke-opacity:1;color-rendering:auto;image-rendering:auto;shape-rendering:auto;text-rendering:auto;enable-background:accumulate;stop-color:#000000"
         d="m 48.570955,91.267009 c 3.6e-4,0.0019 -0.002,0.0024 -0.002,0.0039 2.2e-4,0.0044 0.005,0.01285 0,0.01172 -0.004,1.5e-5 -0.009,4.3e-5 -0.0117,0 -8.8e-4,1.9e-5 -0.005,-2.4e-5 -0.008,0 0,0 -0.002,0 -0.002,0 h -0.002 -0.002 c -0.002,-1.49e-4 -0.004,9.4e-5 -0.006,0 -0.002,-9.2e-5 -0.005,0.0013 -0.006,0 -0.001,-0.001 0.002,-0.0026 0.002,-0.0039 -0.004,-0.0078 -10e-4,-0.0039 -0.004,-0.0078 -7.6e-4,2e-6 -10e-4,6e-6 -0.002,0 -0.002,-1.6e-5 -0.004,5e-5 -0.006,0 -10e-4,-0.0014 -9.5e-4,0.0083 -0.002,0.0039 h -0.002 c -2e-4,0.0039 1.5e-4,0.0078 0,0.01172 h -0.002 c -0.002,-1.8e-5 -0.006,1.4e-5 -0.008,0 -0.003,-2.3e-5 -0.009,0.003 -0.01,0 -0.001,-0.0036 -0.001,-0.0078 -0.002,-0.01172 h -0.004 -0.002 c -5.8e-4,0.0027 4.9e-4,0.0034 0,0.0059 -4.8e-4,0.0025 1.2e-4,0.0039 0,0.0059 5.7e-4,-0.002 10e-4,-0.0038 0.002,-0.0059 7.6e-4,7.07e-4 0.002,-2.79e-4 0.002,0.0059 0,10e-4 -0.003,-1.2e-5 -0.004,0 -5e-4,0 -0.0197,7.59e-4 -0.0137,0 -0.002,6.38e-4 -0.003,0.002 -0.006,0.002 -0.002,8.58e-4 -0.004,0.0011 -0.006,0.002 -0.005,0.0023 -0.01,0.0045 -0.0156,0.0039 -0.005,0 -0.0106,5e-6 -0.0156,0 -0.005,-2e-6 -0.009,-1.4e-5 -0.0137,0 -0.003,-2.6e-5 -0.009,-3.23e-4 -0.0117,0 -0.001,1e-4 -0.0147,0.0012 -0.0117,0 -0.003,0.0014 -0.007,0.0049 -0.01,0.0059 -0.01,0.0033 -0.0105,0.002 -0.0195,0.002 h -0.008 c -0.007,0 -0.013,-4.86e-4 -0.0195,-0.002 -10e-4,-2.91e-4 -0.003,4.97e-4 -0.004,0 0,0 0.002,0.002 0.002,0.002 -8.3e-4,10e-4 0.0118,-0.0028 -0.0137,0.0039 h -0.0176 -0.0156 -0.041 -0.0117 c -0.002,0 -0.004,1.5e-5 -0.006,0 0,9.76e-4 -0.003,0 -0.004,0 h -0.01 -0.0176 -0.0156 c -0.001,0 -5.7e-4,-0.0018 -0.002,-0.002 -3.48921,0.298249 -6.58286,2.038087 -8.6582,4.666015 -0.3419,0.433645 -0.26756,1.062327 0.16601,1.404297 0.43365,0.341886 1.06233,0.267565 1.4043,-0.166016 1.80871,-2.290306 4.49835,-3.787335 7.53906,-3.960937 5.67799,0.01719 11.00391,5.602916 11.00391,11.501952 9e-5,0.49865 0.3675,0.92104 0.86133,0.99024 3.55263,0.4949 6.17187,3.18956 6.17187,6.35741 0,3.503 -3.21047,6.43946 -7.33007,6.43946 -0.55228,0 -1,0.44771 -1,1 0,0.55228 0.44772,1 1,1 5.0844,0 9.33007,-3.72646 9.33007,-8.43946 0,-3.99252 -3.09572,-7.18791 -7.11133,-8.09374 -0.40193,-6.616087 -5.9772,-12.445726 -12.48632,-12.716799 -0.002,-8.2e-5 -0.004,7.9e-5 -0.006,0 -0.0119,-4.88e-4 -0.0233,-0.0035 -0.0352,-0.0039 -0.005,-1.98e-4 -0.0104,1.91e-4 -0.0156,0 h -0.0117 -0.002 -0.01 -0.006 c 0,0 -0.002,0 -0.002,0 h -0.002 c -0.003,4e-6 -0.005,6e-6 -0.008,0 h -0.002 c -0.002,1e-6 -0.0146,-2.09e-4 -0.008,0 -0.001,5.2e-5 -0.003,-1.42e-4 -0.004,0 -10e-4,1.43e-4 -0.003,-9.3e-5 -0.004,0 -8.5e-4,4.1e-5 -10e-4,0 -0.002,0 -10e-4,1.51e-4 -0.003,1.09e-4 -0.004,0 h -0.002 -0.002 -0.002 c -10e-4,1.25e-4 -0.002,0.0039 -0.004,0.0039 h -0.0137 c -0.003,0 -0.007,1.9e-5 -0.01,0 -0.007,-1.2e-5 -0.0125,-1.27e-4 -0.0195,0 -0.004,-2.4e-4 -0.007,-8.54e-4 -0.01,0 -0.004,-0.0016 -0.008,-0.0023 -0.0117,-0.0039 -0.004,-5e-6 -0.008,6e-6 -0.0117,0 -8e-4,1e-5 -0.001,-2.2e-5 -0.002,0 -0.002,-3.6e-5 -0.005,2.9e-5 -0.008,0 3e-4,-2.31e-4 -10e-4,1.08e-4 -0.002,0 -0.001,1.52e-4 -0.004,0.0013 -0.004,0 -3.9e-4,-0.0015 -0.002,0.0012 -0.002,0 -0.006,0.0029 -0.0155,-2.59e-4 -0.0215,-0.002 -0.002,-4.2e-4 -0.003,-0.0014 -0.004,-0.002 h -0.006 -0.006 -0.0117 -0.002 -0.0137 -0.004 -0.008 -0.004 -0.0137 c -0.002,-1.6e-5 -0.003,-9.3e-5 -0.004,0 h -0.006 -0.01 -0.0117 -0.008 -0.008 -0.01 -0.0156 -0.0117 -0.006 c -0.004,0 -0.007,2e-6 -0.01,0 -0.0107,-8e-6 -0.0206,-1.9e-5 -0.0312,0 -5e-4,0 -0.0218,0.0012 -0.0117,0 -0.0102,0.0017 -0.0191,9.1e-4 -0.0293,0 0.005,-0.0021 1e-5,-0.0031 0.002,-0.0039 -0.003,0.0015 -0.006,0.0078 -0.0117,0.0078 0,0 -0.002,0 -0.002,0 -0.004,1.11e-4 -5.2e-4,-0.0062 0,-0.01172 9e-5,-9.16e-4 1.3e-4,-0.0011 0,-0.002 -2.8e-4,-8.76e-4 1.8e-4,-0.0012 0,-0.002 z m -0.17383,0.02734 c 0.004,-0.0014 0.006,-0.0045 0.01,-0.0059 5.2e-4,-0.0015 0.002,-0.0023 0.002,-0.0039 -0.008,0.0098 -0.0156,0.01643 -0.0273,0.01172 0.005,-8e-4 0.0106,-0.0014 0.0156,-0.002 z" /><path
         style="color:#000000;font-style:normal;font-variant:normal;font-weight:normal;font-stretch:normal;font-size:medium;line-height:normal;font-family:sans-serif;font-variant-ligatures:normal;font-variant-position:normal;font-variant-caps:normal;font-variant-numeric:normal;font-variant-alternates:normal;font-variant-east-asian:normal;font-feature-settings:normal;font-variation-settings:normal;text-indent:0;text-align:start;text-decoration:none;text-decoration-line:none;text-decoration-style:solid;text-decoration-color:#000000;letter-spacing:normal;word-spacing:normal;text-transform:none;writing-mode:lr-tb;direction:ltr;text-orientation:mixed;dominant-baseline:auto;baseline-shift:baseline;text-anchor:start;white-space:normal;shape-padding:0;shape-margin:0;inline-size:0;clip-rule:nonzero;display:inline;overflow:visible;visibility:visible;isolation:auto;mix-blend-mode:normal;color-interpolation:sRGB;color-interpolation-filters:linearRGB;solid-color:#000000;solid-opacity:1;vector-effect:none;fill:#a8f1f1;fill-opacity:1;fill-rule:nonzero;stroke:#a8f1f1;stroke-width:1.9;stroke-linecap:round;stroke-linejoin:round;stroke-miterlimit:4;stroke-dasharray:none;stroke-dashoffset:0;stroke-opacity:1;color-rendering:auto;image-rendering:auto;shape-rendering:auto;text-rendering:auto;enable-background:accumulate;stop-color:#000000"
         d="m 27.372013,78.526881 c -8.904257,0 -16.192033,7.138824 -16.192033,15.990831 0,0.575541 0.07411,1.1318 0.134388,1.691102 -5.3176988,1.126772 -9.3618118,6.004426 -9.3618118,11.973756 0,6.78798 5.180053,12.3422 11.5755958,12.3422 h 39.025413 a 0.9298251,0.96742352 0 0 0 0.929825,-0.96742 0.9298251,0.96742352 0 0 0 -0.929825,-0.96742 H 13.528152 c -5.3630258,0 -9.7159458,-4.63818 -9.7159458,-10.40736 0,-5.3653 3.769349,-9.745601 8.5954348,-10.33934 a 0.92991808,0.96752026 0 0 0 0.808148,-1.120473 c -0.11528,-0.716039 -0.176159,-1.45441 -0.176159,-2.205045 0,-7.747045 6.37891,-14.055984 14.332383,-14.055985 7.511997,0 13.622411,5.643162 14.276084,12.782462 a 0.9298251,0.96742352 0 0 0 1.013364,0.871059 0.9298251,0.96742352 0 0 0 0.837207,-1.05434 C 42.750164,84.885894 35.782341,78.526881 27.372013,78.526881 Z"
         id="path15706" /></g><g
       id="g15816"
       transform="matrix(0.9917577,0,0,1.0121814,-25.294482,-33.742416)"
       style="opacity:0.208;fill:#000000"><path
         style="color:#000000;font-style:normal;font-variant:normal;font-weight:normal;font-stretch:normal;font-size:medium;line-height:normal;font-family:sans-serif;font-variant-ligatures:normal;font-variant-position:normal;font-variant-caps:normal;font-variant-numeric:normal;font-variant-alternates:normal;font-variant-east-asian:normal;font-feature-settings:normal;font-variation-settings:normal;text-indent:0;text-align:start;text-decoration:none;text-decoration-line:none;text-decoration-style:solid;text-decoration-color:#000000;letter-spacing:normal;word-spacing:normal;text-transform:none;writing-mode:lr-tb;direction:ltr;text-orientation:mixed;dominant-baseline:auto;baseline-shift:baseline;text-anchor:start;white-space:normal;shape-padding:0;shape-margin:0;inline-size:0;clip-rule:nonzero;display:inline;overflow:visible;visibility:visible;isolation:auto;mix-blend-mode:normal;color-interpolation:sRGB;color-interpolation-filters:linearRGB;solid-color:#000000;solid-opacity:1;vector-effect:none;fill:#000000;fill-opacity:1;fill-rule:nonzero;stroke:none;stroke-linecap:round;stroke-linejoin:round;stroke-miterlimit:10;stroke-dasharray:none;stroke-dashoffset:0;stroke-opacity:1;color-rendering:auto;image-rendering:auto;shape-rendering:auto;text-rendering:auto;enable-background:accumulate;stop-color:#000000"
         d="m 14.653407,73.537525 c -8.3014249,0 -15.10156147,6.404739 -15.10156157,14.345703 0,0.476458 0.067401,0.936528 0.11523439,1.402343 -4.91676562,1.062034 -8.64257862,5.412039 -8.64257862,10.732419 0,6.10334 4.8469138,11.09962 10.835938,11.09962 h 0.796875 a 1,1 0 0 0 1,-1 1,1 0 0 0 -1,-1 h -0.796875 c -4.8789764,0 -8.835938,-4.04894 -8.835938,-9.09962 0,-4.694932 3.4295949,-8.52608 7.81640681,-9.042965 A 1.0001,1.0001 0 0 0 1.7100486,89.816821 C 1.6052481,89.189857 1.5518454,88.542139 1.5518454,87.883228 c 0,-6.799037 5.8229864,-12.345703 13.1015616,-12.345703 3.886763,0 7.361868,1.59187 9.755859,4.105468 a 1,1 0 0 0 1.414063,0.0332 1,1 0 0 0 0.03516,-1.414062 C 23.088476,75.353732 19.086644,73.537525 14.653407,73.537525 Z"
         id="path15810" /><path
         id="path15812"
         style="color:#000000;font-style:normal;font-variant:normal;font-weight:normal;font-stretch:normal;font-size:medium;line-height:normal;font-family:sans-serif;font-variant-ligatures:normal;font-variant-position:normal;font-variant-caps:normal;font-variant-numeric:normal;font-variant-alternates:normal;font-variant-east-asian:normal;font-feature-settings:normal;font-variation-settings:normal;text-indent:0;text-align:start;text-decoration:none;text-decoration-line:none;text-decoration-style:solid;text-decoration-color:#000000;letter-spacing:normal;word-spacing:normal;text-transform:none;writing-mode:lr-tb;direction:ltr;text-orientation:mixed;dominant-baseline:auto;baseline-shift:baseline;text-anchor:start;white-space:normal;shape-padding:0;shape-margin:0;inline-size:0;clip-rule:nonzero;display:inline;overflow:visible;visibility:visible;isolation:auto;mix-blend-mode:normal;color-interpolation:sRGB;color-interpolation-filters:linearRGB;solid-color:#000000;solid-opacity:1;vector-effect:none;fill:#000000;fill-opacity:1;fill-rule:nonzero;stroke:none;stroke-linecap:round;stroke-linejoin:round;stroke-miterlimit:10;stroke-dasharray:none;stroke-dashoffset:0;stroke-opacity:1;color-rendering:auto;image-rendering:auto;shape-rendering:auto;text-rendering:auto;enable-background:accumulate;stop-color:#000000"
         d="m 48.570955,91.267009 c 3.6e-4,0.0019 -0.002,0.0024 -0.002,0.0039 2.2e-4,0.0044 0.005,0.01285 0,0.01172 -0.004,1.5e-5 -0.009,4.3e-5 -0.0117,0 -8.8e-4,1.9e-5 -0.005,-2.4e-5 -0.008,0 0,0 -0.002,0 -0.002,0 h -0.002 -0.002 c -0.002,-1.49e-4 -0.004,9.4e-5 -0.006,0 -0.002,-9.2e-5 -0.005,0.0013 -0.006,0 -0.001,-0.001 0.002,-0.0026 0.002,-0.0039 -0.004,-0.0078 -10e-4,-0.0039 -0.004,-0.0078 -7.6e-4,2e-6 -10e-4,6e-6 -0.002,0 -0.002,-1.6e-5 -0.004,5e-5 -0.006,0 -10e-4,-0.0014 -9.5e-4,0.0083 -0.002,0.0039 h -0.002 c -2e-4,0.0039 1.5e-4,0.0078 0,0.01172 h -0.002 c -0.002,-1.8e-5 -0.006,1.4e-5 -0.008,0 -0.003,-2.3e-5 -0.009,0.003 -0.01,0 -0.001,-0.0036 -0.001,-0.0078 -0.002,-0.01172 h -0.004 -0.002 c -5.8e-4,0.0027 4.9e-4,0.0034 0,0.0059 -4.8e-4,0.0025 1.2e-4,0.0039 0,0.0059 5.7e-4,-0.002 10e-4,-0.0038 0.002,-0.0059 7.6e-4,7.07e-4 0.002,-2.79e-4 0.002,0.0059 0,10e-4 -0.003,-1.2e-5 -0.004,0 -5e-4,0 -0.0197,7.59e-4 -0.0137,0 -0.002,6.38e-4 -0.003,0.002 -0.006,0.002 -0.002,8.58e-4 -0.004,0.0011 -0.006,0.002 -0.005,0.0023 -0.01,0.0045 -0.0156,0.0039 -0.005,0 -0.0106,5e-6 -0.0156,0 -0.005,-2e-6 -0.009,-1.4e-5 -0.0137,0 -0.003,-2.6e-5 -0.009,-3.23e-4 -0.0117,0 -0.001,1e-4 -0.0147,0.0012 -0.0117,0 -0.003,0.0014 -0.007,0.0049 -0.01,0.0059 -0.01,0.0033 -0.0105,0.002 -0.0195,0.002 h -0.008 c -0.007,0 -0.013,-4.86e-4 -0.0195,-0.002 -10e-4,-2.91e-4 -0.003,4.97e-4 -0.004,0 0,0 0.002,0.002 0.002,0.002 -8.3e-4,10e-4 0.0118,-0.0028 -0.0137,0.0039 h -0.0176 -0.0156 -0.041 -0.0117 c -0.002,0 -0.004,1.5e-5 -0.006,0 0,9.76e-4 -0.003,0 -0.004,0 h -0.01 -0.0176 -0.0156 c -0.001,0 -5.7e-4,-0.0018 -0.002,-0.002 -3.48921,0.298249 -6.58286,2.038087 -8.6582,4.666015 -0.3419,0.433645 -0.26756,1.062327 0.16601,1.404297 0.43365,0.341886 1.06233,0.267565 1.4043,-0.166016 1.80871,-2.290306 4.49835,-3.787335 7.53906,-3.960937 5.67799,0.01719 11.00391,5.602916 11.00391,11.501952 9e-5,0.49865 0.3675,0.92104 0.86133,0.99024 3.55263,0.4949 6.17187,3.18956 6.17187,6.35741 0,3.503 -3.21047,6.43946 -7.33007,6.43946 -0.55228,0 -1,0.44771 -1,1 0,0.55228 0.44772,1 1,1 5.0844,0 9.33007,-3.72646 9.33007,-8.43946 0,-3.99252 -3.09572,-7.18791 -7.11133,-8.09374 -0.40193,-6.616087 -5.9772,-12.445726 -12.48632,-12.716799 -0.002,-8.2e-5 -0.004,7.9e-5 -0.006,0 -0.0119,-4.88e-4 -0.0233,-0.0035 -0.0352,-0.0039 -0.005,-1.98e-4 -0.0104,1.91e-4 -0.0156,0 h -0.0117 -0.002 -0.01 -0.006 c 0,0 -0.002,0 -0.002,0 h -0.002 c -0.003,4e-6 -0.005,6e-6 -0.008,0 h -0.002 c -0.002,1e-6 -0.0146,-2.09e-4 -0.008,0 -0.001,5.2e-5 -0.003,-1.42e-4 -0.004,0 -10e-4,1.43e-4 -0.003,-9.3e-5 -0.004,0 -8.5e-4,4.1e-5 -10e-4,0 -0.002,0 -10e-4,1.51e-4 -0.003,1.09e-4 -0.004,0 h -0.002 -0.002 -0.002 c -10e-4,1.25e-4 -0.002,0.0039 -0.004,0.0039 h -0.0137 c -0.003,0 -0.007,1.9e-5 -0.01,0 -0.007,-1.2e-5 -0.0125,-1.27e-4 -0.0195,0 -0.004,-2.4e-4 -0.007,-8.54e-4 -0.01,0 -0.004,-0.0016 -0.008,-0.0023 -0.0117,-0.0039 -0.004,-5e-6 -0.008,6e-6 -0.0117,0 -8e-4,1e-5 -0.001,-2.2e-5 -0.002,0 -0.002,-3.6e-5 -0.005,2.9e-5 -0.008,0 3e-4,-2.31e-4 -10e-4,1.08e-4 -0.002,0 -0.001,1.52e-4 -0.004,0.0013 -0.004,0 -3.9e-4,-0.0015 -0.002,0.0012 -0.002,0 -0.006,0.0029 -0.0155,-2.59e-4 -0.0215,-0.002 -0.002,-4.2e-4 -0.003,-0.0014 -0.004,-0.002 h -0.006 -0.006 -0.0117 -0.002 -0.0137 -0.004 -0.008 -0.004 -0.0137 c -0.002,-1.6e-5 -0.003,-9.3e-5 -0.004,0 h -0.006 -0.01 -0.0117 -0.008 -0.008 -0.01 -0.0156 -0.0117 -0.006 c -0.004,0 -0.007,2e-6 -0.01,0 -0.0107,-8e-6 -0.0206,-1.9e-5 -0.0312,0 -5e-4,0 -0.0218,0.0012 -0.0117,0 -0.0102,0.0017 -0.0191,9.1e-4 -0.0293,0 0.005,-0.0021 1e-5,-0.0031 0.002,-0.0039 -0.003,0.0015 -0.006,0.0078 -0.0117,0.0078 0,0 -0.002,0 -0.002,0 -0.004,1.11e-4 -5.2e-4,-0.0062 0,-0.01172 9e-5,-9.16e-4 1.3e-4,-0.0011 0,-0.002 -2.8e-4,-8.76e-4 1.8e-4,-0.0012 0,-0.002 z m -0.17383,0.02734 c 0.004,-0.0014 0.006,-0.0045 0.01,-0.0059 5.2e-4,-0.0015 0.002,-0.0023 0.002,-0.0039 -0.008,0.0098 -0.0156,0.01643 -0.0273,0.01172 0.005,-8e-4 0.0106,-0.0014 0.0156,-0.002 z" /><path
         style="color:#000000;font-style:normal;font-variant:normal;font-weight:normal;font-stretch:normal;font-size:medium;line-height:normal;font-family:sans-serif;font-variant-ligatures:normal;font-variant-position:normal;font-variant-caps:normal;font-variant-numeric:normal;font-variant-alternates:normal;font-variant-east-asian:normal;font-feature-settings:normal;font-variation-settings:normal;text-indent:0;text-align:start;text-decoration:none;text-decoration-line:none;text-decoration-style:solid;text-decoration-color:#000000;letter-spacing:normal;word-spacing:normal;text-transform:none;writing-mode:lr-tb;direction:ltr;text-orientation:mixed;dominant-baseline:auto;baseline-shift:baseline;text-anchor:start;white-space:normal;shape-padding:0;shape-margin:0;inline-size:0;clip-rule:nonzero;display:inline;overflow:visible;visibility:visible;isolation:auto;mix-blend-mode:normal;color-interpolation:sRGB;color-interpolation-filters:linearRGB;solid-color:#000000;solid-opacity:1;vector-effect:none;fill:#000000;fill-opacity:1;fill-rule:nonzero;stroke:none;stroke-width:0.948438;stroke-linecap:round;stroke-linejoin:round;stroke-miterlimit:10;stroke-dasharray:none;stroke-dashoffset:0;stroke-opacity:1;color-rendering:auto;image-rendering:auto;shape-rendering:auto;text-rendering:auto;enable-background:accumulate;stop-color:#000000"
         d="m 27.372013,78.526881 c -8.904257,0 -16.192033,7.138824 -16.192033,15.990831 0,0.575541 0.07411,1.1318 0.134388,1.691102 -5.3176988,1.126772 -9.3618118,6.004426 -9.3618118,11.973756 0,6.78798 5.180053,12.3422 11.5755958,12.3422 h 39.025413 a 0.9298251,0.96742352 0 0 0 0.929825,-0.96742 0.9298251,0.96742352 0 0 0 -0.929825,-0.96742 H 13.528152 c -5.3630258,0 -9.7159458,-4.63818 -9.7159458,-10.40736 0,-5.3653 3.769349,-9.745601 8.5954348,-10.33934 a 0.92991808,0.96752026 0 0 0 0.808148,-1.120473 c -0.11528,-0.716039 -0.176159,-1.45441 -0.176159,-2.205045 0,-7.747045 6.37891,-14.055984 14.332383,-14.055985 7.511997,0 13.622411,5.643162 14.276084,12.782462 a 0.9298251,0.96742352 0 0 0 1.013364,0.871059 0.9298251,0.96742352 0 0 0 0.837207,-1.05434 C 42.750164,84.885894 35.782341,78.526881 27.372013,78.526881 Z"
         id="path15814" /></g><g
       id="g15700"
       transform="translate(-26.09287,-32.646478)"><path
         style="color:#000000;font-style:normal;font-variant:normal;font-weight:normal;font-stretch:normal;font-size:medium;line-height:normal;font-family:sans-serif;font-variant-ligatures:normal;font-variant-position:normal;font-variant-caps:normal;font-variant-numeric:normal;font-variant-alternates:normal;font-variant-east-asian:normal;font-feature-settings:normal;font-variation-settings:normal;text-indent:0;text-align:start;text-decoration:none;text-decoration-line:none;text-decoration-style:solid;text-decoration-color:#000000;letter-spacing:normal;word-spacing:normal;text-transform:none;writing-mode:lr-tb;direction:ltr;text-orientation:mixed;dominant-baseline:auto;baseline-shift:baseline;text-anchor:start;white-space:normal;shape-padding:0;shape-margin:0;inline-size:0;clip-rule:nonzero;display:inline;overflow:visible;visibility:visible;isolation:auto;mix-blend-mode:normal;color-interpolation:sRGB;color-interpolation-filters:linearRGB;solid-color:#000000;solid-opacity:1;vector-effect:none;fill:#ffffff;fill-opacity:1;fill-rule:nonzero;stroke:none;stroke-linecap:round;stroke-linejoin:round;stroke-miterlimit:10;stroke-dasharray:none;stroke-dashoffset:0;stroke-opacity:1;color-rendering:auto;image-rendering:auto;shape-rendering:auto;text-rendering:auto;enable-background:accumulate;stop-color:#000000"
         d="m 14.653407,73.537525 c -8.3014249,0 -15.10156147,6.404739 -15.10156157,14.345703 0,0.476458 0.067401,0.936528 0.11523439,1.402343 -4.91676562,1.062034 -8.64257862,5.412039 -8.64257862,10.732419 0,6.10334 4.8469138,11.09962 10.835938,11.09962 h 0.796875 a 1,1 0 0 0 1,-1 1,1 0 0 0 -1,-1 h -0.796875 c -4.8789764,0 -8.835938,-4.04894 -8.835938,-9.09962 0,-4.694932 3.4295949,-8.52608 7.81640681,-9.042965 A 1.0001,1.0001 0 0 0 1.7100486,89.816821 C 1.6052481,89.189857 1.5518454,88.542139 1.5518454,87.883228 c 0,-6.799037 5.8229864,-12.345703 13.1015616,-12.345703 3.886763,0 7.361868,1.59187 9.755859,4.105468 a 1,1 0 0 0 1.414063,0.0332 1,1 0 0 0 0.03516,-1.414062 C 23.088476,75.353732 19.086644,73.537525 14.653407,73.537525 Z"
         id="path15691" /><path
         id="path994"
         style="color:#000000;font-style:normal;font-variant:normal;font-weight:normal;font-stretch:normal;font-size:medium;line-height:normal;font-family:sans-serif;font-variant-ligatures:normal;font-variant-position:normal;font-variant-caps:normal;font-variant-numeric:normal;font-variant-alternates:normal;font-variant-east-asian:normal;font-feature-settings:normal;font-variation-settings:normal;text-indent:0;text-align:start;text-decoration:none;text-decoration-line:none;text-decoration-style:solid;text-decoration-color:#000000;letter-spacing:normal;word-spacing:normal;text-transform:none;writing-mode:lr-tb;direction:ltr;text-orientation:mixed;dominant-baseline:auto;baseline-shift:baseline;text-anchor:start;white-space:normal;shape-padding:0;shape-margin:0;inline-size:0;clip-rule:nonzero;display:inline;overflow:visible;visibility:visible;isolation:auto;mix-blend-mode:normal;color-interpolation:sRGB;color-interpolation-filters:linearRGB;solid-color:#000000;solid-opacity:1;vector-effect:none;fill:#ffffff;fill-opacity:1;fill-rule:nonzero;stroke:none;stroke-linecap:round;stroke-linejoin:round;stroke-miterlimit:10;stroke-dasharray:none;stroke-dashoffset:0;stroke-opacity:1;color-rendering:auto;image-rendering:auto;shape-rendering:auto;text-rendering:auto;enable-background:accumulate;stop-color:#000000"
         d="m 48.570955,91.267009 c 3.6e-4,0.0019 -0.002,0.0024 -0.002,0.0039 2.2e-4,0.0044 0.005,0.01285 0,0.01172 -0.004,1.5e-5 -0.009,4.3e-5 -0.0117,0 -8.8e-4,1.9e-5 -0.005,-2.4e-5 -0.008,0 0,0 -0.002,0 -0.002,0 h -0.002 -0.002 c -0.002,-1.49e-4 -0.004,9.4e-5 -0.006,0 -0.002,-9.2e-5 -0.005,0.0013 -0.006,0 -0.001,-0.001 0.002,-0.0026 0.002,-0.0039 -0.004,-0.0078 -10e-4,-0.0039 -0.004,-0.0078 -7.6e-4,2e-6 -10e-4,6e-6 -0.002,0 -0.002,-1.6e-5 -0.004,5e-5 -0.006,0 -10e-4,-0.0014 -9.5e-4,0.0083 -0.002,0.0039 h -0.002 c -2e-4,0.0039 1.5e-4,0.0078 0,0.01172 h -0.002 c -0.002,-1.8e-5 -0.006,1.4e-5 -0.008,0 -0.003,-2.3e-5 -0.009,0.003 -0.01,0 -0.001,-0.0036 -0.001,-0.0078 -0.002,-0.01172 h -0.004 -0.002 c -5.8e-4,0.0027 4.9e-4,0.0034 0,0.0059 -4.8e-4,0.0025 1.2e-4,0.0039 0,0.0059 5.7e-4,-0.002 10e-4,-0.0038 0.002,-0.0059 7.6e-4,7.07e-4 0.002,-2.79e-4 0.002,0.0059 0,10e-4 -0.003,-1.2e-5 -0.004,0 -5e-4,0 -0.0197,7.59e-4 -0.0137,0 -0.002,6.38e-4 -0.003,0.002 -0.006,0.002 -0.002,8.58e-4 -0.004,0.0011 -0.006,0.002 -0.005,0.0023 -0.01,0.0045 -0.0156,0.0039 -0.005,0 -0.0106,5e-6 -0.0156,0 -0.005,-2e-6 -0.009,-1.4e-5 -0.0137,0 -0.003,-2.6e-5 -0.009,-3.23e-4 -0.0117,0 -0.001,1e-4 -0.0147,0.0012 -0.0117,0 -0.003,0.0014 -0.007,0.0049 -0.01,0.0059 -0.01,0.0033 -0.0105,0.002 -0.0195,0.002 h -0.008 c -0.007,0 -0.013,-4.86e-4 -0.0195,-0.002 -10e-4,-2.91e-4 -0.003,4.97e-4 -0.004,0 0,0 0.002,0.002 0.002,0.002 -8.3e-4,10e-4 0.0118,-0.0028 -0.0137,0.0039 h -0.0176 -0.0156 -0.041 -0.0117 c -0.002,0 -0.004,1.5e-5 -0.006,0 0,9.76e-4 -0.003,0 -0.004,0 h -0.01 -0.0176 -0.0156 c -0.001,0 -5.7e-4,-0.0018 -0.002,-0.002 -3.48921,0.298249 -6.58286,2.038087 -8.6582,4.666015 -0.3419,0.433645 -0.26756,1.062327 0.16601,1.404297 0.43365,0.341886 1.06233,0.267565 1.4043,-0.166016 1.80871,-2.290306 4.49835,-3.787335 7.53906,-3.960937 5.67799,0.01719 11.00391,5.602916 11.00391,11.501952 9e-5,0.49865 0.3675,0.92104 0.86133,0.99024 3.55263,0.4949 6.17187,3.18956 6.17187,6.35741 0,3.503 -3.21047,6.43946 -7.33007,6.43946 -0.55228,0 -1,0.44771 -1,1 0,0.55228 0.44772,1 1,1 5.0844,0 9.33007,-3.72646 9.33007,-8.43946 0,-3.99252 -3.09572,-7.18791 -7.11133,-8.09374 -0.40193,-6.616087 -5.9772,-12.445726 -12.48632,-12.716799 -0.002,-8.2e-5 -0.004,7.9e-5 -0.006,0 -0.0119,-4.88e-4 -0.0233,-0.0035 -0.0352,-0.0039 -0.005,-1.98e-4 -0.0104,1.91e-4 -0.0156,0 h -0.0117 -0.002 -0.01 -0.006 c 0,0 -0.002,0 -0.002,0 h -0.002 c -0.003,4e-6 -0.005,6e-6 -0.008,0 h -0.002 c -0.002,1e-6 -0.0146,-2.09e-4 -0.008,0 -0.001,5.2e-5 -0.003,-1.42e-4 -0.004,0 -10e-4,1.43e-4 -0.003,-9.3e-5 -0.004,0 -8.5e-4,4.1e-5 -10e-4,0 -0.002,0 -10e-4,1.51e-4 -0.003,1.09e-4 -0.004,0 h -0.002 -0.002 -0.002 c -10e-4,1.25e-4 -0.002,0.0039 -0.004,0.0039 h -0.0137 c -0.003,0 -0.007,1.9e-5 -0.01,0 -0.007,-1.2e-5 -0.0125,-1.27e-4 -0.0195,0 -0.004,-2.4e-4 -0.007,-8.54e-4 -0.01,0 -0.004,-0.0016 -0.008,-0.0023 -0.0117,-0.0039 -0.004,-5e-6 -0.008,6e-6 -0.0117,0 -8e-4,1e-5 -0.001,-2.2e-5 -0.002,0 -0.002,-3.6e-5 -0.005,2.9e-5 -0.008,0 3e-4,-2.31e-4 -10e-4,1.08e-4 -0.002,0 -0.001,1.52e-4 -0.004,0.0013 -0.004,0 -3.9e-4,-0.0015 -0.002,0.0012 -0.002,0 -0.006,0.0029 -0.0155,-2.59e-4 -0.0215,-0.002 -0.002,-4.2e-4 -0.003,-0.0014 -0.004,-0.002 h -0.006 -0.006 -0.0117 -0.002 -0.0137 -0.004 -0.008 -0.004 -0.0137 c -0.002,-1.6e-5 -0.003,-9.3e-5 -0.004,0 h -0.006 -0.01 -0.0117 -0.008 -0.008 -0.01 -0.0156 -0.0117 -0.006 c -0.004,0 -0.007,2e-6 -0.01,0 -0.0107,-8e-6 -0.0206,-1.9e-5 -0.0312,0 -5e-4,0 -0.0218,0.0012 -0.0117,0 -0.0102,0.0017 -0.0191,9.1e-4 -0.0293,0 0.005,-0.0021 1e-5,-0.0031 0.002,-0.0039 -0.003,0.0015 -0.006,0.0078 -0.0117,0.0078 0,0 -0.002,0 -0.002,0 -0.004,1.11e-4 -5.2e-4,-0.0062 0,-0.01172 9e-5,-9.16e-4 1.3e-4,-0.0011 0,-0.002 -2.8e-4,-8.76e-4 1.8e-4,-0.0012 0,-0.002 z m -0.17383,0.02734 c 0.004,-0.0014 0.006,-0.0045 0.01,-0.0059 5.2e-4,-0.0015 0.002,-0.0023 0.002,-0.0039 -0.008,0.0098 -0.0156,0.01643 -0.0273,0.01172 0.005,-8e-4 0.0106,-0.0014 0.0156,-0.002 z" /><path
         style="color:#000000;font-style:normal;font-variant:normal;font-weight:normal;font-stretch:normal;font-size:medium;line-height:normal;font-family:sans-serif;font-variant-ligatures:normal;font-variant-position:normal;font-variant-caps:normal;font-variant-numeric:normal;font-variant-alternates:normal;font-variant-east-asian:normal;font-feature-settings:normal;font-variation-settings:normal;text-indent:0;text-align:start;text-decoration:none;text-decoration-line:none;text-decoration-style:solid;text-decoration-color:#000000;letter-spacing:normal;word-spacing:normal;text-transform:none;writing-mode:lr-tb;direction:ltr;text-orientation:mixed;dominant-baseline:auto;baseline-shift:baseline;text-anchor:start;white-space:normal;shape-padding:0;shape-margin:0;inline-size:0;clip-rule:nonzero;display:inline;overflow:visible;visibility:visible;isolation:auto;mix-blend-mode:normal;color-interpolation:sRGB;color-interpolation-filters:linearRGB;solid-color:#000000;solid-opacity:1;vector-effect:none;fill:#ffffff;fill-opacity:1;fill-rule:nonzero;stroke:none;stroke-width:0.948438;stroke-linecap:round;stroke-linejoin:round;stroke-miterlimit:10;stroke-dasharray:none;stroke-dashoffset:0;stroke-opacity:1;color-rendering:auto;image-rendering:auto;shape-rendering:auto;text-rendering:auto;enable-background:accumulate;stop-color:#000000"
         d="m 27.372013,78.526881 c -8.904257,0 -16.192033,7.138824 -16.192033,15.990831 0,0.575541 0.07411,1.1318 0.134388,1.691102 -5.3176988,1.126772 -9.3618118,6.004426 -9.3618118,11.973756 0,6.78798 5.180053,12.3422 11.5755958,12.3422 h 39.025413 a 0.9298251,0.96742352 0 0 0 0.929825,-0.96742 0.9298251,0.96742352 0 0 0 -0.929825,-0.96742 H 13.528152 c -5.3630258,0 -9.7159458,-4.63818 -9.7159458,-10.40736 0,-5.3653 3.769349,-9.745601 8.5954348,-10.33934 a 0.92991808,0.96752026 0 0 0 0.808148,-1.120473 c -0.11528,-0.716039 -0.176159,-1.45441 -0.176159,-2.205045 0,-7.747045 6.37891,-14.055984 14.332383,-14.055985 7.511997,0 13.622411,5.643162 14.276084,12.782462 a 0.9298251,0.96742352 0 0 0 1.013364,0.871059 0.9298251,0.96742352 0 0 0 0.837207,-1.05434 C 42.750164,84.885894 35.782341,78.526881 27.372013,78.526881 Z"
         id="path996" /></g></g></svg>
