<?xml version="1.0" encoding="UTF-8" standalone="no"?>
<svg
   xmlns:dc="http://purl.org/dc/elements/1.1/"
   xmlns:cc="http://creativecommons.org/ns#"
   xmlns:rdf="http://www.w3.org/1999/02/22-rdf-syntax-ns#"
   xmlns:svg="http://www.w3.org/2000/svg"
   xmlns="http://www.w3.org/2000/svg"
   xmlns:sodipodi="http://sodipodi.sourceforge.net/DTD/sodipodi-0.dtd"
   xmlns:inkscape="http://www.inkscape.org/namespaces/inkscape"
   viewBox="0 0 737.00783 755.90625"
   version="1.1"
   id="svg21942"
   sodipodi:docname="11d.svg"
   inkscape:version="1.0.2 (e86c8708, 2021-01-15)"
   width="195mm"
   height="200mm">
  <metadata
     id="metadata21946">
    <rdf:RDF>
      <cc:Work
         rdf:about="">
        <dc:format>image/svg+xml</dc:format>
        <dc:type
           rdf:resource="http://purl.org/dc/dcmitype/StillImage" />
        <dc:title></dc:title>
      </cc:Work>
    </rdf:RDF>
  </metadata>
  <sodipodi:namedview
     pagecolor="#060606"
     bordercolor="#666666"
     borderopacity="1"
     objecttolerance="10"
     gridtolerance="10"
     guidetolerance="10"
     inkscape:pageopacity="0"
     inkscape:pageshadow="2"
     inkscape:window-width="1503"
     inkscape:window-height="992"
     id="namedview21944"
     showgrid="false"
     showborder="true"
     inkscape:zoom="0.66608392"
     inkscape:cx="253.20729"
     inkscape:cy="461.14272"
     inkscape:window-x="143"
     inkscape:window-y="25"
     inkscape:window-maximized="0"
     inkscape:current-layer="svg21942"
     inkscape:document-rotation="0"
     inkscape:pagecheckerboard="true"
     units="mm" />
  <defs
     id="defs21930">
    <style
       id="style21928">.cls-1{fill:#4d4d4d;}</style>
    <filter
       inkscape:collect="always"
       style="color-interpolation-filters:sRGB"
       id="filter2279"
       x="-0.10801836"
       width="1.2160367"
       y="-0.10376852"
       height="1.2075371">
      <feGaussianBlur
         inkscape:collect="always"
         stdDeviation="2.852894"
         id="feGaussianBlur2281" />
    </filter>
    <filter
       inkscape:collect="always"
       style="color-interpolation-filters:sRGB"
       id="filter2287"
       x="-0.091474853"
       width="1.1829497"
       y="-0.087875903"
       height="1.1757518">
      <feGaussianBlur
         inkscape:collect="always"
         stdDeviation="2.4159604"
         id="feGaussianBlur2289" />
    </filter>
    <filter
       inkscape:collect="always"
       style="color-interpolation-filters:sRGB"
       id="filter2379"
       x="-0.064779907"
       width="1.1295598"
       y="-0.062231235"
       height="1.1244625">
      <feGaussianBlur
         inkscape:collect="always"
         stdDeviation="1.7109149"
         id="feGaussianBlur2381" />
    </filter>
  </defs>
  <g
     id="g61"
     transform="matrix(9.2251398,0,0,9.2251398,496.31321,373.2534)">
    <g
       id="g2089"
       transform="translate(4.5961941,-0.70710679)"
       style="fill:#0fffff;fill-opacity:1;stroke:#0fffff;stroke-width:6.2;stroke-linecap:round;stroke-linejoin:round;stroke-miterlimit:4;stroke-dasharray:none;stroke-opacity:1;filter:url(#filter2279)">
      <path
         id="path15683"
         style="color:#000000;font-style:normal;font-variant:normal;font-weight:normal;font-stretch:normal;font-size:medium;line-height:normal;font-family:sans-serif;font-variant-ligatures:normal;font-variant-position:normal;font-variant-caps:normal;font-variant-numeric:normal;font-variant-alternates:normal;font-variant-east-asian:normal;font-feature-settings:normal;font-variation-settings:normal;text-indent:0;text-align:start;text-decoration:none;text-decoration-line:none;text-decoration-style:solid;text-decoration-color:#000000;letter-spacing:normal;word-spacing:normal;text-transform:none;writing-mode:lr-tb;direction:ltr;text-orientation:mixed;dominant-baseline:auto;baseline-shift:baseline;text-anchor:start;white-space:normal;shape-padding:0;shape-margin:0;inline-size:0;clip-rule:nonzero;display:inline;overflow:visible;visibility:visible;isolation:auto;mix-blend-mode:normal;color-interpolation:sRGB;color-interpolation-filters:linearRGB;solid-color:#000000;solid-opacity:1;vector-effect:none;fill:#0fffff;fill-opacity:1;fill-rule:nonzero;stroke:#0fffff;stroke-width:6.2;stroke-linecap:round;stroke-linejoin:round;stroke-miterlimit:4;stroke-dasharray:none;stroke-dashoffset:0;stroke-opacity:1;color-rendering:auto;image-rendering:auto;shape-rendering:auto;text-rendering:auto;enable-background:accumulate;stop-color:#000000"
         d="m -25.054099,-31.78248 c -8.90425,0 -16.19336,7.13822 -16.19336,15.99023 0,0.57554 0.0745,1.13211 0.13476,1.69141 -5.31771,1.12678 -9.36133,6.00528 -9.36133,11.97461 0,6.78798 5.18073,12.37715 11.57618,12.34179 l 5.65234,-0.0312 c 1.13532,0.0843 1.31826,-1.72133 0.0156,-1.91992 l -5.66797,0.0156 c -5.363,0.0148 -9.7168,-4.63707 -9.7168,-10.40625 0,-5.3653 3.76961,-9.74611 8.5957,-10.33985 0.52798,-0.0645 0.89661,-0.57562 0.8086,-1.12109 -0.11528,-0.71604 -0.17579,-1.45444 -0.17579,-2.20508 0,-7.74704 6.37857,-14.05469 14.33204,-14.05469 7.512,0 13.621706,5.64195 14.275386,12.78125 0.04881,0.53173 0.502585,0.92169 1.013672,0.8711 0.51134,-0.0504 0.886516,-0.52269 0.837891,-1.05469 -0.74851,-8.17502 -7.716619,-14.5332 -16.126949,-14.5332 z"
         sodipodi:nodetypes="sscssccssccsscccss" />
      <path
         id="path15685"
         style="color:#000000;font-style:normal;font-variant:normal;font-weight:normal;font-stretch:normal;font-size:medium;line-height:normal;font-family:sans-serif;font-variant-ligatures:normal;font-variant-position:normal;font-variant-caps:normal;font-variant-numeric:normal;font-variant-alternates:normal;font-variant-east-asian:normal;font-feature-settings:normal;font-variation-settings:normal;text-indent:0;text-align:start;text-decoration:none;text-decoration-line:none;text-decoration-style:solid;text-decoration-color:#000000;letter-spacing:normal;word-spacing:normal;text-transform:none;writing-mode:lr-tb;direction:ltr;text-orientation:mixed;dominant-baseline:auto;baseline-shift:baseline;text-anchor:start;white-space:normal;shape-padding:0;shape-margin:0;inline-size:0;clip-rule:nonzero;display:inline;overflow:visible;visibility:visible;isolation:auto;mix-blend-mode:normal;color-interpolation:sRGB;color-interpolation-filters:linearRGB;solid-color:#000000;solid-opacity:1;vector-effect:none;fill:#0fffff;fill-opacity:1;fill-rule:nonzero;stroke:#0fffff;stroke-width:6.2;stroke-linecap:round;stroke-linejoin:round;stroke-miterlimit:4;stroke-dasharray:none;stroke-dashoffset:0;stroke-opacity:1;color-rendering:auto;image-rendering:auto;shape-rendering:auto;text-rendering:auto;enable-background:accumulate;stop-color:#000000"
         d="m -7.1859353,-18.170598 c 3.6e-4,0.002 -0.002,0.002 -0.002,0.004 2.2e-4,0.004 0.005,0.0129 0,0.0117 -0.004,10e-6 -0.009,4e-5 -0.0117,0 -8.8e-4,10e-6 -0.005,-3e-5 -0.008,0 0,0 -0.002,0 -0.002,0 h -0.002 -0.002 c -0.002,-1.5e-4 -0.004,9e-5 -0.006,0 -0.002,-10e-5 -0.005,10e-4 -0.006,0 -10e-4,-0.001 0.002,-0.003 0.002,-0.004 -0.004,-0.008 -0.001,-0.004 -0.004,-0.008 -7.7e-4,0 -10e-4,0 -0.002,0 -0.002,-2e-5 -0.004,4e-5 -0.006,0 -10e-4,-0.001 -9.4e-4,0.008 -0.002,0.004 h -0.002 c -2.1e-4,0.004 1.4e-4,0.008 0,0.0117 h -0.002 c -0.002,-2e-5 -0.006,10e-6 -0.008,0 -0.003,-3e-5 -0.009,0.003 -0.01,0 -10e-4,-0.004 -10e-4,-0.008 -0.002,-0.0117 h -0.004 -0.002 c -5.9e-4,0.003 4.8e-4,0.003 0,0.006 -4.9e-4,0.002 1.1e-4,0.004 0,0.006 5.6e-4,-0.002 0.001,-0.004 0.002,-0.006 7.7e-4,7.1e-4 0.002,-2.7e-4 0.002,0.006 0,0.001 -0.003,-10e-6 -0.004,0 -5e-4,0 -0.0197,7.6e-4 -0.0137,0 -0.002,6.4e-4 -0.003,0.002 -0.006,0.002 -0.002,8.6e-4 -0.004,10e-4 -0.006,0.002 -0.005,0.002 -0.01,0.004 -0.0156,0.004 -0.005,0 -0.0106,10e-6 -0.0156,0 -0.005,0 -0.009,-10e-6 -0.0137,0 -0.003,-2e-5 -0.009,-3.2e-4 -0.0117,0 -10e-4,10e-5 -0.0147,10e-4 -0.0117,0 -0.003,10e-4 -0.007,0.005 -0.01,0.006 -0.01,0.003 -0.0105,0.002 -0.0195,0.002 h -0.008 c -0.007,0 -0.013,-4.8e-4 -0.0195,-0.002 -0.001,-2.9e-4 -0.003,5e-4 -0.004,0 0,0 0.002,0.002 0.002,0.002 -8.3e-4,0.001 0.0118,-0.003 -0.0137,0.004 h -0.0176 -0.0156 -0.041 -0.0117 c -0.002,0 -0.004,2e-5 -0.006,0 0,9.8e-4 -0.003,0 -0.004,0 h -0.01 -0.0176 -0.0156 c -0.001,0 -5.7e-4,-0.002 -0.002,-0.002 -3.4892097,0.29825 -6.5828587,2.03809 -8.6581887,4.66602 -0.34191,0.43365 -0.26757,1.06233 0.16601,1.4043 0.43365,0.34188 1.06232,0.26756 1.40429,-0.16602 1.808709,-2.29031 4.498349,-3.78733 7.5390587,-3.96094 5.67799,0.0172 11.00391,5.60292 11.00391,11.5019599 9e-5,0.49865 0.3675,0.92104 0.861328,0.99023 3.55263,0.49491 6.1718703,3.18957 6.1718703,6.35742 0,3.503 -3.2104703,6.43946 -7.3300683,6.43946 -0.55228,0 -1,0.44771 -1,1.0000001 0,0.55228 0.44772,1 1,1 5.084398,0 9.3300683,-3.7264601 9.3300683,-8.4394601 0,-3.99252 -3.0957203,-7.18792 -7.1113303,-8.09375 -0.40193,-6.6160799 -5.97719803,-12.4457199 -12.486318,-12.7167899 -0.002,-9e-5 -0.004,8e-5 -0.006,0 -0.0119,-4.9e-4 -0.0233,-0.004 -0.0352,-0.004 -0.005,-2e-4 -0.0104,1.9e-4 -0.0156,0 h -0.0117 -0.002 -0.01 -0.006 c 0,0 -0.002,0 -0.002,0 h -0.002 c -0.003,0 -0.005,0 -0.008,0 h -0.002 c -0.002,0 -0.0146,-2.1e-4 -0.008,0 -0.001,5e-5 -0.003,-1.5e-4 -0.004,0 -0.001,1.4e-4 -0.003,-10e-5 -0.004,0 -8.5e-4,4e-5 -0.001,0 -0.002,0 -0.001,1.5e-4 -0.003,1.1e-4 -0.004,0 h -0.002 -0.002 -0.002 c -0.001,1.2e-4 -0.002,0.004 -0.004,0.004 h -0.0137 c -0.003,0 -0.007,2e-5 -0.01,0 -0.007,-2e-5 -0.0125,-1.3e-4 -0.0195,0 -0.004,-2.4e-4 -0.007,-8.6e-4 -0.01,0 -0.004,-0.002 -0.008,-0.002 -0.0117,-0.004 -0.004,-10e-6 -0.008,0 -0.0117,0 -8e-4,10e-6 -10e-4,-3e-5 -0.002,0 -0.002,-4e-5 -0.005,3e-5 -0.008,0 3e-4,-2.3e-4 -0.001,10e-5 -0.002,0 -0.001,1.5e-4 -0.004,0.001 -0.004,0 -3.9e-4,-10e-4 -0.002,0.001 -0.002,0 -0.006,0.003 -0.0155,-2.6e-4 -0.0215,-0.002 -0.002,-4.2e-4 -0.003,-0.001 -0.004,-0.002 h -0.006 -0.006 -0.0117 -0.002 -0.0137 -0.004 -0.008 -0.004 -0.0137 c -0.002,-2e-5 -0.003,-10e-5 -0.004,0 h -0.006 -0.01 -0.0117 -0.008 -0.008 -0.01 -0.0156 -0.0117 -0.006 c -0.004,0 -0.007,0 -0.01,0 -0.0107,-10e-6 -0.0206,-2e-5 -0.0312,0 -5e-4,0 -0.0218,10e-4 -0.0117,0 -0.0102,0.002 -0.0191,9.1e-4 -0.0293,0 0.005,-0.002 1e-5,-0.003 0.002,-0.004 -0.003,0.001 -0.006,0.008 -0.0117,0.008 0,0 -0.002,0 -0.002,0 -0.004,1.1e-4 -5.2e-4,-0.006 0,-0.0117 9e-5,-9.2e-4 1.3e-4,-0.001 0,-0.002 -2.8e-4,-8.8e-4 1.8e-4,-10e-4 0,-0.002 z m -0.17383,0.0273 c 0.004,-10e-4 0.006,-0.005 0.01,-0.006 5.1e-4,-10e-4 0.002,-0.002 0.002,-0.004 -0.008,0.01 -0.0156,0.0164 -0.0273,0.0117 0.005,-8e-4 0.0106,-0.001 0.0156,-0.002 z" />
      <path
         style="color:#000000;font-style:normal;font-variant:normal;font-weight:normal;font-stretch:normal;font-size:medium;line-height:normal;font-family:sans-serif;font-variant-ligatures:normal;font-variant-position:normal;font-variant-caps:normal;font-variant-numeric:normal;font-variant-alternates:normal;font-variant-east-asian:normal;font-feature-settings:normal;font-variation-settings:normal;text-indent:0;text-align:start;text-decoration:none;text-decoration-line:none;text-decoration-style:solid;text-decoration-color:#000000;letter-spacing:normal;word-spacing:normal;text-transform:none;writing-mode:lr-tb;direction:ltr;text-orientation:mixed;dominant-baseline:auto;baseline-shift:baseline;text-anchor:start;white-space:normal;shape-padding:0;shape-margin:0;inline-size:0;clip-rule:nonzero;display:inline;overflow:visible;visibility:visible;opacity:1;isolation:auto;mix-blend-mode:normal;color-interpolation:sRGB;color-interpolation-filters:linearRGB;solid-color:#000000;solid-opacity:1;vector-effect:none;fill:#0fffff;fill-opacity:1;fill-rule:nonzero;stroke:#0fffff;stroke-width:6.2;stroke-linecap:round;stroke-linejoin:round;stroke-miterlimit:4;stroke-dasharray:none;stroke-dashoffset:0;stroke-opacity:1;color-rendering:auto;image-rendering:auto;shape-rendering:auto;text-rendering:auto;enable-background:accumulate;stop-color:#000000;stop-opacity:1"
         d="m -16.927635,7.4735192 a 0.96056966,1.2398848 0 0 0 -0.889903,0.8548426 l -4.09743,16.1943792 5.546414,-3.232094 -2.203807,11.368838 a 0.96056966,1.2398848 0 0 0 0.69854,1.503848 0.96056966,1.2398848 0 0 0 1.165066,-0.902471 l 3.167503,-16.338871 -5.195581,3.028674 2.745378,-10.852219 a 0.96056966,1.2398848 0 0 0 -0.61474,-1.5635773 0.96056966,1.2398848 0 0 0 -0.32144,-0.061349 z"
         id="polyline862" />
    </g>
    <g
       id="g2097"
       transform="translate(4.5961941,-0.7071063)"
       style="fill:#68f3f3;fill-opacity:1;stroke:#67f3f3;stroke-width:4.8;stroke-linecap:round;stroke-linejoin:round;stroke-miterlimit:4;stroke-dasharray:none;stroke-opacity:0.976471;filter:url(#filter2287)">
      <path
         id="path2091"
         style="color:#000000;font-style:normal;font-variant:normal;font-weight:normal;font-stretch:normal;font-size:medium;line-height:normal;font-family:sans-serif;font-variant-ligatures:normal;font-variant-position:normal;font-variant-caps:normal;font-variant-numeric:normal;font-variant-alternates:normal;font-variant-east-asian:normal;font-feature-settings:normal;font-variation-settings:normal;text-indent:0;text-align:start;text-decoration:none;text-decoration-line:none;text-decoration-style:solid;text-decoration-color:#000000;letter-spacing:normal;word-spacing:normal;text-transform:none;writing-mode:lr-tb;direction:ltr;text-orientation:mixed;dominant-baseline:auto;baseline-shift:baseline;text-anchor:start;white-space:normal;shape-padding:0;shape-margin:0;inline-size:0;clip-rule:nonzero;display:inline;overflow:visible;visibility:visible;isolation:auto;mix-blend-mode:normal;color-interpolation:sRGB;color-interpolation-filters:linearRGB;solid-color:#000000;solid-opacity:1;vector-effect:none;fill:#68f3f3;fill-opacity:1;fill-rule:nonzero;stroke:#67f3f3;stroke-width:4.8;stroke-linecap:round;stroke-linejoin:round;stroke-miterlimit:4;stroke-dasharray:none;stroke-dashoffset:0;stroke-opacity:0.976471;color-rendering:auto;image-rendering:auto;shape-rendering:auto;text-rendering:auto;enable-background:accumulate;stop-color:#000000"
         d="m -25.054099,-31.78248 c -8.90425,0 -16.19336,7.13822 -16.19336,15.99023 0,0.57554 0.0745,1.13211 0.13476,1.69141 -5.31771,1.12678 -9.36133,6.00528 -9.36133,11.97461 0,6.78798 5.18073,12.37715 11.57618,12.34179 l 5.65234,-0.0312 c 1.13532,0.0843 1.31826,-1.72133 0.0156,-1.91992 l -5.66797,0.0156 c -5.363,0.0148 -9.7168,-4.63707 -9.7168,-10.40625 0,-5.3653 3.76961,-9.74611 8.5957,-10.33985 0.52798,-0.0645 0.89661,-0.57562 0.8086,-1.12109 -0.11528,-0.71604 -0.17579,-1.45444 -0.17579,-2.20508 0,-7.74704 6.37857,-14.05469 14.33204,-14.05469 7.512,0 13.621706,5.64195 14.275386,12.78125 0.04881,0.53173 0.502585,0.92169 1.013672,0.8711 0.51134,-0.0504 0.886516,-0.52269 0.837891,-1.05469 -0.74851,-8.17502 -7.716619,-14.5332 -16.126949,-14.5332 z"
         sodipodi:nodetypes="sscssccssccsscccss" />
      <path
         id="path2093"
         style="color:#000000;font-style:normal;font-variant:normal;font-weight:normal;font-stretch:normal;font-size:medium;line-height:normal;font-family:sans-serif;font-variant-ligatures:normal;font-variant-position:normal;font-variant-caps:normal;font-variant-numeric:normal;font-variant-alternates:normal;font-variant-east-asian:normal;font-feature-settings:normal;font-variation-settings:normal;text-indent:0;text-align:start;text-decoration:none;text-decoration-line:none;text-decoration-style:solid;text-decoration-color:#000000;letter-spacing:normal;word-spacing:normal;text-transform:none;writing-mode:lr-tb;direction:ltr;text-orientation:mixed;dominant-baseline:auto;baseline-shift:baseline;text-anchor:start;white-space:normal;shape-padding:0;shape-margin:0;inline-size:0;clip-rule:nonzero;display:inline;overflow:visible;visibility:visible;isolation:auto;mix-blend-mode:normal;color-interpolation:sRGB;color-interpolation-filters:linearRGB;solid-color:#000000;solid-opacity:1;vector-effect:none;fill:#68f3f3;fill-opacity:1;fill-rule:nonzero;stroke:#67f3f3;stroke-width:4.8;stroke-linecap:round;stroke-linejoin:round;stroke-miterlimit:4;stroke-dasharray:none;stroke-dashoffset:0;stroke-opacity:0.976471;color-rendering:auto;image-rendering:auto;shape-rendering:auto;text-rendering:auto;enable-background:accumulate;stop-color:#000000"
         d="m -7.1859353,-18.170598 c 3.6e-4,0.002 -0.002,0.002 -0.002,0.004 2.2e-4,0.004 0.005,0.0129 0,0.0117 -0.004,10e-6 -0.009,4e-5 -0.0117,0 -8.8e-4,10e-6 -0.005,-3e-5 -0.008,0 0,0 -0.002,0 -0.002,0 h -0.002 -0.002 c -0.002,-1.5e-4 -0.004,9e-5 -0.006,0 -0.002,-10e-5 -0.005,10e-4 -0.006,0 -10e-4,-0.001 0.002,-0.003 0.002,-0.004 -0.004,-0.008 -0.001,-0.004 -0.004,-0.008 -7.7e-4,0 -10e-4,0 -0.002,0 -0.002,-2e-5 -0.004,4e-5 -0.006,0 -10e-4,-0.001 -9.4e-4,0.008 -0.002,0.004 h -0.002 c -2.1e-4,0.004 1.4e-4,0.008 0,0.0117 h -0.002 c -0.002,-2e-5 -0.006,10e-6 -0.008,0 -0.003,-3e-5 -0.009,0.003 -0.01,0 -10e-4,-0.004 -10e-4,-0.008 -0.002,-0.0117 h -0.004 -0.002 c -5.9e-4,0.003 4.8e-4,0.003 0,0.006 -4.9e-4,0.002 1.1e-4,0.004 0,0.006 5.6e-4,-0.002 0.001,-0.004 0.002,-0.006 7.7e-4,7.1e-4 0.002,-2.7e-4 0.002,0.006 0,0.001 -0.003,-10e-6 -0.004,0 -5e-4,0 -0.0197,7.6e-4 -0.0137,0 -0.002,6.4e-4 -0.003,0.002 -0.006,0.002 -0.002,8.6e-4 -0.004,10e-4 -0.006,0.002 -0.005,0.002 -0.01,0.004 -0.0156,0.004 -0.005,0 -0.0106,10e-6 -0.0156,0 -0.005,0 -0.009,-10e-6 -0.0137,0 -0.003,-2e-5 -0.009,-3.2e-4 -0.0117,0 -10e-4,10e-5 -0.0147,10e-4 -0.0117,0 -0.003,10e-4 -0.007,0.005 -0.01,0.006 -0.01,0.003 -0.0105,0.002 -0.0195,0.002 h -0.008 c -0.007,0 -0.013,-4.8e-4 -0.0195,-0.002 -0.001,-2.9e-4 -0.003,5e-4 -0.004,0 0,0 0.002,0.002 0.002,0.002 -8.3e-4,0.001 0.0118,-0.003 -0.0137,0.004 h -0.0176 -0.0156 -0.041 -0.0117 c -0.002,0 -0.004,2e-5 -0.006,0 0,9.8e-4 -0.003,0 -0.004,0 h -0.01 -0.0176 -0.0156 c -0.001,0 -5.7e-4,-0.002 -0.002,-0.002 -3.4892097,0.29825 -6.5828587,2.03809 -8.6581887,4.66602 -0.34191,0.43365 -0.26757,1.06233 0.16601,1.4043 0.43365,0.34188 1.06232,0.26756 1.40429,-0.16602 1.808709,-2.29031 4.498349,-3.78733 7.5390587,-3.96094 5.67799,0.0172 11.00391,5.60292 11.00391,11.5019599 9e-5,0.49865 0.3675,0.92104 0.861328,0.99023 3.55263,0.49491 6.1718703,3.18957 6.1718703,6.35742 0,3.503 -3.2104703,6.43946 -7.3300683,6.43946 -0.55228,0 -1,0.44771 -1,1.0000001 0,0.55228 0.44772,1 1,1 5.084398,0 9.3300683,-3.7264601 9.3300683,-8.4394601 0,-3.99252 -3.0957203,-7.18792 -7.1113303,-8.09375 -0.40193,-6.6160799 -5.97719803,-12.4457199 -12.486318,-12.7167899 -0.002,-9e-5 -0.004,8e-5 -0.006,0 -0.0119,-4.9e-4 -0.0233,-0.004 -0.0352,-0.004 -0.005,-2e-4 -0.0104,1.9e-4 -0.0156,0 h -0.0117 -0.002 -0.01 -0.006 c 0,0 -0.002,0 -0.002,0 h -0.002 c -0.003,0 -0.005,0 -0.008,0 h -0.002 c -0.002,0 -0.0146,-2.1e-4 -0.008,0 -0.001,5e-5 -0.003,-1.5e-4 -0.004,0 -0.001,1.4e-4 -0.003,-10e-5 -0.004,0 -8.5e-4,4e-5 -0.001,0 -0.002,0 -0.001,1.5e-4 -0.003,1.1e-4 -0.004,0 h -0.002 -0.002 -0.002 c -0.001,1.2e-4 -0.002,0.004 -0.004,0.004 h -0.0137 c -0.003,0 -0.007,2e-5 -0.01,0 -0.007,-2e-5 -0.0125,-1.3e-4 -0.0195,0 -0.004,-2.4e-4 -0.007,-8.6e-4 -0.01,0 -0.004,-0.002 -0.008,-0.002 -0.0117,-0.004 -0.004,-10e-6 -0.008,0 -0.0117,0 -8e-4,10e-6 -10e-4,-3e-5 -0.002,0 -0.002,-4e-5 -0.005,3e-5 -0.008,0 3e-4,-2.3e-4 -0.001,10e-5 -0.002,0 -0.001,1.5e-4 -0.004,0.001 -0.004,0 -3.9e-4,-10e-4 -0.002,0.001 -0.002,0 -0.006,0.003 -0.0155,-2.6e-4 -0.0215,-0.002 -0.002,-4.2e-4 -0.003,-0.001 -0.004,-0.002 h -0.006 -0.006 -0.0117 -0.002 -0.0137 -0.004 -0.008 -0.004 -0.0137 c -0.002,-2e-5 -0.003,-10e-5 -0.004,0 h -0.006 -0.01 -0.0117 -0.008 -0.008 -0.01 -0.0156 -0.0117 -0.006 c -0.004,0 -0.007,0 -0.01,0 -0.0107,-10e-6 -0.0206,-2e-5 -0.0312,0 -5e-4,0 -0.0218,10e-4 -0.0117,0 -0.0102,0.002 -0.0191,9.1e-4 -0.0293,0 0.005,-0.002 1e-5,-0.003 0.002,-0.004 -0.003,0.001 -0.006,0.008 -0.0117,0.008 0,0 -0.002,0 -0.002,0 -0.004,1.1e-4 -5.2e-4,-0.006 0,-0.0117 9e-5,-9.2e-4 1.3e-4,-0.001 0,-0.002 -2.8e-4,-8.8e-4 1.8e-4,-10e-4 0,-0.002 z m -0.17383,0.0273 c 0.004,-10e-4 0.006,-0.005 0.01,-0.006 5.1e-4,-10e-4 0.002,-0.002 0.002,-0.004 -0.008,0.01 -0.0156,0.0164 -0.0273,0.0117 0.005,-8e-4 0.0106,-0.001 0.0156,-0.002 z" />
      <path
         style="color:#000000;font-style:normal;font-variant:normal;font-weight:normal;font-stretch:normal;font-size:medium;line-height:normal;font-family:sans-serif;font-variant-ligatures:normal;font-variant-position:normal;font-variant-caps:normal;font-variant-numeric:normal;font-variant-alternates:normal;font-variant-east-asian:normal;font-feature-settings:normal;font-variation-settings:normal;text-indent:0;text-align:start;text-decoration:none;text-decoration-line:none;text-decoration-style:solid;text-decoration-color:#000000;letter-spacing:normal;word-spacing:normal;text-transform:none;writing-mode:lr-tb;direction:ltr;text-orientation:mixed;dominant-baseline:auto;baseline-shift:baseline;text-anchor:start;white-space:normal;shape-padding:0;shape-margin:0;inline-size:0;clip-rule:nonzero;display:inline;overflow:visible;visibility:visible;opacity:1;isolation:auto;mix-blend-mode:normal;color-interpolation:sRGB;color-interpolation-filters:linearRGB;solid-color:#000000;solid-opacity:1;vector-effect:none;fill:#68f3f3;fill-opacity:1;fill-rule:nonzero;stroke:#67f3f3;stroke-width:4.8;stroke-linecap:round;stroke-linejoin:round;stroke-miterlimit:4;stroke-dasharray:none;stroke-dashoffset:0;stroke-opacity:0.976471;color-rendering:auto;image-rendering:auto;shape-rendering:auto;text-rendering:auto;enable-background:accumulate;stop-color:#000000;stop-opacity:1"
         d="m -16.927635,7.4735192 a 0.96056966,1.2398848 0 0 0 -0.889903,0.8548426 l -4.09743,16.1943792 5.546414,-3.232094 -2.203807,11.368838 a 0.96056966,1.2398848 0 0 0 0.69854,1.503848 0.96056966,1.2398848 0 0 0 1.165066,-0.902471 l 3.167503,-16.338871 -5.195581,3.028674 2.745378,-10.852219 a 0.96056966,1.2398848 0 0 0 -0.61474,-1.5635773 0.96056966,1.2398848 0 0 0 -0.32144,-0.061349 z"
         id="path2095" />
    </g>
    <g
       id="g2105"
       transform="translate(4.5961946,-0.70710679)"
       style="fill:#a8f1f1;fill-opacity:1;stroke:#a8f1f1;stroke-width:3.9;stroke-miterlimit:4;stroke-dasharray:none;stroke-opacity:0.984314;filter:url(#filter2379)">
      <path
         id="path2099"
         style="color:#000000;font-style:normal;font-variant:normal;font-weight:normal;font-stretch:normal;font-size:medium;line-height:normal;font-family:sans-serif;font-variant-ligatures:normal;font-variant-position:normal;font-variant-caps:normal;font-variant-numeric:normal;font-variant-alternates:normal;font-variant-east-asian:normal;font-feature-settings:normal;font-variation-settings:normal;text-indent:0;text-align:start;text-decoration:none;text-decoration-line:none;text-decoration-style:solid;text-decoration-color:#000000;letter-spacing:normal;word-spacing:normal;text-transform:none;writing-mode:lr-tb;direction:ltr;text-orientation:mixed;dominant-baseline:auto;baseline-shift:baseline;text-anchor:start;white-space:normal;shape-padding:0;shape-margin:0;inline-size:0;clip-rule:nonzero;display:inline;overflow:visible;visibility:visible;isolation:auto;mix-blend-mode:normal;color-interpolation:sRGB;color-interpolation-filters:linearRGB;solid-color:#000000;solid-opacity:1;vector-effect:none;fill:#a8f1f1;fill-opacity:1;fill-rule:nonzero;stroke:#a8f1f1;stroke-width:3.9;stroke-linecap:round;stroke-linejoin:round;stroke-miterlimit:4;stroke-dasharray:none;stroke-dashoffset:0;stroke-opacity:0.984314;color-rendering:auto;image-rendering:auto;shape-rendering:auto;text-rendering:auto;enable-background:accumulate;stop-color:#000000"
         d="m -25.054099,-31.78248 c -8.90425,0 -16.19336,7.13822 -16.19336,15.99023 0,0.57554 0.0745,1.13211 0.13476,1.69141 -5.31771,1.12678 -9.36133,6.00528 -9.36133,11.97461 0,6.78798 5.18073,12.37715 11.57618,12.34179 l 5.65234,-0.0312 c 1.13532,0.0843 1.31826,-1.72133 0.0156,-1.91992 l -5.66797,0.0156 c -5.363,0.0148 -9.7168,-4.63707 -9.7168,-10.40625 0,-5.3653 3.76961,-9.74611 8.5957,-10.33985 0.52798,-0.0645 0.89661,-0.57562 0.8086,-1.12109 -0.11528,-0.71604 -0.17579,-1.45444 -0.17579,-2.20508 0,-7.74704 6.37857,-14.05469 14.33204,-14.05469 7.512,0 13.621706,5.64195 14.275386,12.78125 0.04881,0.53173 0.502585,0.92169 1.013672,0.8711 0.51134,-0.0504 0.886516,-0.52269 0.837891,-1.05469 -0.74851,-8.17502 -7.716619,-14.5332 -16.126949,-14.5332 z"
         sodipodi:nodetypes="sscssccssccsscccss" />
      <path
         id="path2101"
         style="color:#000000;font-style:normal;font-variant:normal;font-weight:normal;font-stretch:normal;font-size:medium;line-height:normal;font-family:sans-serif;font-variant-ligatures:normal;font-variant-position:normal;font-variant-caps:normal;font-variant-numeric:normal;font-variant-alternates:normal;font-variant-east-asian:normal;font-feature-settings:normal;font-variation-settings:normal;text-indent:0;text-align:start;text-decoration:none;text-decoration-line:none;text-decoration-style:solid;text-decoration-color:#000000;letter-spacing:normal;word-spacing:normal;text-transform:none;writing-mode:lr-tb;direction:ltr;text-orientation:mixed;dominant-baseline:auto;baseline-shift:baseline;text-anchor:start;white-space:normal;shape-padding:0;shape-margin:0;inline-size:0;clip-rule:nonzero;display:inline;overflow:visible;visibility:visible;isolation:auto;mix-blend-mode:normal;color-interpolation:sRGB;color-interpolation-filters:linearRGB;solid-color:#000000;solid-opacity:1;vector-effect:none;fill:#a8f1f1;fill-opacity:1;fill-rule:nonzero;stroke:#a8f1f1;stroke-width:3.9;stroke-linecap:round;stroke-linejoin:round;stroke-miterlimit:4;stroke-dasharray:none;stroke-dashoffset:0;stroke-opacity:0.984314;color-rendering:auto;image-rendering:auto;shape-rendering:auto;text-rendering:auto;enable-background:accumulate;stop-color:#000000"
         d="m -7.1859353,-18.170598 c 3.6e-4,0.002 -0.002,0.002 -0.002,0.004 2.2e-4,0.004 0.005,0.0129 0,0.0117 -0.004,10e-6 -0.009,4e-5 -0.0117,0 -8.8e-4,10e-6 -0.005,-3e-5 -0.008,0 0,0 -0.002,0 -0.002,0 h -0.002 -0.002 c -0.002,-1.5e-4 -0.004,9e-5 -0.006,0 -0.002,-10e-5 -0.005,10e-4 -0.006,0 -10e-4,-0.001 0.002,-0.003 0.002,-0.004 -0.004,-0.008 -0.001,-0.004 -0.004,-0.008 -7.7e-4,0 -10e-4,0 -0.002,0 -0.002,-2e-5 -0.004,4e-5 -0.006,0 -10e-4,-0.001 -9.4e-4,0.008 -0.002,0.004 h -0.002 c -2.1e-4,0.004 1.4e-4,0.008 0,0.0117 h -0.002 c -0.002,-2e-5 -0.006,10e-6 -0.008,0 -0.003,-3e-5 -0.009,0.003 -0.01,0 -10e-4,-0.004 -10e-4,-0.008 -0.002,-0.0117 h -0.004 -0.002 c -5.9e-4,0.003 4.8e-4,0.003 0,0.006 -4.9e-4,0.002 1.1e-4,0.004 0,0.006 5.6e-4,-0.002 0.001,-0.004 0.002,-0.006 7.7e-4,7.1e-4 0.002,-2.7e-4 0.002,0.006 0,0.001 -0.003,-10e-6 -0.004,0 -5e-4,0 -0.0197,7.6e-4 -0.0137,0 -0.002,6.4e-4 -0.003,0.002 -0.006,0.002 -0.002,8.6e-4 -0.004,10e-4 -0.006,0.002 -0.005,0.002 -0.01,0.004 -0.0156,0.004 -0.005,0 -0.0106,10e-6 -0.0156,0 -0.005,0 -0.009,-10e-6 -0.0137,0 -0.003,-2e-5 -0.009,-3.2e-4 -0.0117,0 -10e-4,10e-5 -0.0147,10e-4 -0.0117,0 -0.003,10e-4 -0.007,0.005 -0.01,0.006 -0.01,0.003 -0.0105,0.002 -0.0195,0.002 h -0.008 c -0.007,0 -0.013,-4.8e-4 -0.0195,-0.002 -0.001,-2.9e-4 -0.003,5e-4 -0.004,0 0,0 0.002,0.002 0.002,0.002 -8.3e-4,0.001 0.0118,-0.003 -0.0137,0.004 h -0.0176 -0.0156 -0.041 -0.0117 c -0.002,0 -0.004,2e-5 -0.006,0 0,9.8e-4 -0.003,0 -0.004,0 h -0.01 -0.0176 -0.0156 c -0.001,0 -5.7e-4,-0.002 -0.002,-0.002 -3.4892097,0.29825 -6.5828587,2.03809 -8.6581887,4.66602 -0.34191,0.43365 -0.26757,1.06233 0.16601,1.4043 0.43365,0.34188 1.06232,0.26756 1.40429,-0.16602 1.808709,-2.29031 4.498349,-3.78733 7.5390587,-3.96094 5.67799,0.0172 11.00391,5.60292 11.00391,11.5019599 9e-5,0.49865 0.3675,0.92104 0.861328,0.99023 3.55263,0.49491 6.1718703,3.18957 6.1718703,6.35742 0,3.503 -3.2104703,6.43946 -7.3300683,6.43946 -0.55228,0 -1,0.44771 -1,1.0000001 0,0.55228 0.44772,1 1,1 5.084398,0 9.3300683,-3.7264601 9.3300683,-8.4394601 0,-3.99252 -3.0957203,-7.18792 -7.1113303,-8.09375 -0.40193,-6.6160799 -5.97719803,-12.4457199 -12.486318,-12.7167899 -0.002,-9e-5 -0.004,8e-5 -0.006,0 -0.0119,-4.9e-4 -0.0233,-0.004 -0.0352,-0.004 -0.005,-2e-4 -0.0104,1.9e-4 -0.0156,0 h -0.0117 -0.002 -0.01 -0.006 c 0,0 -0.002,0 -0.002,0 h -0.002 c -0.003,0 -0.005,0 -0.008,0 h -0.002 c -0.002,0 -0.0146,-2.1e-4 -0.008,0 -0.001,5e-5 -0.003,-1.5e-4 -0.004,0 -0.001,1.4e-4 -0.003,-10e-5 -0.004,0 -8.5e-4,4e-5 -0.001,0 -0.002,0 -0.001,1.5e-4 -0.003,1.1e-4 -0.004,0 h -0.002 -0.002 -0.002 c -0.001,1.2e-4 -0.002,0.004 -0.004,0.004 h -0.0137 c -0.003,0 -0.007,2e-5 -0.01,0 -0.007,-2e-5 -0.0125,-1.3e-4 -0.0195,0 -0.004,-2.4e-4 -0.007,-8.6e-4 -0.01,0 -0.004,-0.002 -0.008,-0.002 -0.0117,-0.004 -0.004,-10e-6 -0.008,0 -0.0117,0 -8e-4,10e-6 -10e-4,-3e-5 -0.002,0 -0.002,-4e-5 -0.005,3e-5 -0.008,0 3e-4,-2.3e-4 -0.001,10e-5 -0.002,0 -0.001,1.5e-4 -0.004,0.001 -0.004,0 -3.9e-4,-10e-4 -0.002,0.001 -0.002,0 -0.006,0.003 -0.0155,-2.6e-4 -0.0215,-0.002 -0.002,-4.2e-4 -0.003,-0.001 -0.004,-0.002 h -0.006 -0.006 -0.0117 -0.002 -0.0137 -0.004 -0.008 -0.004 -0.0137 c -0.002,-2e-5 -0.003,-10e-5 -0.004,0 h -0.006 -0.01 -0.0117 -0.008 -0.008 -0.01 -0.0156 -0.0117 -0.006 c -0.004,0 -0.007,0 -0.01,0 -0.0107,-10e-6 -0.0206,-2e-5 -0.0312,0 -5e-4,0 -0.0218,10e-4 -0.0117,0 -0.0102,0.002 -0.0191,9.1e-4 -0.0293,0 0.005,-0.002 1e-5,-0.003 0.002,-0.004 -0.003,0.001 -0.006,0.008 -0.0117,0.008 0,0 -0.002,0 -0.002,0 -0.004,1.1e-4 -5.2e-4,-0.006 0,-0.0117 9e-5,-9.2e-4 1.3e-4,-0.001 0,-0.002 -2.8e-4,-8.8e-4 1.8e-4,-10e-4 0,-0.002 z m -0.17383,0.0273 c 0.004,-10e-4 0.006,-0.005 0.01,-0.006 5.1e-4,-10e-4 0.002,-0.002 0.002,-0.004 -0.008,0.01 -0.0156,0.0164 -0.0273,0.0117 0.005,-8e-4 0.0106,-0.001 0.0156,-0.002 z" />
      <path
         style="color:#000000;font-style:normal;font-variant:normal;font-weight:normal;font-stretch:normal;font-size:medium;line-height:normal;font-family:sans-serif;font-variant-ligatures:normal;font-variant-position:normal;font-variant-caps:normal;font-variant-numeric:normal;font-variant-alternates:normal;font-variant-east-asian:normal;font-feature-settings:normal;font-variation-settings:normal;text-indent:0;text-align:start;text-decoration:none;text-decoration-line:none;text-decoration-style:solid;text-decoration-color:#000000;letter-spacing:normal;word-spacing:normal;text-transform:none;writing-mode:lr-tb;direction:ltr;text-orientation:mixed;dominant-baseline:auto;baseline-shift:baseline;text-anchor:start;white-space:normal;shape-padding:0;shape-margin:0;inline-size:0;clip-rule:nonzero;display:inline;overflow:visible;visibility:visible;opacity:1;isolation:auto;mix-blend-mode:normal;color-interpolation:sRGB;color-interpolation-filters:linearRGB;solid-color:#000000;solid-opacity:1;vector-effect:none;fill:#a8f1f1;fill-opacity:1;fill-rule:nonzero;stroke:#a8f1f1;stroke-width:3.9;stroke-linecap:round;stroke-linejoin:miter;stroke-miterlimit:4;stroke-dasharray:none;stroke-dashoffset:0;stroke-opacity:0.984314;color-rendering:auto;image-rendering:auto;shape-rendering:auto;text-rendering:auto;enable-background:accumulate;stop-color:#000000;stop-opacity:1"
         d="m -16.927635,7.4735192 a 0.96056966,1.2398848 0 0 0 -0.889903,0.8548426 l -4.09743,16.1943792 5.546414,-3.232094 -2.203807,11.368838 a 0.96056966,1.2398848 0 0 0 0.69854,1.503848 0.96056966,1.2398848 0 0 0 1.165066,-0.902471 l 3.167503,-16.338871 -5.195581,3.028674 2.745378,-10.852219 a 0.96056966,1.2398848 0 0 0 -0.61474,-1.5635773 0.96056966,1.2398848 0 0 0 -0.32144,-0.061349 z"
         id="path2103" />
    </g>
    <g
       id="g2121"
       transform="translate(5.6568529,-0.7071063)"
       style="opacity:0.427653;fill:#000000">
      <path
         id="path2115"
         style="color:#000000;font-style:normal;font-variant:normal;font-weight:normal;font-stretch:normal;font-size:medium;line-height:normal;font-family:sans-serif;font-variant-ligatures:normal;font-variant-position:normal;font-variant-caps:normal;font-variant-numeric:normal;font-variant-alternates:normal;font-variant-east-asian:normal;font-feature-settings:normal;font-variation-settings:normal;text-indent:0;text-align:start;text-decoration:none;text-decoration-line:none;text-decoration-style:solid;text-decoration-color:#000000;letter-spacing:normal;word-spacing:normal;text-transform:none;writing-mode:lr-tb;direction:ltr;text-orientation:mixed;dominant-baseline:auto;baseline-shift:baseline;text-anchor:start;white-space:normal;shape-padding:0;shape-margin:0;inline-size:0;clip-rule:nonzero;display:inline;overflow:visible;visibility:visible;isolation:auto;mix-blend-mode:normal;color-interpolation:sRGB;color-interpolation-filters:linearRGB;solid-color:#000000;solid-opacity:1;vector-effect:none;fill:#000000;fill-opacity:1;fill-rule:nonzero;stroke:none;stroke-width:0.948438;stroke-linecap:round;stroke-linejoin:round;stroke-miterlimit:10;stroke-dasharray:none;stroke-dashoffset:0;stroke-opacity:1;color-rendering:auto;image-rendering:auto;shape-rendering:auto;text-rendering:auto;enable-background:accumulate;stop-color:#000000"
         d="m -25.054099,-31.78248 c -8.90425,0 -16.19336,7.13822 -16.19336,15.99023 0,0.57554 0.0745,1.13211 0.13476,1.69141 -5.31771,1.12678 -9.36133,6.00528 -9.36133,11.97461 0,6.78798 5.18073,12.37715 11.57618,12.34179 l 5.65234,-0.0312 c 1.13532,0.0843 1.31826,-1.72133 0.0156,-1.91992 l -5.66797,0.0156 c -5.363,0.0148 -9.7168,-4.63707 -9.7168,-10.40625 0,-5.3653 3.76961,-9.74611 8.5957,-10.33985 0.52798,-0.0645 0.89661,-0.57562 0.8086,-1.12109 -0.11528,-0.71604 -0.17579,-1.45444 -0.17579,-2.20508 0,-7.74704 6.37857,-14.05469 14.33204,-14.05469 7.512,0 13.621706,5.64195 14.275386,12.78125 0.04881,0.53173 0.502585,0.92169 1.013672,0.8711 0.51134,-0.0504 0.886516,-0.52269 0.837891,-1.05469 -0.74851,-8.17502 -7.716619,-14.5332 -16.126949,-14.5332 z"
         sodipodi:nodetypes="sscssccssccsscccss" />
      <path
         id="path2117"
         style="color:#000000;font-style:normal;font-variant:normal;font-weight:normal;font-stretch:normal;font-size:medium;line-height:normal;font-family:sans-serif;font-variant-ligatures:normal;font-variant-position:normal;font-variant-caps:normal;font-variant-numeric:normal;font-variant-alternates:normal;font-variant-east-asian:normal;font-feature-settings:normal;font-variation-settings:normal;text-indent:0;text-align:start;text-decoration:none;text-decoration-line:none;text-decoration-style:solid;text-decoration-color:#000000;letter-spacing:normal;word-spacing:normal;text-transform:none;writing-mode:lr-tb;direction:ltr;text-orientation:mixed;dominant-baseline:auto;baseline-shift:baseline;text-anchor:start;white-space:normal;shape-padding:0;shape-margin:0;inline-size:0;clip-rule:nonzero;display:inline;overflow:visible;visibility:visible;isolation:auto;mix-blend-mode:normal;color-interpolation:sRGB;color-interpolation-filters:linearRGB;solid-color:#000000;solid-opacity:1;vector-effect:none;fill:#000000;fill-opacity:1;fill-rule:nonzero;stroke:none;stroke-linecap:round;stroke-linejoin:round;stroke-miterlimit:10;stroke-dasharray:none;stroke-dashoffset:0;stroke-opacity:1;color-rendering:auto;image-rendering:auto;shape-rendering:auto;text-rendering:auto;enable-background:accumulate;stop-color:#000000"
         d="m -7.1859353,-18.170598 c 3.6e-4,0.002 -0.002,0.002 -0.002,0.004 2.2e-4,0.004 0.005,0.0129 0,0.0117 -0.004,10e-6 -0.009,4e-5 -0.0117,0 -8.8e-4,10e-6 -0.005,-3e-5 -0.008,0 0,0 -0.002,0 -0.002,0 h -0.002 -0.002 c -0.002,-1.5e-4 -0.004,9e-5 -0.006,0 -0.002,-10e-5 -0.005,10e-4 -0.006,0 -10e-4,-0.001 0.002,-0.003 0.002,-0.004 -0.004,-0.008 -0.001,-0.004 -0.004,-0.008 -7.7e-4,0 -10e-4,0 -0.002,0 -0.002,-2e-5 -0.004,4e-5 -0.006,0 -10e-4,-0.001 -9.4e-4,0.008 -0.002,0.004 h -0.002 c -2.1e-4,0.004 1.4e-4,0.008 0,0.0117 h -0.002 c -0.002,-2e-5 -0.006,10e-6 -0.008,0 -0.003,-3e-5 -0.009,0.003 -0.01,0 -10e-4,-0.004 -10e-4,-0.008 -0.002,-0.0117 h -0.004 -0.002 c -5.9e-4,0.003 4.8e-4,0.003 0,0.006 -4.9e-4,0.002 1.1e-4,0.004 0,0.006 5.6e-4,-0.002 0.001,-0.004 0.002,-0.006 7.7e-4,7.1e-4 0.002,-2.7e-4 0.002,0.006 0,0.001 -0.003,-10e-6 -0.004,0 -5e-4,0 -0.0197,7.6e-4 -0.0137,0 -0.002,6.4e-4 -0.003,0.002 -0.006,0.002 -0.002,8.6e-4 -0.004,10e-4 -0.006,0.002 -0.005,0.002 -0.01,0.004 -0.0156,0.004 -0.005,0 -0.0106,10e-6 -0.0156,0 -0.005,0 -0.009,-10e-6 -0.0137,0 -0.003,-2e-5 -0.009,-3.2e-4 -0.0117,0 -10e-4,10e-5 -0.0147,10e-4 -0.0117,0 -0.003,10e-4 -0.007,0.005 -0.01,0.006 -0.01,0.003 -0.0105,0.002 -0.0195,0.002 h -0.008 c -0.007,0 -0.013,-4.8e-4 -0.0195,-0.002 -0.001,-2.9e-4 -0.003,5e-4 -0.004,0 0,0 0.002,0.002 0.002,0.002 -8.3e-4,0.001 0.0118,-0.003 -0.0137,0.004 h -0.0176 -0.0156 -0.041 -0.0117 c -0.002,0 -0.004,2e-5 -0.006,0 0,9.8e-4 -0.003,0 -0.004,0 h -0.01 -0.0176 -0.0156 c -0.001,0 -5.7e-4,-0.002 -0.002,-0.002 -3.4892097,0.29825 -6.5828587,2.03809 -8.6581887,4.66602 -0.34191,0.43365 -0.26757,1.06233 0.16601,1.4043 0.43365,0.34188 1.06232,0.26756 1.40429,-0.16602 1.808709,-2.29031 4.498349,-3.78733 7.5390587,-3.96094 5.67799,0.0172 11.00391,5.60292 11.00391,11.5019599 9e-5,0.49865 0.3675,0.92104 0.861328,0.99023 3.55263,0.49491 6.1718703,3.18957 6.1718703,6.35742 0,3.503 -3.2104703,6.43946 -7.3300683,6.43946 -0.55228,0 -1,0.44771 -1,1.0000001 0,0.55228 0.44772,1 1,1 5.084398,0 9.3300683,-3.7264601 9.3300683,-8.4394601 0,-3.99252 -3.0957203,-7.18792 -7.1113303,-8.09375 -0.40193,-6.6160799 -5.97719803,-12.4457199 -12.486318,-12.7167899 -0.002,-9e-5 -0.004,8e-5 -0.006,0 -0.0119,-4.9e-4 -0.0233,-0.004 -0.0352,-0.004 -0.005,-2e-4 -0.0104,1.9e-4 -0.0156,0 h -0.0117 -0.002 -0.01 -0.006 c 0,0 -0.002,0 -0.002,0 h -0.002 c -0.003,0 -0.005,0 -0.008,0 h -0.002 c -0.002,0 -0.0146,-2.1e-4 -0.008,0 -0.001,5e-5 -0.003,-1.5e-4 -0.004,0 -0.001,1.4e-4 -0.003,-10e-5 -0.004,0 -8.5e-4,4e-5 -0.001,0 -0.002,0 -0.001,1.5e-4 -0.003,1.1e-4 -0.004,0 h -0.002 -0.002 -0.002 c -0.001,1.2e-4 -0.002,0.004 -0.004,0.004 h -0.0137 c -0.003,0 -0.007,2e-5 -0.01,0 -0.007,-2e-5 -0.0125,-1.3e-4 -0.0195,0 -0.004,-2.4e-4 -0.007,-8.6e-4 -0.01,0 -0.004,-0.002 -0.008,-0.002 -0.0117,-0.004 -0.004,-10e-6 -0.008,0 -0.0117,0 -8e-4,10e-6 -10e-4,-3e-5 -0.002,0 -0.002,-4e-5 -0.005,3e-5 -0.008,0 3e-4,-2.3e-4 -0.001,10e-5 -0.002,0 -0.001,1.5e-4 -0.004,0.001 -0.004,0 -3.9e-4,-10e-4 -0.002,0.001 -0.002,0 -0.006,0.003 -0.0155,-2.6e-4 -0.0215,-0.002 -0.002,-4.2e-4 -0.003,-0.001 -0.004,-0.002 h -0.006 -0.006 -0.0117 -0.002 -0.0137 -0.004 -0.008 -0.004 -0.0137 c -0.002,-2e-5 -0.003,-10e-5 -0.004,0 h -0.006 -0.01 -0.0117 -0.008 -0.008 -0.01 -0.0156 -0.0117 -0.006 c -0.004,0 -0.007,0 -0.01,0 -0.0107,-10e-6 -0.0206,-2e-5 -0.0312,0 -5e-4,0 -0.0218,10e-4 -0.0117,0 -0.0102,0.002 -0.0191,9.1e-4 -0.0293,0 0.005,-0.002 1e-5,-0.003 0.002,-0.004 -0.003,0.001 -0.006,0.008 -0.0117,0.008 0,0 -0.002,0 -0.002,0 -0.004,1.1e-4 -5.2e-4,-0.006 0,-0.0117 9e-5,-9.2e-4 1.3e-4,-0.001 0,-0.002 -2.8e-4,-8.8e-4 1.8e-4,-10e-4 0,-0.002 z m -0.17383,0.0273 c 0.004,-10e-4 0.006,-0.005 0.01,-0.006 5.1e-4,-10e-4 0.002,-0.002 0.002,-0.004 -0.008,0.01 -0.0156,0.0164 -0.0273,0.0117 0.005,-8e-4 0.0106,-0.001 0.0156,-0.002 z" />
      <path
         style="color:#000000;font-style:normal;font-variant:normal;font-weight:normal;font-stretch:normal;font-size:medium;line-height:normal;font-family:sans-serif;font-variant-ligatures:normal;font-variant-position:normal;font-variant-caps:normal;font-variant-numeric:normal;font-variant-alternates:normal;font-variant-east-asian:normal;font-feature-settings:normal;font-variation-settings:normal;text-indent:0;text-align:start;text-decoration:none;text-decoration-line:none;text-decoration-style:solid;text-decoration-color:#000000;letter-spacing:normal;word-spacing:normal;text-transform:none;writing-mode:lr-tb;direction:ltr;text-orientation:mixed;dominant-baseline:auto;baseline-shift:baseline;text-anchor:start;white-space:normal;shape-padding:0;shape-margin:0;inline-size:0;clip-rule:nonzero;display:inline;overflow:visible;visibility:visible;opacity:1;isolation:auto;mix-blend-mode:normal;color-interpolation:sRGB;color-interpolation-filters:linearRGB;solid-color:#000000;solid-opacity:1;vector-effect:none;fill:#000000;fill-opacity:1;fill-rule:nonzero;stroke:none;stroke-width:0.363776;stroke-linecap:round;stroke-linejoin:miter;stroke-miterlimit:10;stroke-dasharray:none;stroke-dashoffset:0;stroke-opacity:1;color-rendering:auto;image-rendering:auto;shape-rendering:auto;text-rendering:auto;enable-background:accumulate;stop-color:#000000;stop-opacity:1"
         d="m -16.927635,7.4735192 a 0.96056966,1.2398848 0 0 0 -0.889903,0.8548426 l -4.09743,16.1943792 5.546414,-3.232094 -2.203807,11.368838 a 0.96056966,1.2398848 0 0 0 0.69854,1.503848 0.96056966,1.2398848 0 0 0 1.165066,-0.902471 l 3.167503,-16.338871 -5.195581,3.028674 2.745378,-10.852219 a 0.96056966,1.2398848 0 0 0 -0.61474,-1.5635773 0.96056966,1.2398848 0 0 0 -0.32144,-0.061349 z"
         id="path2119" />
    </g>
    <g
       id="g2113"
       transform="translate(4.5961927,-0.7071063)">
      <path
         id="path2107"
         style="color:#000000;font-style:normal;font-variant:normal;font-weight:normal;font-stretch:normal;font-size:medium;line-height:normal;font-family:sans-serif;font-variant-ligatures:normal;font-variant-position:normal;font-variant-caps:normal;font-variant-numeric:normal;font-variant-alternates:normal;font-variant-east-asian:normal;font-feature-settings:normal;font-variation-settings:normal;text-indent:0;text-align:start;text-decoration:none;text-decoration-line:none;text-decoration-style:solid;text-decoration-color:#000000;letter-spacing:normal;word-spacing:normal;text-transform:none;writing-mode:lr-tb;direction:ltr;text-orientation:mixed;dominant-baseline:auto;baseline-shift:baseline;text-anchor:start;white-space:normal;shape-padding:0;shape-margin:0;inline-size:0;clip-rule:nonzero;display:inline;overflow:visible;visibility:visible;isolation:auto;mix-blend-mode:normal;color-interpolation:sRGB;color-interpolation-filters:linearRGB;solid-color:#000000;solid-opacity:1;vector-effect:none;fill:#ffffff;fill-opacity:1;fill-rule:nonzero;stroke:none;stroke-width:0.948438;stroke-linecap:round;stroke-linejoin:round;stroke-miterlimit:10;stroke-dasharray:none;stroke-dashoffset:0;stroke-opacity:1;color-rendering:auto;image-rendering:auto;shape-rendering:auto;text-rendering:auto;enable-background:accumulate;stop-color:#000000"
         d="m -25.054099,-31.78248 c -8.90425,0 -16.19336,7.13822 -16.19336,15.99023 0,0.57554 0.0745,1.13211 0.13476,1.69141 -5.31771,1.12678 -9.36133,6.00528 -9.36133,11.97461 0,6.78798 5.18073,12.37715 11.57618,12.34179 l 5.65234,-0.0312 c 1.13532,0.0843 1.31826,-1.72133 0.0156,-1.91992 l -5.66797,0.0156 c -5.363,0.0148 -9.7168,-4.63707 -9.7168,-10.40625 0,-5.3653 3.76961,-9.74611 8.5957,-10.33985 0.52798,-0.0645 0.89661,-0.57562 0.8086,-1.12109 -0.11528,-0.71604 -0.17579,-1.45444 -0.17579,-2.20508 0,-7.74704 6.37857,-14.05469 14.33204,-14.05469 7.512,0 13.621706,5.64195 14.275386,12.78125 0.04881,0.53173 0.502585,0.92169 1.013672,0.8711 0.51134,-0.0504 0.886516,-0.52269 0.837891,-1.05469 -0.74851,-8.17502 -7.716619,-14.5332 -16.126949,-14.5332 z"
         sodipodi:nodetypes="sscssccssccsscccss" />
      <path
         id="path2109"
         style="color:#000000;font-style:normal;font-variant:normal;font-weight:normal;font-stretch:normal;font-size:medium;line-height:normal;font-family:sans-serif;font-variant-ligatures:normal;font-variant-position:normal;font-variant-caps:normal;font-variant-numeric:normal;font-variant-alternates:normal;font-variant-east-asian:normal;font-feature-settings:normal;font-variation-settings:normal;text-indent:0;text-align:start;text-decoration:none;text-decoration-line:none;text-decoration-style:solid;text-decoration-color:#000000;letter-spacing:normal;word-spacing:normal;text-transform:none;writing-mode:lr-tb;direction:ltr;text-orientation:mixed;dominant-baseline:auto;baseline-shift:baseline;text-anchor:start;white-space:normal;shape-padding:0;shape-margin:0;inline-size:0;clip-rule:nonzero;display:inline;overflow:visible;visibility:visible;isolation:auto;mix-blend-mode:normal;color-interpolation:sRGB;color-interpolation-filters:linearRGB;solid-color:#000000;solid-opacity:1;vector-effect:none;fill:#ffffff;fill-opacity:1;fill-rule:nonzero;stroke:none;stroke-linecap:round;stroke-linejoin:round;stroke-miterlimit:10;stroke-dasharray:none;stroke-dashoffset:0;stroke-opacity:1;color-rendering:auto;image-rendering:auto;shape-rendering:auto;text-rendering:auto;enable-background:accumulate;stop-color:#000000"
         d="m -7.1859353,-18.170598 c 3.6e-4,0.002 -0.002,0.002 -0.002,0.004 2.2e-4,0.004 0.005,0.0129 0,0.0117 -0.004,10e-6 -0.009,4e-5 -0.0117,0 -8.8e-4,10e-6 -0.005,-3e-5 -0.008,0 0,0 -0.002,0 -0.002,0 h -0.002 -0.002 c -0.002,-1.5e-4 -0.004,9e-5 -0.006,0 -0.002,-10e-5 -0.005,10e-4 -0.006,0 -10e-4,-0.001 0.002,-0.003 0.002,-0.004 -0.004,-0.008 -0.001,-0.004 -0.004,-0.008 -7.7e-4,0 -10e-4,0 -0.002,0 -0.002,-2e-5 -0.004,4e-5 -0.006,0 -10e-4,-0.001 -9.4e-4,0.008 -0.002,0.004 h -0.002 c -2.1e-4,0.004 1.4e-4,0.008 0,0.0117 h -0.002 c -0.002,-2e-5 -0.006,10e-6 -0.008,0 -0.003,-3e-5 -0.009,0.003 -0.01,0 -10e-4,-0.004 -10e-4,-0.008 -0.002,-0.0117 h -0.004 -0.002 c -5.9e-4,0.003 4.8e-4,0.003 0,0.006 -4.9e-4,0.002 1.1e-4,0.004 0,0.006 5.6e-4,-0.002 0.001,-0.004 0.002,-0.006 7.7e-4,7.1e-4 0.002,-2.7e-4 0.002,0.006 0,0.001 -0.003,-10e-6 -0.004,0 -5e-4,0 -0.0197,7.6e-4 -0.0137,0 -0.002,6.4e-4 -0.003,0.002 -0.006,0.002 -0.002,8.6e-4 -0.004,10e-4 -0.006,0.002 -0.005,0.002 -0.01,0.004 -0.0156,0.004 -0.005,0 -0.0106,10e-6 -0.0156,0 -0.005,0 -0.009,-10e-6 -0.0137,0 -0.003,-2e-5 -0.009,-3.2e-4 -0.0117,0 -10e-4,10e-5 -0.0147,10e-4 -0.0117,0 -0.003,10e-4 -0.007,0.005 -0.01,0.006 -0.01,0.003 -0.0105,0.002 -0.0195,0.002 h -0.008 c -0.007,0 -0.013,-4.8e-4 -0.0195,-0.002 -0.001,-2.9e-4 -0.003,5e-4 -0.004,0 0,0 0.002,0.002 0.002,0.002 -8.3e-4,0.001 0.0118,-0.003 -0.0137,0.004 h -0.0176 -0.0156 -0.041 -0.0117 c -0.002,0 -0.004,2e-5 -0.006,0 0,9.8e-4 -0.003,0 -0.004,0 h -0.01 -0.0176 -0.0156 c -0.001,0 -5.7e-4,-0.002 -0.002,-0.002 -3.4892097,0.29825 -6.5828587,2.03809 -8.6581887,4.66602 -0.34191,0.43365 -0.26757,1.06233 0.16601,1.4043 0.43365,0.34188 1.06232,0.26756 1.40429,-0.16602 1.808709,-2.29031 4.498349,-3.78733 7.5390587,-3.96094 5.67799,0.0172 11.00391,5.60292 11.00391,11.5019599 9e-5,0.49865 0.3675,0.92104 0.861328,0.99023 3.55263,0.49491 6.1718703,3.18957 6.1718703,6.35742 0,3.503 -3.2104703,6.43946 -7.3300683,6.43946 -0.55228,0 -1,0.44771 -1,1.0000001 0,0.55228 0.44772,1 1,1 5.084398,0 9.3300683,-3.7264601 9.3300683,-8.4394601 0,-3.99252 -3.0957203,-7.18792 -7.1113303,-8.09375 -0.40193,-6.6160799 -5.97719803,-12.4457199 -12.486318,-12.7167899 -0.002,-9e-5 -0.004,8e-5 -0.006,0 -0.0119,-4.9e-4 -0.0233,-0.004 -0.0352,-0.004 -0.005,-2e-4 -0.0104,1.9e-4 -0.0156,0 h -0.0117 -0.002 -0.01 -0.006 c 0,0 -0.002,0 -0.002,0 h -0.002 c -0.003,0 -0.005,0 -0.008,0 h -0.002 c -0.002,0 -0.0146,-2.1e-4 -0.008,0 -0.001,5e-5 -0.003,-1.5e-4 -0.004,0 -0.001,1.4e-4 -0.003,-10e-5 -0.004,0 -8.5e-4,4e-5 -0.001,0 -0.002,0 -0.001,1.5e-4 -0.003,1.1e-4 -0.004,0 h -0.002 -0.002 -0.002 c -0.001,1.2e-4 -0.002,0.004 -0.004,0.004 h -0.0137 c -0.003,0 -0.007,2e-5 -0.01,0 -0.007,-2e-5 -0.0125,-1.3e-4 -0.0195,0 -0.004,-2.4e-4 -0.007,-8.6e-4 -0.01,0 -0.004,-0.002 -0.008,-0.002 -0.0117,-0.004 -0.004,-10e-6 -0.008,0 -0.0117,0 -8e-4,10e-6 -10e-4,-3e-5 -0.002,0 -0.002,-4e-5 -0.005,3e-5 -0.008,0 3e-4,-2.3e-4 -0.001,10e-5 -0.002,0 -0.001,1.5e-4 -0.004,0.001 -0.004,0 -3.9e-4,-10e-4 -0.002,0.001 -0.002,0 -0.006,0.003 -0.0155,-2.6e-4 -0.0215,-0.002 -0.002,-4.2e-4 -0.003,-0.001 -0.004,-0.002 h -0.006 -0.006 -0.0117 -0.002 -0.0137 -0.004 -0.008 -0.004 -0.0137 c -0.002,-2e-5 -0.003,-10e-5 -0.004,0 h -0.006 -0.01 -0.0117 -0.008 -0.008 -0.01 -0.0156 -0.0117 -0.006 c -0.004,0 -0.007,0 -0.01,0 -0.0107,-10e-6 -0.0206,-2e-5 -0.0312,0 -5e-4,0 -0.0218,10e-4 -0.0117,0 -0.0102,0.002 -0.0191,9.1e-4 -0.0293,0 0.005,-0.002 1e-5,-0.003 0.002,-0.004 -0.003,0.001 -0.006,0.008 -0.0117,0.008 0,0 -0.002,0 -0.002,0 -0.004,1.1e-4 -5.2e-4,-0.006 0,-0.0117 9e-5,-9.2e-4 1.3e-4,-0.001 0,-0.002 -2.8e-4,-8.8e-4 1.8e-4,-10e-4 0,-0.002 z m -0.17383,0.0273 c 0.004,-10e-4 0.006,-0.005 0.01,-0.006 5.1e-4,-10e-4 0.002,-0.002 0.002,-0.004 -0.008,0.01 -0.0156,0.0164 -0.0273,0.0117 0.005,-8e-4 0.0106,-0.001 0.0156,-0.002 z" />
      <path
         style="color:#000000;font-style:normal;font-variant:normal;font-weight:normal;font-stretch:normal;font-size:medium;line-height:normal;font-family:sans-serif;font-variant-ligatures:normal;font-variant-position:normal;font-variant-caps:normal;font-variant-numeric:normal;font-variant-alternates:normal;font-variant-east-asian:normal;font-feature-settings:normal;font-variation-settings:normal;text-indent:0;text-align:start;text-decoration:none;text-decoration-line:none;text-decoration-style:solid;text-decoration-color:#000000;letter-spacing:normal;word-spacing:normal;text-transform:none;writing-mode:lr-tb;direction:ltr;text-orientation:mixed;dominant-baseline:auto;baseline-shift:baseline;text-anchor:start;white-space:normal;shape-padding:0;shape-margin:0;inline-size:0;clip-rule:nonzero;display:inline;overflow:visible;visibility:visible;opacity:1;isolation:auto;mix-blend-mode:normal;color-interpolation:sRGB;color-interpolation-filters:linearRGB;solid-color:#000000;solid-opacity:1;vector-effect:none;fill:#ffffff;fill-opacity:1;fill-rule:nonzero;stroke:none;stroke-width:0.363776;stroke-linecap:round;stroke-linejoin:miter;stroke-miterlimit:10;stroke-dasharray:none;stroke-dashoffset:0;stroke-opacity:1;color-rendering:auto;image-rendering:auto;shape-rendering:auto;text-rendering:auto;enable-background:accumulate;stop-color:#000000;stop-opacity:1"
         d="m -16.927635,7.4735192 a 0.96056966,1.2398848 0 0 0 -0.889903,0.8548426 l -4.09743,16.1943792 5.546414,-3.232094 -2.203807,11.368838 a 0.96056966,1.2398848 0 0 0 0.69854,1.503848 0.96056966,1.2398848 0 0 0 1.165066,-0.902471 l 3.167503,-16.338871 -5.195581,3.028674 2.745378,-10.852219 a 0.96056966,1.2398848 0 0 0 -0.61474,-1.5635773 0.96056966,1.2398848 0 0 0 -0.32144,-0.061349 z"
         id="path2111" />
    </g>
  </g>
</svg>
